<?xml version="1.0" encoding="utf-8"?>
<!-- Generator: Adobe Illustrator 19.1.0, SVG Export Plug-In . SVG Version: 6.00 Build 0)  -->
<svg version="1.0" id="Layer_1" xmlns="http://www.w3.org/2000/svg" xmlns:xlink="http://www.w3.org/1999/xlink" x="0px" y="0px"
	 width="171px" height="213px" viewBox="0 0 171 213" style="enable-background:new 0 0 171 213;" xml:space="preserve">
<style type="text/css">
	.Graphic_x0020_Style{fill:#C8C8C8;}
	.st0{fill:#FFFFFF;}
	.st1{opacity:0.2;}
	.st2{fill:#353535;}
	.st3{fill:#8B372F;}
	.st4{fill:#D1D1D1;}
	.st5{fill:#ECC19C;}
	.st6{fill:#CF9E76;}
	.st7{fill:#722D26;}
	.st8{fill:#A03F35;}
	.st9{fill:#B9493E;}
	.st10{fill:#424242;}
	.st11{fill:#DFB28B;}
	.st12{fill:#1C1C1C;}
	.st13{fill:#292929;}
	.st14{fill:#D35345;}
	.st15{fill:#E2413E;}
	.st16{fill:#F56462;}
	.st17{fill:#888888;}
	.st18{fill:#5D5D5D;}
	.st19{fill:#F0D0B4;}
	.st20{fill:#C2C2C2;}
	.st21{fill:#F7E041;}
	.st22{enable-background:new    ;}
	.st23{clip-path:url(#SVGID_1_);enable-background:new    ;}
	.st24{fill:#8F8F8F;}
	.st25{fill:#8C8C8C;}
	.st26{fill:#8A8A8A;}
	.st27{fill:#878787;}
	.st28{fill:#858585;}
	.st29{fill:#828282;}
	.st30{clip-path:url(#SVGID_2_);enable-background:new    ;}
	.st31{clip-path:url(#SVGID_3_);enable-background:new    ;}
	.st32{clip-path:url(#SVGID_4_);enable-background:new    ;}
	.st33{clip-path:url(#SVGID_5_);enable-background:new    ;}
	.st34{clip-path:url(#SVGID_6_);enable-background:new    ;}
	.st35{clip-path:url(#SVGID_7_);enable-background:new    ;}
	.st36{clip-path:url(#SVGID_8_);enable-background:new    ;}
	.st37{clip-path:url(#SVGID_9_);enable-background:new    ;}
	.st38{clip-path:url(#SVGID_10_);enable-background:new    ;}
	.st39{clip-path:url(#SVGID_11_);enable-background:new    ;}
	.st40{clip-path:url(#SVGID_12_);enable-background:new    ;}
	.st41{fill:#AFAFAF;}
	.st42{clip-path:url(#SVGID_13_);}
	.st43{clip-path:url(#SVGID_15_);enable-background:new    ;}
	.st44{clip-path:url(#SVGID_16_);enable-background:new    ;}
	.st45{fill:#808080;}
	.st46{clip-path:url(#SVGID_17_);enable-background:new    ;}
	.st47{clip-path:url(#SVGID_18_);enable-background:new    ;}
	.st48{clip-path:url(#SVGID_19_);enable-background:new    ;}
	.st49{clip-path:url(#SVGID_20_);}
	.st50{clip-path:url(#SVGID_22_);enable-background:new    ;}
	.st51{clip-path:url(#SVGID_23_);enable-background:new    ;}
	.st52{clip-path:url(#SVGID_24_);enable-background:new    ;}
	.st53{clip-path:url(#SVGID_25_);enable-background:new    ;}
	.st54{clip-path:url(#SVGID_26_);enable-background:new    ;}
	.st55{clip-path:url(#SVGID_27_);}
	.st56{clip-path:url(#SVGID_29_);enable-background:new    ;}
	.st57{fill:#323232;}
	.st58{fill:none;stroke:#205983;stroke-miterlimit:10;}
	.st59{fill:url(#SVGID_30_);}
	.st60{fill:#205983;}
	.st61{fill:#82848A;}
	.st62{fill:#DDE89C;}
	.st63{fill:#ACC464;}
	.st64{clip-path:url(#SVGID_32_);}
	.st65{fill:#ECECCC;}
	.st66{fill:#C5DB67;}
	.st67{fill:#C2D37B;}
	.st68{fill:#CCC098;}
	.st69{fill:#C4D679;}
	.st70{fill:#B2CB63;}
	.st71{fill:#A38F63;}
	.st72{fill:#DFEA9E;}
	.st73{fill:#BFCC76;}
	.st74{clip-path:url(#SVGID_34_);}
	.st75{fill:#C4D57D;}
	.st76{clip-path:url(#SVGID_38_);}
	.st77{fill:#A49067;}
	.st78{fill:#EEEECE;}
	.st79{fill:#85A065;}
	.st80{opacity:0.3;fill:#A49067;}
	.st81{fill:#DCDED2;}
	.st82{fill:#EEEDEB;}
	.st83{fill:#F78267;}
	.st84{fill:#EC5B57;}
	.st85{opacity:0.7;fill:#85A065;}
	.st86{clip-path:url(#SVGID_50_);}
	.st87{fill:#BDAF81;}
	.st88{fill:#A19F6B;}
	.st89{fill:#CEC29A;}
	.st90{fill:#F44945;}
	.st91{clip-path:url(#SVGID_62_);}
	.st92{fill:#FF7555;}
	.st93{fill:#D84747;}
	.st94{clip-path:url(#SVGID_68_);}
	.st95{opacity:0.4;fill:#A49067;}
	.st96{clip-path:url(#SVGID_80_);}
	.st97{fill:#AEC666;}
	.st98{clip-path:url(#SVGID_92_);}
	.st99{clip-path:url(#SVGID_98_);}
	.st100{fill:#C6D87B;stroke:#B4CD65;stroke-width:10.3424;stroke-miterlimit:10;}
	.st101{fill:#C7DD69;}
	.st102{opacity:0.5;fill:#CEC29A;}
	.st103{fill:#F7F6DB;}
	.st104{fill:#9FB25B;}
	.st105{clip-path:url(#SVGID_102_);}
	.st106{fill:#B4CD65;}
	.st107{fill:#A59165;}
	.st108{clip-path:url(#SVGID_104_);}
	.st109{fill:url(#SVGID_105_);}
	.st110{opacity:0;fill:#414042;}
	.st111{opacity:1.162791e-002;fill:#414042;}
	.st112{opacity:2.325581e-002;fill:#414042;}
	.st113{opacity:3.488372e-002;fill:#414042;}
	.st114{opacity:4.651163e-002;fill:#414042;}
	.st115{opacity:5.813954e-002;fill:#414042;}
	.st116{opacity:6.976745e-002;fill:#414042;}
	.st117{opacity:8.139535e-002;fill:#414042;}
	.st118{opacity:9.302326e-002;fill:#414042;}
	.st119{opacity:0.1047;fill:#414042;}
	.st120{opacity:0.1163;fill:#414042;}
	.st121{opacity:0.1279;fill:#414042;}
	.st122{opacity:0.1395;fill:#414042;}
	.st123{opacity:0.1512;fill:#414042;}
	.st124{opacity:0.1628;fill:#414042;}
	.st125{opacity:0.1744;fill:#414042;}
	.st126{opacity:0.186;fill:#414042;}
	.st127{opacity:0.1977;fill:#414042;}
	.st128{opacity:0.2093;fill:#414042;}
	.st129{opacity:0.2209;fill:#414042;}
	.st130{opacity:0.2326;fill:#414042;}
	.st131{opacity:0.2442;fill:#414042;}
	.st132{opacity:0.2558;fill:#414042;}
	.st133{opacity:0.2674;fill:#414042;}
	.st134{opacity:0.2791;fill:#414042;}
	.st135{opacity:0.2907;fill:#414042;}
	.st136{opacity:0.3023;fill:#414042;}
	.st137{opacity:0.314;fill:#414042;}
	.st138{opacity:0.3256;fill:#414042;}
	.st139{opacity:0.3372;fill:#414042;}
	.st140{opacity:0.3488;fill:#414042;}
	.st141{opacity:0.3605;fill:#414042;}
	.st142{opacity:0.3721;fill:#414042;}
	.st143{opacity:0.3837;fill:#414042;}
	.st144{opacity:0.3953;fill:#414042;}
	.st145{opacity:0.407;fill:#414042;}
	.st146{opacity:0.4186;fill:#414042;}
	.st147{opacity:0.4302;fill:#414042;}
	.st148{opacity:0.4419;fill:#414042;}
	.st149{opacity:0.4535;fill:#414042;}
	.st150{opacity:0.4651;fill:#414042;}
	.st151{opacity:0.4767;fill:#414042;}
	.st152{opacity:0.4884;fill:#414042;}
	.st153{opacity:0.5;fill:#414042;}
	.st154{fill:url(#SVGID_106_);}
	.st155{fill:#DDDDDD;}
	.st156{opacity:0.5;fill:#DDDDDD;}
	.st157{opacity:0.2;fill:#A39F9B;}
	.st158{fill:#F0EBE8;}
	.st159{opacity:0.5;fill:#FFFFFF;}
	.st160{opacity:0.5;fill:#4C4C4C;}
	.st161{fill:url(#SVGID_107_);}
	.st162{fill:url(#SVGID_108_);}
	.st163{fill:url(#SVGID_109_);}
	.st164{fill:url(#SVGID_110_);}
	.st165{fill:url(#SVGID_111_);}
	.st166{fill:url(#SVGID_112_);}
	.st167{fill:url(#SVGID_113_);}
	.st168{fill:url(#SVGID_114_);}
	.st169{fill:url(#SVGID_115_);}
	.st170{fill:url(#SVGID_116_);}
	.st171{fill:url(#SVGID_117_);}
	.st172{fill:url(#SVGID_118_);}
	.st173{fill:url(#SVGID_119_);}
	.st174{fill:url(#SVGID_120_);}
	.st175{fill:#C4BAB3;}
	.st176{fill:#D3D1CF;}
	.st177{fill:#E3DEDB;}
	.st178{opacity:0.3;fill:#FFFFFF;}
	.st179{fill:#A39F9B;}
	.st180{opacity:0.5;}
	.st181{fill:url(#SVGID_121_);}
	.st182{fill:url(#SVGID_122_);}
	.st183{fill:#FAAA72;}
	.st184{fill:url(#SVGID_123_);}
	.st185{opacity:0.3;fill:#D3C9C2;}
	.st186{fill:#FFB785;}
	.st187{fill:#D88961;}
	.st188{fill:#F9B28F;}
	.st189{fill:#D98B68;}
	.st190{fill:#FFBFA6;}
	.st191{fill:#FFC7A1;}
	.st192{opacity:0.8;}
	.st193{fill:url(#SVGID_124_);}
	.st194{fill:#88A863;}
	.st195{clip-path:url(#SVGID_126_);}
	.st196{fill:#C6D87B;}
	.st197{fill:url(#SVGID_127_);}
	.st198{fill:url(#SVGID_128_);}
	.st199{opacity:0.3;fill:#E2D1BD;}
	.st200{fill:#E89363;}
	.st201{fill:#FFBA8A;}
	.st202{fill:url(#SVGID_129_);}
	.st203{fill:#B26843;}
	.st204{fill:url(#SVGID_130_);}
	.st205{fill:url(#SVGID_131_);}
	.st206{fill:url(#SVGID_132_);}
	.st207{fill:url(#SVGID_133_);}
	.st208{fill:url(#SVGID_134_);}
	.st209{fill:url(#SVGID_135_);}
	.st210{fill:url(#SVGID_136_);}
	.st211{fill:url(#SVGID_137_);}
	.st212{fill:url(#SVGID_138_);}
	.st213{fill:url(#SVGID_139_);}
	.st214{fill:url(#SVGID_140_);}
	.st215{fill:url(#SVGID_141_);}
	.st216{fill:url(#SVGID_142_);}
	.st217{fill:url(#SVGID_143_);}
	.st218{fill:url(#SVGID_144_);}
	.st219{fill:url(#SVGID_145_);}
	.st220{fill:url(#SVGID_146_);}
	.st221{fill:url(#SVGID_147_);}
	.st222{fill:url(#SVGID_148_);}
	.st223{fill:url(#SVGID_149_);}
	.st224{fill:url(#SVGID_150_);}
	.st225{fill:url(#SVGID_151_);}
	.st226{fill:url(#SVGID_152_);}
	.st227{fill:url(#SVGID_153_);}
	.st228{fill:url(#SVGID_154_);}
	.st229{fill:url(#SVGID_155_);}
	.st230{fill:url(#SVGID_156_);}
	.st231{fill:url(#SVGID_157_);}
	.st232{fill:url(#SVGID_158_);}
	.st233{fill:#E7915C;}
	.st234{fill:url(#SVGID_159_);}
	.st235{opacity:0.4;fill:#414042;}
	.st236{fill:url(#SVGID_160_);}
	.st237{fill:url(#SVGID_161_);}
	.st238{fill:url(#SVGID_162_);}
	.st239{fill:url(#SVGID_163_);}
	.st240{fill:url(#SVGID_164_);}
	.st241{fill:url(#SVGID_165_);}
	.st242{fill:url(#SVGID_166_);}
	.st243{fill:url(#SVGID_167_);}
	.st244{fill:url(#SVGID_168_);}
	.st245{fill:url(#SVGID_169_);}
	.st246{opacity:0.2;fill:#FFE97D;}
	.st247{fill:url(#SVGID_170_);}
	.st248{opacity:0.3;fill:#FFE97D;}
	.st249{opacity:0.3;fill:#E28429;}
	.st250{fill:#FFE558;}
	.st251{opacity:0.6;}
	.st252{fill:#D38139;}
	.st253{fill:url(#SVGID_171_);}
	.st254{fill:url(#SVGID_172_);}
	.st255{fill:url(#SVGID_173_);}
	.st256{fill:url(#SVGID_174_);}
	.st257{fill:url(#SVGID_175_);}
	.st258{fill:url(#SVGID_176_);}
	.st259{fill:url(#SVGID_177_);}
	.st260{fill:url(#SVGID_178_);}
	.st261{fill:url(#SVGID_179_);}
	.st262{fill:url(#SVGID_180_);}
	.st263{fill:#D38139;stroke:#D38139;stroke-miterlimit:10;}
	.st264{fill:url(#SVGID_181_);}
	.st265{fill:url(#SVGID_182_);}
	.st266{fill:#F29549;}
	.st267{fill:url(#SVGID_183_);}
	.st268{fill:#EC8E33;}
	.st269{opacity:0.6;fill:#E28429;}
	.st270{fill:url(#SVGID_184_);}
	.st271{opacity:0.2;fill:#FFFFFF;}
	.st272{fill:url(#SVGID_185_);}
	.st273{opacity:0.7;fill:url(#SVGID_186_);}
	.st274{opacity:0.7;fill:url(#SVGID_187_);}
	.st275{fill:url(#SVGID_188_);}
	.st276{fill:url(#SVGID_189_);}
	.st277{fill:url(#SVGID_190_);}
	.st278{fill:url(#SVGID_191_);}
	.st279{opacity:0.9;fill:#FFFFFF;}
	.st280{opacity:0.4;fill:#FFFFFF;}
	.st281{opacity:0.8;fill:#FFFFFF;}
	.st282{fill:url(#SVGID_192_);}
	.st283{fill:url(#SVGID_193_);}
	.st284{fill:url(#SVGID_194_);}
	.st285{fill:url(#SVGID_195_);}
	.st286{fill:url(#SVGID_196_);}
	.st287{opacity:0.7;fill:url(#SVGID_197_);}
	.st288{opacity:0.7;fill:url(#SVGID_198_);}
	.st289{fill:url(#SVGID_199_);}
	.st290{fill:url(#SVGID_200_);}
	.st291{fill:url(#SVGID_201_);}
	.st292{fill:url(#SVGID_202_);}
	.st293{fill:url(#SVGID_203_);}
	.st294{fill:#FFB625;}
	.st295{fill:#FF9B2D;}
	.st296{opacity:0.5;fill:#FFE754;}
	.st297{opacity:0.3;}
	.st298{fill:#F99300;}
	.st299{fill:#DBA971;}
	.st300{fill:#EDD5B4;}
	.st301{opacity:0.7;}
	.st302{fill:#FEEAC9;}
	.st303{opacity:0.4;}
	.st304{clip-path:url(#SVGID_205_);}
	.st305{fill:#FFBE43;}
	.st306{fill:#F9B03A;}
	.st307{opacity:0.5;fill:url(#SVGID_206_);}
	.st308{opacity:0.3;fill:url(#SVGID_207_);}
	.st309{opacity:0.8;fill:#FF9B2D;}
	.st310{fill:url(#SVGID_208_);}
	.st311{fill:#FFE97D;}
	.st312{fill:url(#SVGID_209_);}
	.st313{fill:#E28429;}
	.st314{fill:url(#SVGID_210_);}
	.st315{fill:url(#SVGID_211_);}
	.st316{fill:url(#SVGID_212_);}
	.st317{clip-path:url(#SVGID_214_);}
	.st318{fill:url(#SVGID_215_);}
	.st319{fill:url(#SVGID_216_);}
	.st320{fill:none;stroke:#F99300;stroke-width:2.0685;stroke-miterlimit:10;}
	.st321{fill:#FFD84B;}
	.st322{fill:#F4B350;}
	.st323{clip-path:url(#SVGID_218_);fill:#C8C8C8;}
	.st324{clip-path:url(#SVGID_218_);fill:#686671;}
	.st325{fill:#4F3C30;}
	.st326{fill:#F6CCB8;}
	.st327{fill:#42404D;}
	.st328{opacity:0.8;fill:#F6CCB8;}
	.st329{fill:#3C2417;}
	.st330{fill:#F05D44;}
	.st331{fill:#ADADAE;}
	.st332{fill:#F7CDB9;}
	.st333{fill:#FF7A7D;}
	.st334{clip-path:url(#SVGID_220_);fill:#1A1718;}
	.st335{clip-path:url(#SVGID_220_);fill:#C8C8C8;}
	.st336{fill:#3C2415;}
	.st337{fill:#F2AE75;}
	.st338{fill:#DEB4A0;}
	.st339{fill:#32303A;}
	.st340{fill:#383643;}
	.st341{fill:#686671;}
	.st342{fill:#C8C8C8;}
</style>
<g>
	<g>
		<path class="st333" d="M146,188c-33.4,33.4-87.5,33.4-120.9,0C-8.3,154.6-8.3,100.4,25,67c33.4-33.4,87.5-33.4,120.9,0
			C179.3,100.4,179.3,154.6,146,188z"/>
	</g>
	<g>
		<defs>
			<path id="SVGID_219_" d="M146,188c-33.4,33.4-87.5,33.4-120.9,0C-8.3,154.6-8.3,100.4,25,67c33.4-33.4,87.5-33.4,120.9,0
				C179.3,100.4,179.3,154.6,146,188z"/>
		</defs>
		<clipPath id="SVGID_1_">
			<use xlink:href="#SVGID_219_"  style="overflow:visible;"/>
		</clipPath>
		<path style="clip-path:url(#SVGID_1_);fill:#1A1718;" d="M119,221.1c0.4-26.7-6.4-37.1-6.4-37.1H55.2c0,0-6.8,10.4-6.4,37.1H119z"
			/>
		<path style="clip-path:url(#SVGID_1_);fill:#C8C8C8;" d="M144.8,125.2c-0.3-3.2-3-5.9-5.2-8.7l-2.7-9.3c0.3-3.8,1.4-7.9,1-11.4
			c-0.7-5.7-5.6-8.3-6.8-13.9c-1-4.9,1.8-9.8,1.5-14.8c-0.3-6.7-5.1-12.4-7.6-18.4c-0.1-0.3-0.2-0.6-0.4-0.9
			c-2.8-6.8-1.5-13.3-3.1-20.3c-3.5-15.2-10.8-24.8-19.3-21.1C91-6.8,73.2,4.1,70,6.2c-3.4,2.2-5.5,3.6-8.6,8.7
			c-3.9,6.4-5.6,13.7-7.4,21c-1.9,7.9-9.2,13.8-10.4,21.9c-1.2,8.5,3.7,12.5-1.8,20.8c-2.1,3.2-5.6,6.3-6.8,10
			c-1.3,4.1,0.1,8.6-1.1,12.8c-1.8,6-8.6,8.5-9.7,14.5c-1,5.2,2.7,9.4,6.7,12.2c-1.6,2.7-2.9,5-3.6,6.7c-1.8,4.2-3.7,9.9-1.7,17
			c1.5,5.2,3.7,9.9,5.8,13.8c3.7,7.2,8.5,15.5,15.1,21.2l0.7-1c2.1,1.6,4.7,3.4,6.9,4.5c-0.8,2.9-1.8,5.8-2.8,8.8h1.4
			c-1,5.6-1.7,12.9-1.6,22.1h70.2c0.1-9.2-0.6-16.5-1.6-22.1h1.4c-9.3-27.6-10.6-49.1-10.6-49.1c2.7-2.8,6.4-7.2,7.2-13.2
			c4.2,0.1,8.5,0.1,12.7-0.1C144.2,136,145.1,128.3,144.8,125.2z M41.2,140.7c0.8-1.9,2.9-4.6,5.6-7.4c2.6,0.2,5.3,0.3,7.9,0.2
			c-0.5,7.6,4.1,13.1,7.3,16.4c0,0-0.6,10.4-4.2,26.1c-0.3-0.4-0.7-0.6-1.2-0.6c-0.3,0-1.3,0.2-2.4,0.4l0.3-0.5
			c-3.7-4.8-6.3-10.5-9.6-16.8c-1.7-3.3-3.6-7.1-4.7-11C39.7,145.7,39.7,144.1,41.2,140.7z"/>
	</g>
	<path class="st336" d="M122.7,48.7c-0.1-0.3-0.2-0.6-0.4-0.9c-2.8-6.8-1.5-13.3-3.1-20.3c-3.5-15.2-10.8-24.8-19.3-21.1
		C88.7-6.8,70.9,4.1,67.7,6.2c-3.4,2.2-5.5,3.6-8.6,8.7c-3.9,6.4-5.6,13.7-7.4,21c-1.9,7.9-9.2,13.8-10.4,21.9
		c-1.2,8.5,3.7,12.5-1.8,20.8c-2.1,3.2-5.6,6.3-6.8,10c-1.3,4.1,0.1,8.6-1.1,12.8c-1.8,6-8.6,8.5-9.7,14.5
		c-1.1,5.9,3.9,10.6,8.5,13.4c7.3,4.5,16.4,4.4,24.9,4.3c24.3-0.4,48.5,4.2,72.8,3.1c13.7-0.6,14.6-8.3,14.4-11.4
		c-0.4-4.2-5.1-7.6-7-11.4c-2.5-5.1,0.8-12.2,0.1-17.9c-0.7-5.7-5.6-8.3-6.8-13.9c-1-4.9,1.8-9.8,1.5-14.8
		C130,60.5,125.2,54.7,122.7,48.7z"/>
	<g>
		<polygon class="st337" points="93.8,95.6 93.8,82.9 74,82.9 74,95.6 69.1,96.9 74,127.9 93.8,127.9 98.8,96.9 		"/>
		<polygon class="st338" points="74,83 74,87.6 93.8,95.6 93.8,83 		"/>
	</g>
	<g>
		<path class="st339" d="M108.2,149.9c4.7-4.8,12.4-14.5,2.5-28.6c-6.3-9.1,12.6-23.9-15.3-25.3l-11.5,31.6L72.4,95.9
			c-27.9,1.5-9,16.3-15.3,25.3c-9.8,14.1-2.2,23.8,2.5,28.6c0,0-1.3,21.5-10.6,49.1h31.7l3.3-11.9l3.3,11.9h31.7
			C109.5,171.3,108.2,149.9,108.2,149.9z"/>
		<g>
			<g>
				<path class="st337" d="M54.2,175.4c-1.4,0-13,2.6-8.8,5.7c1.5,1.1,4.8-1.3,6.4-1.7c1.2-0.2,3,0.1,3.7-1.1
					C56.3,177.2,55.6,175.3,54.2,175.4z"/>
				<path class="st337" d="M54.9,177.8c-3.8-0.3-8.5-5.4-9.2-5.1c-0.3,0.1-5.2,8.4-4.9,9.3c0.3,1,10,8.9,14.1,9.3
					c3.4,0.3,7.9-2.8,8.4-6.8C63.7,181,58.3,178,54.9,177.8z"/>
			</g>
			<path class="st339" d="M44.1,186.6c-6.6-5.7-11.4-14-15.1-21.2c-2-3.9-4.3-8.6-5.8-13.8c-2-7-0.2-12.7,1.7-17
				c3.6-8.2,19.9-33.7,39.9-37.8l-0.5,20.3c-7.2,3.6-22.9,17.2-25.6,23.5c-1.5,3.4-1.5,5.1-1,6.8c1.1,3.9,3,7.7,4.7,11
				c3.3,6.4,5.9,12.1,9.6,16.8L44.1,186.6z"/>
		</g>
		<g>
			<polygon class="st0" points="106.8,103.7 95.9,107.8 100.2,113.8 83.9,127.5 95.5,95.7 			"/>
			<polygon class="st0" points="61,103.7 72.4,95.8 83.9,127.5 67.6,113.8 71.9,107.8 			"/>
		</g>
	</g>
	<g>
		<g>
			<path class="st337" d="M108.1,49.8l0.5-10.3c0.6-10.9-11.3-25.4-21.4-25.9c-10-0.5-23.4,12.6-23.9,23.5l-0.5,10.3
				c-2.8-0.1-5.1,1.9-5.3,4.7l-0.3,5.1c-0.1,2.7,2,5.1,4.8,5.2c-0.6,10.9,11.3,25.8,21.3,26.3c10,0.5,23.4-13,24-23.9
				c2.8,0.1,5.1-1.9,5.3-4.7l0.3-5.1C113.1,52.3,110.9,49.9,108.1,49.8z"/>
			<path class="st328" d="M84.4,70.4l-1,18.3c10,0.5,23.4-13,24-23.9c2.8,0.1,5.1-1.9,5.3-4.7l0.3-5.1c0.1-2.7-2-5.1-4.8-5.2
				l0.5-10.3c0.6-10.9-11.3-25.4-21.4-25.9l-2.1,40c-4.1,7.5-5.9,15.6-5.9,15.6L84.4,70.4z"/>
			<g>
				<g>
					<circle class="st326" cx="73.2" cy="53.8" r="3.9"/>
					<circle class="st329" cx="73.3" cy="52.8" r="3.9"/>
					<circle class="st0" cx="74.7" cy="51.7" r="1"/>
					<path class="st329" d="M78.2,49.9c-0.6-1.7-2.4-3.1-4.4-3.4c-1.2-0.2-3.6-0.1-5.7,2.3c-0.1,0-0.2,0-0.3,0
						c-0.2,0-0.5-0.1-0.8-0.3c-0.6-0.3-1.1-0.8-1.1-0.8c0,0-0.1-0.1-0.1,0c-0.1,0-0.1,0.1-0.1,0.2c0,0,0.1,0.2,0.2,0.4
						c0.1,0.3,0.3,0.6,0.6,0.9c0.3,0.3,0.6,0.5,0.9,0.7c0.1,0.1,0.3,0.1,0.4,0.2c0.1,0,0.2,0.1,0.2,0.1c0.3,0,0.5-0.1,0.7-0.3
						c1.4-1.8,3.2-2.6,5.1-2.3c1.6,0.3,3.1,1.4,3.7,2.8c0.1,0.3,0.4,0.4,0.6,0.3C78.1,50.5,78.3,50.2,78.2,49.9z"/>
				</g>
				<g>
					<circle class="st326" cx="97.9" cy="55.1" r="3.9"/>
					<circle class="st329" cx="98" cy="54.1" r="3.9"/>
					<circle class="st0" cx="99.4" cy="53" r="1"/>
					<path class="st329" d="M93.4,50.7c0.8-1.6,2.7-2.8,4.8-2.9c1.2-0.1,3.6,0.2,5.4,2.9c0.1,0,0.2,0,0.3,0c0.2,0,0.5-0.1,0.8-0.2
						c0.6-0.2,1.2-0.7,1.2-0.7c0,0,0.1,0,0.1,0c0.1,0,0.1,0.1,0,0.2c0,0-0.1,0.2-0.2,0.4c-0.2,0.2-0.4,0.5-0.7,0.8
						c-0.3,0.3-0.7,0.5-1,0.6c-0.1,0.1-0.3,0.1-0.4,0.1c-0.1,0-0.2,0-0.2,0c-0.3,0-0.5-0.1-0.6-0.4c-1.2-1.9-2.9-2.9-4.8-2.8
						c-1.7,0.1-3.3,1.1-3.9,2.4c-0.1,0.2-0.4,0.3-0.7,0.2C93.4,51.3,93.3,51,93.4,50.7z"/>
				</g>
			</g>
		</g>
		<path class="st340" d="M111.5,47.7l-3.5-0.2c-1.9-1.5-5.6-1.6-8.8-1.8c-5.5-0.3-9.3,0.6-11.2,2.6c-0.6-0.4-1.5-0.5-2.5-0.6
			c-1-0.1-1.9,0-2.6,0.3c-1.7-2.2-5.3-3.5-10.9-3.8c-3.3-0.2-6.9-0.4-9,0.9L59.6,45l-0.2,3.8l1.5,0.9c-0.3,5.9,2.2,12.8,10.2,13.2
			c6.6,0.3,10.8-3,12.7-10c0.1-0.5,0.2-1,0.2-1.5c0.1-0.4,0.7-0.7,1.4-0.7c0.7,0,1.2,0.5,1.3,0.9c0,0.5,0,1,0.1,1.5
			c1.1,7.1,5,10.9,11.5,11.2c8,0.4,11.2-6.2,11.5-12.1l1.5-0.8L111.5,47.7z M82,52.5c-1.6,6.1-5.1,8.9-10.8,8.6
			c-8.7-0.5-8.6-9.6-8.5-11.5c0.1-2.8,6.4-2.7,9.3-2.6C78.2,47.4,82.7,49.9,82,52.5z M98.4,62.5c-5.7-0.3-8.9-3.5-9.9-9.7
			c-0.4-2.7,4.3-4.6,10.6-4.3c2.8,0.1,9.1,0.7,8.9,3.5C107.9,53.8,107,63,98.4,62.5z"/>
		<path class="st336" d="M116.3,32c-3.5-18.6-16.1-27.5-28.5-27.8c-12.4-1-25.8,6.6-31.2,24.7c-4.7,15.9-6.1,30.7-0.2,54.9
			c11.6-6.8-6.5-65.9,30-51.8c37.8-10.2,13.6,46.7,24.4,54.7C119.2,63.1,119.4,48.3,116.3,32z"/>
		<g>
			<path class="st330" d="M92.5,73.7c-0.2,3.9-3.9,6.8-8.3,6.6c-4.4-0.2-7.7-3.6-7.5-7.4L92.5,73.7z"/>
			<path class="st0" d="M89.9,76.2l-11.2-0.6c-0.6,0-1-0.5-0.9-1.1l0.1-1.6l13.2,0.7L91,75.2C90.9,75.8,90.5,76.2,89.9,76.2z"/>
		</g>
	</g>
	<g>
		<g>
			<g>
				<path class="st341" d="M118.1,87l6.3-24.4c0.7-2.6-0.9-5.2-3.4-5.8l-2.2-0.6c-2.6-0.7-5.2,0.9-5.8,3.4l-6.3,24.4
					c-0.7,2.6,0.9,5.2,3.4,5.8l2.2,0.6C114.8,91.1,117.4,89.6,118.1,87z"/>
				<path class="st342" d="M106.9,82.9l5.7-22.2c0.8-3.2,4.1-5.1,7.2-4.3c1.4,0.3,2.5,1.2,3.2,2.2c-0.6-0.4-1.3-0.8-2-1
					c-3.2-0.8-6.4,1.1-7.2,4.3l-5.7,22.2c-0.5,1.8,0,3.6,1,5C107.2,87.8,106.3,85.4,106.9,82.9z"/>
				<path class="st340" d="M120.5,60.8l0.3-1.2c0.1-0.5-0.2-1-0.7-1.2c-0.5-0.1-1,0.2-1.2,0.7l-0.3,1.2c-0.1,0.5,0.2,1,0.7,1.2
					C119.9,61.6,120.4,61.3,120.5,60.8z"/>
			</g>
			<path class="st337" d="M108.2,76.5l7.3,9.9l11.1-4.2l-3.3-13.1c-1-2.6-5.8-3.7-8.9-2.6C111.3,67.7,107.2,73.9,108.2,76.5z"/>
		</g>
		<path class="st339" d="M132.7,133.5c1.6,0,3.2-0.6,4.5-1.6c2.3-1.9,3.2-5.1,2.1-8l-13.2-46l-13.3,5l6.9,26.7c0,0-7.1-8.8-13-11.4
			l-2.5,22.3l24.7,12.1C130.1,133.1,131.4,133.5,132.7,133.5z"/>
	</g>
</g>
</svg>
