<?xml version="1.0" encoding="UTF-8"?>
<!DOCTYPE svg PUBLIC "-//W3C//DTD SVG 1.1//EN" "http://www.w3.org/Graphics/SVG/1.1/DTD/svg11.dtd">
<!-- Creator: CorelDRAW X8 -->
<svg xmlns="http://www.w3.org/2000/svg" xml:space="preserve" width="213px" height="213px" version="1.1" style="shape-rendering:geometricPrecision; text-rendering:geometricPrecision; image-rendering:optimizeQuality; fill-rule:evenodd; clip-rule:evenodd"
viewBox="0 0 689 690"
 xmlns:xlink="http://www.w3.org/1999/xlink">
 <defs>
  <style type="text/css">
   <![CDATA[
    .fil0 {fill:#103453}
    .fil4 {fill:#2C2F38}
    .fil8 {fill:#556080}
    .fil7 {fill:#805333}
    .fil6 {fill:#E6E7E8}
    .fil10 {fill:#ECF0F1}
    .fil5 {fill:#FDD7AD}
    .fil9 {fill:white}
    .fil2 {fill:url(#id0)}
    .fil3 {fill:url(#id1)}
    .fil1 {fill:url(#id2)}
   ]]>
  </style>
  <radialGradient id="id0" gradientUnits="userSpaceOnUse" gradientTransform="matrix(2.5774 1.48813 -11.9049 20.6202 1304 -3277)" cx="275.812" cy="146.099" r="74.3213" fx="275.812" fy="146.099">
   <stop offset="0" style="stop-opacity:1; stop-color:#205983"/>
   <stop offset="1" style="stop-opacity:1; stop-color:#0A2742"/>
  </radialGradient>
  <radialGradient id="id1" gradientUnits="userSpaceOnUse" gradientTransform="matrix(3.37824 1.95048 -15.6038 27.0266 6589 -14364)" xlink:href="#id0" cx="570.164" cy="509.172" r="121.44" fx="570.164" fy="509.172">
  </radialGradient>
  <radialGradient id="id2" gradientUnits="userSpaceOnUse" gradientTransform="matrix(2.42921 1.40086 -11.2204 19.4108 3471 -6741)" xlink:href="#id0" cx="279.14" cy="344.89" r="344.89" fx="279.14" fy="344.89">
  </radialGradient>
 </defs>
 <g id="Layer_x0020_1">
  <metadata id="CorelCorpID_0Corel-Layer"/>
  <g id="_1590575990976">
   <g>
    <path class="fil0" d="M577 442c-3,-1 -6,1 -7,5 -6,26 -28,46 -55,46 -22,0 -41,-13 -50,-32l34 0 0 -13 -38 0 -7 0 -7 0 0 51 14 0 0 -21c12,17 32,27 54,27 32,0 61,-23 67,-55 0,-4 -2,-8 -5,-8l0 0z"/>
    <path class="fil0" d="M570 378l0 21c-13,-17 -33,-28 -55,-28 -33,0 -61,24 -67,56 -1,4 1,7 5,8 3,1 7,-1 8,-5 5,-27 27,-46 54,-46 22,0 41,13 50,32l-34 0 0 12 39 0 6 0 6 0 0 -50 -12 0 0 0z"/>
   </g>
   <g>
    <path class="fil1" d="M502 628c-7,0 -11,4 -11,10l0 31 -434 0 0 -406 434 0 0 54c0,6 4,9 11,9 6,0 10,-3 10,-9l0 -54 25 0 0 0c6,0 10,-5 10,-10 0,-4 -2,-8 -5,-9l-261 -241c-5,-4 -11,-4 -14,0l-264 241c-3,4 -4,8 -3,12 1,4 5,6 9,6l25 0 0 417c0,7 5,11 11,11l456 0c6,0 9,-4 9,-11l0 -41c2,-6 -2,-10 -8,-10l0 0zm-228 -604l236 218c-288,0 -211,0 -472,0l236 -218 0 0z"/>
    <path class="fil2" d="M274 226c41,0 74,-33 74,-73 0,-41 -33,-75 -74,-75 -40,0 -73,34 -73,75 0,40 33,73 73,73zm0 -126c29,0 54,24 54,54 0,29 -25,53 -54,53 -29,0 -53,-24 -53,-53 0,-31 24,-54 53,-54z"/>
   </g>
   <path class="fil3" d="M689 491c0,-4 -1,-8 -3,-12l-25 -41c-5,-7 -12,-12 -20,-12l-39 0c-5,0 -8,3 -8,8l0 87 -141 0c-2,0 -3,1 -5,3 -1,1 -2,3 -2,5l0 39c0,4 3,7 7,7l28 0c1,18 15,31 32,31 18,0 32,-13 32,-31l57 0c0,18 14,31 32,31 17,0 31,-13 32,-31l16 0c4,0 7,-3 7,-7 0,-72 0,-5 0,-77zm-80 7l66 0 0 23 -66 0 0 -23zm39 -53l24 38 -63 0 0 -41 33 0c2,0 5,1 6,3zm-136 147c-8,0 -17,-8 -17,-18 0,-9 9,-17 17,-17 10,0 19,8 19,17 0,10 -9,18 -19,18zm120 0c-9,0 -17,-8 -17,-18 0,-9 8,-17 17,-17 10,0 17,8 17,17 0,10 -7,18 -17,18zm43 -31l-14 0c-6,-11 -17,-19 -29,-19 -12,0 -23,7 -28,19l-62 0c-5,-11 -16,-19 -29,-19 -12,0 -23,7 -28,19l-24 0 0 -26 214 0 0 26 0 0z"/>
   <g>
    <path class="fil4" d="M260 606l152 0c0,0 0,-59 -16,-98 -2,-2 -4,-5 -6,-6 -27,-13 -56,-24 -86,-29l-44 111 -45 -111c-30,5 -58,16 -85,29 -2,1 -4,4 -6,6 -17,39 -17,98 -17,98l153 0 0 0zm0 0z"/>
    <path class="fil5" d="M330 391c1,6 -3,12 -10,16 -3,1 -6,2 -10,2 -5,11 -8,21 -11,33 -1,4 -3,7 -6,9l-29 19c-3,2 -6,2 -8,0l-30 -19c-2,-2 -4,-5 -5,-9 -3,-12 -7,-22 -12,-33 -6,0 -10,-2 -14,-5 -3,-4 -5,-9 -5,-13 0,-20 12,-20 12,-20l0 -31c0,-6 1,-10 3,-15 6,-10 19,-30 42,-30 29,0 31,0 43,10l2 3c0,0 25,0 25,31l0 32c0,0 13,0 13,20l0 0 0 0zm0 0z"/>
    <path class="fil4" d="M260 511c-4,0 -7,-3 -7,-7l0 -6c0,-3 3,-6 7,-6 4,0 7,3 7,6l0 6c0,4 -3,7 -7,7zm0 0z"/>
    <path class="fil6" d="M304 473l19 57 -25 26 0 32 -38 18 -38 -18 0 -32 -26 -26 19 -57 45 108 44 -108zm0 0z"/>
    <path class="fil7" d="M317 339l0 16c-5,-10 -13,-19 -21,-26 0,8 -11,15 -48,2 -22,-7 -38,6 -46,18l0 -9c0,-6 1,-10 3,-15 6,-10 19,-30 42,-30 29,0 31,0 43,10l2 3c0,0 25,0 25,31l0 0 0 0zm0 0z"/>
   </g>
   <g>
    <path class="fil8" d="M433 592l-8 -2c-13,-2 -18,-16 -11,-26l6 -6 -12 -11 -6 4c-10,7 -24,1 -26,-11l-1 -9 -15 0 -2 11c-3,12 -17,17 -26,11l-9 -6 -11 11 5 6c8,10 2,24 -10,26l-8 2 0 15 8 1c13,2 19,16 12,26l-5 7 11 11 7 -5c9,-8 24,-2 26,10l2 8 15 0 1 -6c2,-12 16,-18 27,-11l3 4 12 -11 -5 -7c-7,-10 -1,-24 11,-26l9 -1 0 -15z"/>
    <g>
     <circle class="fil9" cx="366" cy="598" r="22"/>
     <path class="fil10" d="M366 627c-16,0 -28,-14 -28,-29 0,-15 12,-28 28,-28 15,0 28,13 28,28 0,15 -13,29 -28,29zm0 -46c-9,0 -17,8 -17,17 0,9 8,17 17,17 9,0 16,-8 16,-17 0,-9 -7,-17 -16,-17z"/>
    </g>
   </g>
  </g>
 </g>
</svg>
