<?xml version="1.0" encoding="UTF-8"?>
<!DOCTYPE svg PUBLIC "-//W3C//DTD SVG 1.1//EN" "http://www.w3.org/Graphics/SVG/1.1/DTD/svg11.dtd">
<!-- Creator: CorelDRAW X8 -->
<svg xmlns="http://www.w3.org/2000/svg" xml:space="preserve" width="213px" height="213px" version="1.1" style="shape-rendering:geometricPrecision; text-rendering:geometricPrecision; image-rendering:optimizeQuality; fill-rule:evenodd; clip-rule:evenodd"
viewBox="0 0 84 84"
 xmlns:xlink="http://www.w3.org/1999/xlink">
 <defs>
  <style type="text/css">
   <![CDATA[
    .fil3 {fill:#24AE5F}
    .fil5 {fill:#2C2F38}
    .fil0 {fill:#3D465B}
    .fil9 {fill:#556080}
    .fil8 {fill:#805333}
    .fil4 {fill:#A5A5A4}
    .fil2 {fill:#D4C3A5}
    .fil7 {fill:#E6E7E8}
    .fil11 {fill:#ECF0F1}
    .fil1 {fill:#F0EDE0}
    .fil6 {fill:#FDD7AD}
    .fil10 {fill:white}
   ]]>
  </style>
 </defs>
 <g id="Layer_x0020_1">
  <metadata id="CorelCorpID_0Corel-Layer"/>
  <g id="_1590579822048">
   <g>
    <path class="fil0" d="M62 0l-59 0c-1,0 -3,2 -3,3 0,2 2,4 3,4l0 -4 59 0 0 4c2,0 3,-2 3,-4 0,-1 -1,-3 -3,-3z"/>
    <polygon class="fil1" points="6,58 12,64 19,58 26,64 33,58 39,64 46,58 53,64 60,58 62,60 62,3 3,3 3,60 "/>
    <path class="fil2" d="M48 46l-16 0c-1,0 -2,0 -2,-1 0,0 1,-1 2,-1l16 0c1,0 1,1 1,1 0,1 0,1 -1,1z"/>
    <path class="fil2" d="M54 46c0,0 -1,0 -1,0 0,0 0,-1 0,-1 0,0 0,0 0,-1 1,0 1,0 2,0 0,1 0,1 0,1 0,0 0,1 0,1 0,0 -1,0 -1,0z"/>
    <path class="fil2" d="M54 30l-17 0c0,0 -1,0 -1,-1 0,0 1,-1 1,-1l17 0c1,0 1,1 1,1 0,1 0,1 -1,1z"/>
    <path class="fil2" d="M54 38l-11 0c-1,0 -1,0 -1,-1 0,0 0,-1 1,-1l11 0c1,0 1,1 1,1 0,1 0,1 -1,1z"/>
    <path class="fil2" d="M34 38l-2 0c-1,0 -2,0 -2,-1 0,0 1,-1 2,-1l2 0c0,0 1,1 1,1 0,1 -1,1 -1,1z"/>
    <path class="fil2" d="M48 23l-16 0c-1,0 -2,-1 -2,-2 0,0 1,-1 2,-1l16 0c1,0 1,1 1,1 0,1 0,2 -1,2z"/>
    <path class="fil2" d="M54 23c0,0 -1,-1 -1,-1 0,0 0,0 0,-1 0,0 0,0 0,0 1,-1 1,-1 2,0 0,0 0,0 0,0 0,1 0,1 0,1 0,0 -1,1 -1,1z"/>
    <path class="fil2" d="M33 30c-1,0 -1,0 -1,0 0,0 0,0 0,-1 0,0 0,0 0,0 0,-1 1,-1 1,0 1,0 1,0 1,0 0,1 0,1 -1,1 0,0 0,0 0,0z"/>
    <path class="fil2" d="M38 38c0,0 0,0 -1,0 0,0 0,0 0,-1 0,0 0,0 0,-1 1,0 2,0 2,0 0,1 0,1 0,1 0,1 0,1 0,1 0,0 0,0 -1,0z"/>
    <path class="fil3" d="M20 28c0,1 1,1 1,1 1,0 1,0 1,-1 0,-2 -1,-5 -4,-5l0 -2c0,0 -1,-1 -1,-1 -1,0 -1,1 -1,1l0 2c-1,0 -3,1 -3,2 -1,0 -1,1 -1,3 0,1 0,2 1,2l3 2 0 6c-2,0 -3,-1 -3,-3 0,0 0,-1 -1,-1 0,0 -1,1 -1,1 0,3 2,5 5,6l0 1c0,0 0,1 1,1 0,0 1,-1 1,-1l0 -1c1,0 2,-1 3,-2 1,-1 1,-2 1,-3 0,-1 -1,-2 -1,-3l-3 -2 0 -6c1,1 2,2 2,3zm-1 7c1,0 1,1 1,1 0,1 0,1 -1,1 0,1 0,1 -1,1l0 -4 1 1 0 0zm-4 -6c-1,-1 -1,-1 -1,-2 0,0 0,-1 0,-1 1,0 1,-1 2,-1l0 4 -1 0 0 0z"/>
    <g>
     <path class="fil4" d="M7 12c-1,0 -1,0 -1,0 0,0 0,0 0,-1 0,0 0,0 0,0 0,-1 1,-1 2,0 0,0 0,0 0,0 0,1 0,1 0,1 -1,0 -1,0 -1,0z"/>
     <path class="fil4" d="M53 11c0,0 1,-1 1,-1l0 0c1,0 1,1 1,1l0 0c0,1 0,1 -1,1l0 0c0,0 -1,0 -1,-1zm-4 0c0,0 0,-1 1,-1l0 0c1,0 1,1 1,1l0 0c0,1 0,1 -1,1l0 0c-1,0 -1,0 -1,-1zm-5 0c0,0 1,-1 2,-1l0 0c0,0 1,1 1,1l0 0c0,1 -1,1 -1,1l0 0c-1,0 -2,0 -2,-1zm-4 0c0,0 1,-1 1,-1l0 0c1,0 1,1 1,1l0 0c0,1 0,1 -1,1l0 0c0,0 -1,0 -1,-1zm-4 0c0,0 0,-1 1,-1l0 0c1,0 1,1 1,1l0 0c0,1 0,1 -1,1l0 0c-1,0 -1,0 -1,-1zm-4 0c0,0 0,-1 1,-1l0 0c0,0 1,1 1,1l0 0c0,1 -1,1 -1,1l0 0c-1,0 -1,0 -1,-1zm-5 0c0,0 1,-1 1,-1l0 0c1,0 1,1 1,1l0 0c0,1 0,1 -1,1l0 0c0,0 -1,0 -1,-1zm-4 0c0,0 0,-1 1,-1l0 0c1,0 1,1 1,1l0 0c0,1 0,1 -1,1l0 0c-1,0 -1,0 -1,-1zm-4 0c0,0 0,-1 1,-1l0 0c0,0 1,1 1,1l0 0c0,1 -1,1 -1,1l0 0c-1,0 -1,0 -1,-1zm-5 0c0,0 1,-1 1,-1l0 0c1,0 2,1 2,1l0 0c0,1 -1,1 -2,1l0 0c0,0 -1,0 -1,-1zm-4 0c0,0 0,-1 1,-1l0 0c1,0 1,1 1,1l0 0c0,1 0,1 -1,1l0 0c-1,0 -1,0 -1,-1z"/>
     <path class="fil4" d="M59 12c-1,0 -1,0 -1,0 0,0 -1,0 -1,-1 0,0 1,0 1,0 0,-1 1,-1 1,0 1,0 1,0 1,0 0,1 0,1 -1,1 0,0 0,0 0,0z"/>
    </g>
   </g>
   <g>
    <path class="fil5" d="M43 84l28 0c0,0 0,-11 -3,-18 0,-1 -1,-1 -1,-1 -5,-3 -10,-5 -16,-6l-8 21 -8 -21c-6,1 -11,3 -16,6 0,0 -1,0 -1,1 -3,7 -3,18 -3,18l28 0 0 0zm0 0z"/>
    <path class="fil6" d="M56 44c0,1 -1,3 -2,3 0,0 -1,1 -2,1 -1,2 -1,4 -2,6 0,0 0,1 -1,1l-5 4c-1,0 -1,0 -2,0l-5 -4c-1,0 -1,-1 -1,-1 -1,-2 -1,-4 -2,-6 -1,0 -2,-1 -3,-1 -1,-1 -1,-2 -1,-3 0,-3 2,-3 2,-3l0 -6c0,-1 1,-2 1,-3 1,-2 3,-5 8,-5 5,0 5,0 7,1l1 1c0,0 4,0 4,6l0 6c0,0 3,0 3,3l0 0 0 0zm0 0z"/>
    <path class="fil5" d="M43 66c-1,0 -1,0 -1,-1l0 -1c0,-1 0,-1 1,-1 1,0 1,0 1,1l0 1c0,1 0,1 -1,1zm0 0z"/>
    <path class="fil7" d="M51 59l4 11 -5 5 0 5 -7 4 -7 -4 0 -5 -5 -5 4 -11 8 20 8 -20zm0 0z"/>
    <path class="fil8" d="M53 35l0 3c-1,-2 -2,-4 -4,-5 1,1 -1,2 -8,0 -4,-1 -7,1 -9,3l0 -1c0,-1 1,-2 1,-3 1,-2 3,-5 8,-5 5,0 5,0 7,1l1 1c0,0 4,0 4,6l0 0zm0 0z"/>
   </g>
   <g>
    <path class="fil9" d="M84 68l-2 -1c-2,0 -4,-4 -2,-6l1 -1 -2 -3 -2 1c-2,2 -5,0 -6,-2l0 -2 -3 0 -1 2c0,3 -3,4 -6,3l-2 -2 -2 3 1 1c2,2 0,6 -2,6l-2 1 0 3 2 0c3,1 4,4 2,6l-1 2 3 2 1 -1c3,-2 6,0 6,2l1 2 3 0 0 -1c1,-3 4,-4 6,-3l1 1 3 -2 -1 -2c-2,-2 0,-5 2,-6l2 0 0 -3 0 0z"/>
    <g>
     <circle class="fil10" cx="69" cy="69" r="5"/>
     <path class="fil11" d="M69 75c-3,0 -6,-3 -6,-6 0,-4 3,-6 6,-6 4,0 6,2 6,6 0,3 -2,6 -6,6zm0 -10c-2,0 -4,2 -4,4 0,2 2,4 4,4 2,0 4,-2 4,-4 0,-2 -2,-4 -4,-4z"/>
    </g>
   </g>
  </g>
 </g>
</svg>
