<?xml version="1.0" encoding="utf-8"?>
<!-- Generator: Adobe Illustrator 19.1.0, SVG Export Plug-In . SVG Version: 6.00 Build 0)  -->
<svg version="1.1" id="Layer_1" xmlns="http://www.w3.org/2000/svg" xmlns:xlink="http://www.w3.org/1999/xlink" x="0px" y="0px"
	 viewBox="-218 356 167 82" style="enable-background:new -218 356 167 82;" xml:space="preserve">
<style type="text/css">
	.st0{fill:#7CCCEC;}
	.st1{opacity:0.4;clip-path:url(#SVGID_2_);enable-background:new    ;}
	.st2{fill:#4F3C30;}
	.st3{clip-path:url(#SVGID_4_);fill:#1A1718;}
	.st4{clip-path:url(#SVGID_6_);}
	.st5{fill:#F7CDB9;}
	.st6{fill:#32303A;}
	.st7{fill:#DEB4A0;}
	.st8{fill:#FFFFFF;}
	.st9{fill:#E6E7E8;}
	.st10{fill:#C8C8C8;}
	.st11{fill:#686671;}
	.st12{fill:none;}
	.st13{opacity:0.8;fill:#F6CCB8;enable-background:new    ;}
	.st14{fill:#3C2417;}
	.st15{fill:#F05D44;}
	.st16{fill:#BFBFBF;}
	.st17{fill:#FF7915;}
	.st18{fill:#D81E00;}
	.st19{fill:#F25100;}
	.st20{fill:#EDEDED;}
	.st21{fill:#3F3F3F;}
	.st22{fill:#394A63;}
	.st23{fill:#332F2D;}
	.st24{fill:#635D5A;}
	.st25{fill:#FFDEC5;}
	.st26{fill:#506A91;}
	.st27{fill:#FFB769;}
	.st28{fill:#FF8812;}
	.st29{fill:#637EA8;}
	.st30{fill:#753A13;}
	.st31{fill:#728EB7;}
	.st32{fill:#FFEBDE;}
	.st33{fill:#F2D0B8;}
	.st34{fill:#4A6182;}
</style>
<g>
	<g>
		<path class="st16" d="M-133.8,376v61.1H-59V376H-133.8z M-107.6,432.9h-23.1v-41.4h23.1V432.9z M-62,419.9h-42.3V392H-62V419.9z"
			/>
		<rect x="-140.8" y="359.4" class="st8" width="89.8" height="27.1"/>
		<rect x="-140.8" y="359.4" class="st17" width="7.7" height="27.1"/>
		<rect x="-124.4" y="359.4" class="st17" width="7.8" height="27.1"/>
		<rect x="-108.1" y="359.4" class="st17" width="7.7" height="27.1"/>
		<rect x="-91.7" y="359.4" class="st17" width="7.7" height="27.1"/>
		<rect x="-75.3" y="359.4" class="st17" width="7.7" height="27.1"/>
		<rect x="-59" y="359.4" class="st17" width="7.7" height="27.1"/>
		<rect x="-140.8" y="357.7" class="st18" width="89.6" height="1.7"/>
		<rect x="-140.8" y="384.6" class="st19" width="89.6" height="5"/>
		<g>
			<rect x="-130.7" y="391.5" class="st20" width="23.1" height="41.4"/>
			<path class="st21" d="M-107.3,433.2H-131v-42h23.7V433.2z M-130.5,432.7h22.6v-40.9h-22.6V432.7z"/>
		</g>
		<g>
			<rect x="-104.3" y="392" class="st20" width="42.3" height="27.9"/>
			<path class="st21" d="M-61.8,420.2h-42.8v-28.4h42.8V420.2z M-104,419.7h41.8v-27.4H-104V419.7z"/>
		</g>
	</g>
	<g>
		<polygon class="st22" points="-171.5,415.6 -168.2,411.1 -187.2,396.9 -192.6,404.1 		"/>
		<polygon class="st22" points="-174.2,434.4 -170.5,434.7 -168.2,411.1 -174.1,410.5 		"/>
		<polygon class="st23" points="-164.4,438 -167.8,437.6 -171.8,436.8 -171.8,437.2 -174.8,436.8 -174.5,433.8 -170.7,434.3 
			-164.3,436.9 		"/>
		<polygon class="st22" points="-196.9,419.8 -191.6,421.5 -184.7,398.7 -193.3,396.1 		"/>
		<polygon class="st22" points="-215.5,423.7 -214.6,427.3 -191.5,421.4 -193,415.6 		"/>
		<polygon class="st23" points="-215.6,434.1 -216.4,430.7 -216.9,426.7 -217.3,426.8 -218,423.9 -215,423.2 -214.2,427 
			-214.5,433.8 		"/>
		<polygon class="st24" points="-215,434 -215.6,434.1 -216.4,430.7 -216.9,426.7 -217.3,426.8 -218,423.9 -217.4,423.7 		"/>
		<path class="st25" d="M-164.5,387.7c0.1,0.7,0.8,1.1,1.5,1l3.2-0.7c0.7-0.1,1.1-0.8,1-1.5l0,0c-0.1-0.7-0.8-1.1-1.5-1l-3.1,0.7
			C-164.2,386.3-164.7,387-164.5,387.7L-164.5,387.7z"/>
		<path class="st26" d="M-186.9,378.3c-0.5-1.1,0-2.4,1.1-2.8c0.9-0.4,1.8-0.1,2.4,0.5c0,0,0.3,0.3,0.3,0.4c1.5,2.3,9,12.6,21.1,9.3
			c0.4,1.2,0.4,1.4,0.5,2.6C-178.8,394.1-186.8,378.4-186.9,378.3L-186.9,378.3C-186.8,378.4-186.9,378.4-186.9,378.3z"/>
		<rect x="-173.5" y="374.2" class="st27" width="23.7" height="23.6"/>
		<rect x="-170.8" y="377" class="st28" width="18.2" height="18.2"/>
		<rect x="-168.7" y="379" class="st27" width="14.1" height="14.1"/>
		<path class="st25" d="M-165.2,390.6c0.1,0.7,0.6,1.2,1.3,1.1l3-0.2c0.7,0,1.2-0.6,1.1-1.3l0,0c-0.1-0.7-0.6-1.2-1.3-1.1l-3,0.2
			C-164.8,389.3-165.3,389.9-165.2,390.6L-165.2,390.6z"/>
		
			<rect x="-185" y="369" transform="matrix(-0.9759 -0.2183 0.2183 -0.9759 -443.031 692.5775)" class="st25" width="3.5" height="3.6"/>
		<polygon class="st29" points="-193.8,398.2 -184.9,398.8 -180.3,372.9 -187.1,371.3 		"/>
		<path class="st25" d="M-185.6,361.3c-0.6,2.5-0.6,4.9,1.3,5.9l-0.6,2.9l3.4,0.8c2.5,0.6,3.4-1,4-3.5l1.3,0.1l-0.4-3.5l0.3-1.2
			c0.6-2.5-0.9-5-3.4-5.6l0,0c-2.5-0.6-5,0.9-5.6,3.4L-185.6,361.3z"/>
		<path class="st30" d="M-185.1,364.9c1.7,0.5,1.4-2.7,3.1-2.1c1.5,0.5,0.2,1.8,1,2.1c1.3,0.5,0.3-4.5,3-3.9
			c2.6,0.5-0.2-0.8-0.1-2.5c-1.6,1.1,1.1-1.7-1.4-2.4l0,0c-2.5-0.6-5,0.9-5.6,3.4C-185.1,359.5-187.3,364.2-185.1,364.9z"/>
		<path class="st31" d="M-187,378.3c-0.3-1.1,0.4-2.3,1.5-2.6c0.9-0.3,1.8,0.1,2.3,0.9c0,0,0.2,0.4,0.2,0.5
			c1.2,2.5,7.2,13.7,19.7,12.1c0.2,1.3,0.2,1.4,0.2,2.6C-181.1,395-187,378.4-187,378.3L-187,378.3C-187,378.4-187,378.4-187,378.3z
			"/>
		<path class="st21" d="M-178.9,364.3c-0.1,0.2,0.1,0.5,0.3,0.6c0.2,0.1,0.5-0.1,0.6-0.3c0.1-0.2-0.1-0.5-0.3-0.6
			C-178.5,363.9-178.8,364.1-178.9,364.3z"/>
		
			<rect x="-178.9" y="363.2" transform="matrix(-0.9554 -0.2953 0.2953 -0.9554 -455.5632 657.8393)" class="st21" width="1.7" height="0.3"/>
		<polygon class="st24" points="-164.3,437.4 -164.4,438 -167.8,437.6 -171.8,436.8 -171.8,437.2 -174.8,436.8 -174.8,436.2 		"/>
		<path class="st32" d="M-183.2,364c-0.2,0.6,0.1,1.2,0.5,1.3c0.5,0.1,1-0.2,1.2-0.8c0.2-0.6-0.1-1.2-0.5-1.3
			C-182.5,363-183.1,363.4-183.2,364z"/>
		<path class="st33" d="M-182.9,364.1c-0.1,0.4,0,0.7,0.3,0.8c0.3,0.1,0.6-0.1,0.7-0.5c0.1-0.4,0-0.7-0.3-0.8
			C-182.5,363.5-182.8,363.7-182.9,364.1z"/>
		<path class="st34" d="M-179.4,356.1c-3-0.7-5.9,1.2-6.6,4.1l10.8,2.5C-174.6,359.8-176.5,356.8-179.4,356.1z"/>
		
			<rect x="-176" y="362.4" transform="matrix(0.9786 0.2057 -0.2057 0.9786 70.9061 43.5701)" class="st34" width="3.9" height="0.6"/>
	</g>
</g>
</svg>
