<?xml version="1.0" encoding="utf-8"?>
<!-- Generator: Adobe Illustrator 19.1.0, SVG Export Plug-In . SVG Version: 6.00 Build 0)  -->
<svg version="1.1" id="Layer_1" xmlns="http://www.w3.org/2000/svg" xmlns:xlink="http://www.w3.org/1999/xlink" x="0px" y="0px"
	 viewBox="-192 290 227 213" style="enable-background:new -192 290 227 213;" xml:space="preserve">
<style type="text/css">
	.st0{opacity:0.2;fill:#3B5272;}
	.st1{fill:#EEFFFC;}
	.st2{fill:#004437;}
	.st3{fill:#27BFD8;}
	.st4{fill:#8FC9BE;}
	.st5{opacity:0.4;fill:#27BFD8;}
	.st6{fill:#FFEDCC;}
	.st7{fill:#B2D3D2;}
	.st8{opacity:0.5;fill:#27BFD8;}
	.st9{fill:#E8C792;}
	.st10{fill:#B2130B;}
	.st11{fill:#FFFFFF;}
	.st12{opacity:0.3;fill:#B2130B;}
	.st13{fill:#8294AF;}
	.st14{fill:#A6DAE8;}
	.st15{fill:#0E6389;}
	.st16{fill:#BF672B;}
	.st17{fill:#FADB49;}
	.st18{fill:#2C5871;}
	.st19{fill:#FAFDFF;}
	.st20{opacity:0.6;fill:#A6DAE8;}
	.st21{opacity:0.3;fill:#2C5871;}
	.st22{fill:#516A8E;}
	.st23{fill:#001E1C;}
	.st24{fill:#96D5E7;}
	.st25{fill:#BBD623;}
	.st26{fill:#7A1600;}
	.st27{fill:#F9C941;}
	.st28{fill:#C7D1DD;}
	.st29{fill:#002933;}
	.st30{opacity:0.6;fill:#27BFD8;}
	.st31{fill:#DDED45;}
	.st32{fill:#A6B704;}
	.st33{opacity:0.6;fill:#A6B704;}
	.st34{opacity:0.6;fill:#BBD623;}
	.st35{fill:#BFDD0E;}
	.st36{fill:#598387;}
	.st37{fill:#4F6608;}
	.st38{fill:#8FAF08;}
	.st39{opacity:0.2;fill:#2C5871;}
	.st40{opacity:0.3;fill:#27BFD8;}
	.st41{fill:#EFCC9E;}
	.st42{opacity:0.5;fill:#D6944C;}
	.st43{opacity:0.5;fill:#B9D4DD;}
	.st44{fill:#041323;}
</style>
<g>
	<ellipse class="st0" cx="-81.5" cy="458.4" rx="83.8" ry="26.6"/>
	<g>
		<g>
			<path class="st1" d="M-19.5,397.2c0,1.7-1.4,3.1-3,3.1h-128c-1.7,0-3-1.4-3-3.1v-86.8c0-1.7,1.3-3.1,3-3.1h128c1.7,0,3,1.4,3,3.1
				V397.2z"/>
			<path class="st2" d="M-26.6,390.9c0,1.7-1.3,3.1-3,3.1h-114.2c-1.7,0-3-1.4-3-3.1v-74.2c0-1.7,1.4-3.1,3-3.1h114.2
				c1.7,0,3,1.4,3,3.1V390.9z"/>
			<path class="st3" d="M-28.1,389.2c0,1.6-1.3,2.9-2.9,2.9h-111.4c-1.6,0-2.9-1.3-2.9-2.9v-70.5c0-1.6,1.3-2.9,2.9-2.9H-31
				c1.6,0,2.9,1.3,2.9,2.9V389.2z"/>
			<path class="st2" d="M-20.5,355.1c0,2.7-1.2,4.8-2.7,4.8c-1.5,0-2.7-2.2-2.7-4.8c0-2.6,1.2-4.8,2.7-4.8
				C-21.7,350.3-20.5,352.4-20.5,355.1z"/>
			<path class="st4" d="M-21,354.8c0,2.1-1,3.9-2.2,3.9c-1.2,0-2.2-1.7-2.2-3.9c0-2.2,1-3.9,2.2-3.9C-21.9,350.9-21,352.7-21,354.8z
				"/>
			<path class="st5" d="M-28.3,389c0,1.6-1.3,2.9-2.9,2.9h-111.4c-1.6,0-2.9-1.3-2.9-2.9v-6.5c0-1.6,81.8-67,83.4-67h30.9
				c1.6,0,2.9,1.3,2.9,2.9V389z"/>
			<g>
				<path class="st2" d="M-147.7,345c0,0.7-0.6,1.3-1.3,1.3s-1.3-0.6-1.3-1.3c0-0.7,0.6-1.3,1.3-1.3S-147.7,344.3-147.7,345z"/>
				<ellipse class="st2" cx="-149" cy="350.5" rx="1.3" ry="1.3"/>
				<path class="st2" d="M-147.7,356.2c0,0.7-0.6,1.3-1.3,1.3s-1.3-0.6-1.3-1.3c0-0.7,0.6-1.3,1.3-1.3S-147.7,355.5-147.7,356.2z"/>
			</g>
		</g>
		<polygon class="st6" points="-62,366.3 -106.4,366.3 -113.5,296.6 -52.9,296.6 		"/>
		<g>
			<path class="st7" d="M-68.8,350.7c0,1.4-1.3,2.6-2.9,2.6h-22.6c-1.6,0-2.9-1.1-2.9-2.6v-23.8c0-1.4,1.3-2.6,2.9-2.6h22.6
				c1.6,0,2.9,1.1,2.9,2.6V350.7z"/>
			<rect x="-95.6" y="325.5" class="st3" width="12.1" height="12.5"/>
			<rect x="-82.5" y="325.5" class="st3" width="12.1" height="12.5"/>
			<rect x="-95.8" y="339.2" class="st3" width="12.1" height="12.5"/>
			<rect x="-82.6" y="339.2" class="st3" width="12.1" height="12.5"/>
		</g>
		<polygon class="st8" points="-79.1,324.3 -95.6,353.7 -68.8,353 -68.8,326.8 -70.5,324.3 -79.6,324.3 		"/>
		<rect x="-100.6" y="350.9" class="st9" width="35.1" height="4.1"/>
		<path class="st9" d="M-60.6,366.6c0,1-0.8,1.7-1.8,1.7h-44.4c-1,0-1.8-0.8-1.8-1.7l0,0c0-1,0.8-1.7,1.8-1.7h44.4
			C-61.4,364.9-60.6,365.6-60.6,366.6L-60.6,366.6z"/>
		<polygon class="st6" points="-73.1,315.5 -102.5,364.9 -62.4,364.9 -52.9,310.8 		"/>
		<g>
			<polygon class="st10" points="-35.6,305.6 -129.7,305.6 -109.2,293 -59.3,293 			"/>
			<path class="st10" d="M-129.7,305.6c0,0.2,0,0.5,0,0.7v7.3c0,4.5,4.2,8.1,9.4,8.1c5.2,0,9.4-3.6,9.4-8.1v-7.3c0-0.2,0-0.5,0-0.7
				H-129.7z"/>
			<path class="st11" d="M-110.9,305.6c0,0.2,0,0.5,0,0.7v7.3c0,4.5,4.2,8.1,9.4,8.1c5.2,0,9.4-3.6,9.4-8.1v-7.3c0-0.2,0-0.5,0-0.7
				H-110.9z"/>
			<path class="st10" d="M-92,305.6c0,0.2,0,0.5,0,0.7v7.3c0,4.5,4.2,8.1,9.4,8.1c5.2,0,9.4-3.6,9.4-8.1v-7.3c0-0.2,0-0.5,0-0.7H-92
				z"/>
			<path class="st11" d="M-73.2,305.6c0,0.2,0,0.5,0,0.7v7.3c0,4.5,4.2,8.1,9.4,8.1c5.2,0,9.4-3.6,9.4-8.1v-7.3c0-0.2,0-0.5,0-0.7
				H-73.2z"/>
			<path class="st10" d="M-54.2,305.6c0,0.2,0,0.5,0,0.7v7.3c0,4.5,4.2,8.1,9.4,8.1c5.2,0,9.4-3.6,9.4-8.1v-7.3c0-0.2,0-0.5,0-0.7
				H-54.2z"/>
			<polygon class="st12" points="-35.7,305.6 -96,305.6 -74.1,293 -59.3,293 			"/>
		</g>
		<polygon class="st10" points="-34.3,410.6 -69.7,366.2 -57.5,365.5 -77.8,354.9 -83.5,376.7 -74.9,369 -65,423.7 		"/>
		<g>
			<path class="st13" d="M-14.8,437.5c-3.6,5.5-9.6,8.1-13.3,5.9L-64.5,421c-3.7-2.3-3.7-8.6-0.1-14.1l43-65.1
				c3.6-5.5,9.6-8.2,13.3-5.9l36.4,22.4c3.7,2.3,3.7,8.6,0.1,14.1L-14.8,437.5z"/>
			<g>
				<g>
					<g>
						<path class="st14" d="M-21.6,421.2c0.5,0.3,0.6,0.9,0.3,1.3l-28.6,43.2c-0.3,0.4-0.9,0.5-1.3,0.2l-27.1-16.6
							c-0.5-0.3-0.6-0.9-0.3-1.3l28.6-43.2c0.3-0.4,0.9-0.5,1.3-0.2L-21.6,421.2z"/>
						<path class="st15" d="M-21.4,421.7c0.5,0.3,0.6,0.8,0.3,1.3l-28.1,42.6c-0.3,0.4-0.9,0.5-1.3,0.2l-26.9-16.5
							c-0.5-0.3-0.6-0.9-0.3-1.3l28.1-42.6c0.3-0.4,0.9-0.5,1.3-0.2L-21.4,421.7z"/>
					</g>
					<g>
						<path class="st16" d="M-66.7,447.2c-0.9,1.4-2.9,1.8-4.4,0.9c-1.5-0.9-2-2.8-1-4.2c0.9-1.4,2.9-1.8,4.4-0.9c0,0,0,0,0,0
							c-1.9-1.2-4.5-0.7-5.6,1.1c-1.2,1.8-0.5,4.2,1.4,5.4c1.9,1.2,4.5,0.7,5.6-1.1c1.1-1.7,0.6-4-1.2-5.3
							C-66.2,444.1-65.8,445.9-66.7,447.2z"/>
						<path class="st16" d="M-67.6,443.1C-67.6,443.1-67.6,443-67.6,443.1C-67.6,443-67.6,443.1-67.6,443.1z"/>
					</g>
					<g>
						<path class="st17" d="M-53.6,449.2c0.3,0.2,0.4,0.5,0.2,0.8l-3.9,6c-0.2,0.3-0.5,0.3-0.8,0.1l-6.1-3.7
							c-0.3-0.2-0.4-0.5-0.2-0.8l3.9-5.9c0.2-0.3,0.5-0.3,0.8-0.2L-53.6,449.2z"/>
						<path class="st18" d="M-56.1,450.8l-1.5,2.3c-0.2,0.3-0.6,0.4-0.9,0.2l-3.2-2c-0.3-0.2-0.4-0.6-0.2-0.9l1.5-2.3
							c0.2-0.3,0.6-0.4,0.9-0.2l3.2,2C-56,450.1-55.9,450.5-56.1,450.8z M-61.9,450.6c-0.1,0.2-0.1,0.5,0.2,0.6l3.2,2
							c0.2,0.1,0.5,0.1,0.7-0.1l1.5-2.3c0.1-0.2,0.1-0.5-0.2-0.6l-3.2-2c-0.2-0.1-0.5-0.1-0.7,0.1L-61.9,450.6z"/>
						<polygon class="st18" points="-61.6,450.1 -61.7,450.2 -63,449.4 -62.9,449.3 						"/>
						<polygon class="st18" points="-60.6,448.4 -60.7,448.6 -61.9,447.8 -61.8,447.7 						"/>
						<polygon class="st18" points="-60.8,451.9 -62,453.7 -62.1,453.6 -60.9,451.8 						"/>
						<polygon class="st18" points="-58.7,453.2 -59.9,455 -60,454.9 -58.8,453.1 						"/>
						<polygon class="st18" points="-55.6,453.3 -55.7,453.5 -57.4,452.5 -57.2,452.3 						"/>
						<polygon class="st18" points="-54.7,452 -54.8,452.1 -56.4,451.1 -56.4,451 						"/>
						
							<rect x="-59.3" y="447.6" transform="matrix(0.552 -0.8339 0.8339 0.552 -399.354 151.972)" class="st18" width="2.2" height="0.1"/>
						<polygon class="st18" points="-55.5,448 -56.7,449.8 -56.8,449.8 -55.6,448 						"/>
					</g>
					<g>
						<path class="st16" d="M-68,441.9l0.5-0.8c0.3-0.4,0.7-0.3,0.9-0.2c0.2,0.1,0.4,0.3,0.3,0.6c0.1-0.1,0.4-0.1,0.7,0.1
							c0.3,0.2,0.5,0.5,0.3,0.9l-0.5,0.8L-68,441.9z M-66.5,441.7c0.1-0.2,0.1-0.4-0.2-0.5c-0.3-0.2-0.5,0-0.6,0.1l-0.4,0.6l0.7,0.4
							L-66.5,441.7z M-65.5,442.3c0.1-0.1,0.2-0.3-0.2-0.6c-0.2-0.1-0.5-0.2-0.6,0.1l-0.4,0.6l0.8,0.5L-65.5,442.3z"/>
						<path class="st16" d="M-66.5,439.6l0.1-0.2l2.7,0.6l-0.2,0.2l-0.7-0.2l-0.5,0.8l0.5,0.6l-0.2,0.2L-66.5,439.6z M-64.9,440.1
							l-1.2-0.3l0.8,1L-64.9,440.1z"/>
						<path class="st16" d="M-65.7,438.4l0.1-0.2l2.5,0l-1.8-1.1l0.1-0.2l2.2,1.4l-0.1,0.2l-2.5,0l1.8,1.1l-0.1,0.2L-65.7,438.4z"/>
						<path class="st16" d="M-64.5,436.6l0.1-0.2l1,0.6l0.1-0.2l-0.6-1.2l0.2-0.2l0.6,1.4l1.6,0l-0.2,0.2l-1.4,0l-0.1,0.2l1,0.6
							l-0.1,0.2L-64.5,436.6z"/>
					</g>
					<polygon class="st11" points="-47.8,458.5 -49.5,461.1 -52.1,459.5 -50.4,456.9 					"/>
					<polygon class="st11" points="-38,443.6 -47.1,457.5 -49.7,455.9 -40.5,442.1 					"/>
					<path class="st16" d="M-68.1,443.6c1.1,0.7,1.4,2,0.7,3c-0.7,1-2.1,1.3-3.1,0.6c-1.1-0.7-1.4-2-0.8-3
						C-70.5,443.2-69.1,442.9-68.1,443.6z"/>
					<g>
						<path class="st19" d="M-55.4,456.2c0.3-0.4,0.6-0.7,1.5-0.1c0.9,0.5,0.8,0.9,0.5,1.3c-0.3,0.5-0.6,0.7-1.5,0.1
							C-55.8,457-55.7,456.7-55.4,456.2z M-53.6,457.4c0.3-0.4,0.2-0.6-0.4-1c-0.8-0.5-1-0.3-1.2,0c-0.2,0.3-0.3,0.5,0.5,1
							C-54,457.8-53.9,457.8-53.6,457.4z"/>
						<path class="st19" d="M-54.3,454.5c0.3-0.4,0.6-0.7,1.5-0.1c0.9,0.6,0.8,0.9,0.5,1.4c-0.3,0.5-0.6,0.7-1.5,0.1
							C-54.7,455.3-54.6,454.9-54.3,454.5z M-52.4,455.6c0.3-0.4,0.2-0.6-0.5-1c-0.8-0.5-1-0.3-1.2,0c-0.2,0.3-0.3,0.5,0.5,1
							C-52.9,456.1-52.7,456-52.4,455.6z"/>
						<path class="st19" d="M-53.1,452.7c0.3-0.5,0.6-0.7,1.5-0.1c0.9,0.6,0.8,0.9,0.5,1.3c-0.3,0.5-0.6,0.7-1.5,0.1
							C-53.5,453.5-53.4,453.2-53.1,452.7z M-51.3,453.9c0.3-0.4,0.2-0.6-0.4-1c-0.8-0.5-1-0.3-1.2,0c-0.2,0.3-0.3,0.5,0.5,1
							C-51.7,454.4-51.6,454.3-51.3,453.9z"/>
						<path class="st19" d="M-52,451c0.3-0.4,0.6-0.7,1.5-0.1c0.9,0.6,0.8,0.9,0.5,1.4c-0.3,0.5-0.6,0.7-1.5,0.1
							C-52.4,451.8-52.3,451.4-52,451z M-50.1,452.1c0.3-0.4,0.2-0.6-0.5-1c-0.8-0.5-1-0.3-1.2,0c-0.2,0.3-0.4,0.5,0.5,1
							C-50.6,452.6-50.4,452.5-50.1,452.1z"/>
					</g>
					<g>
						<path class="st19" d="M-49,446.4c0.3-0.4,0.6-0.7,1.5-0.1c0.9,0.5,0.8,0.9,0.5,1.3c-0.3,0.5-0.6,0.7-1.5,0.1
							C-49.4,447.2-49.2,446.9-49,446.4z M-47.1,447.6c0.3-0.4,0.2-0.6-0.4-1c-0.8-0.5-1-0.3-1.2,0c-0.2,0.3-0.3,0.5,0.5,1.1
							C-47.6,448.1-47.4,448-47.1,447.6z"/>
						<path class="st19" d="M-47.8,444.7c0.3-0.4,0.6-0.7,1.5-0.1c0.9,0.5,0.8,0.9,0.5,1.3c-0.3,0.5-0.6,0.7-1.5,0.1
							C-48.2,445.5-48.1,445.1-47.8,444.7z M-46,445.8c0.3-0.4,0.2-0.6-0.5-1c-0.8-0.5-1-0.3-1.2,0c-0.2,0.3-0.3,0.5,0.5,1
							C-46.4,446.3-46.2,446.2-46,445.8z"/>
						<path class="st19" d="M-46.7,443c0.3-0.4,0.6-0.7,1.5-0.1c0.9,0.5,0.8,0.9,0.5,1.3c-0.3,0.5-0.6,0.7-1.5,0.1
							C-47.1,443.7-47,443.4-46.7,443z M-44.8,444.1c0.3-0.4,0.2-0.6-0.4-1c-0.8-0.5-1-0.3-1.2,0c-0.2,0.3-0.4,0.5,0.5,1.1
							C-45.3,444.6-45.1,444.5-44.8,444.1z"/>
						<path class="st19" d="M-45.5,441.2c0.3-0.4,0.6-0.7,1.5-0.1c0.9,0.5,0.8,0.9,0.5,1.3c-0.3,0.5-0.6,0.7-1.5,0.1
							C-45.9,442-45.8,441.6-45.5,441.2z M-43.7,442.3c0.3-0.4,0.2-0.6-0.5-1c-0.8-0.5-1-0.3-1.2,0c-0.2,0.3-0.3,0.5,0.5,1.1
							C-44.1,442.8-43.9,442.8-43.7,442.3z"/>
					</g>
					<g>
						<path class="st19" d="M-43.2,437.7c0.3-0.4,0.6-0.7,1.5-0.1c0.9,0.6,0.8,0.9,0.5,1.3c-0.3,0.5-0.6,0.7-1.5,0.1
							C-43.6,438.5-43.5,438.2-43.2,437.7z M-41.4,438.9c0.3-0.4,0.2-0.6-0.4-1c-0.8-0.5-1-0.3-1.2,0c-0.2,0.3-0.4,0.6,0.5,1.1
							C-41.8,439.4-41.7,439.3-41.4,438.9z"/>
						<path class="st19" d="M-42.1,436c0.3-0.4,0.6-0.7,1.5-0.1c0.9,0.6,0.8,0.9,0.5,1.3c-0.3,0.5-0.6,0.7-1.5,0.1
							C-42.5,436.8-42.4,436.4-42.1,436z M-40.2,437.1c0.3-0.4,0.2-0.6-0.5-1c-0.8-0.5-1-0.3-1.2,0c-0.2,0.3-0.4,0.5,0.5,1.1
							C-40.7,437.6-40.5,437.5-40.2,437.1z"/>
						<path class="st19" d="M-40.9,434.3c0.3-0.4,0.6-0.7,1.5-0.1c0.9,0.6,0.8,0.9,0.5,1.4c-0.3,0.5-0.6,0.7-1.5,0.1
							C-41.3,435-41.2,434.7-40.9,434.3z M-39.1,435.4c0.3-0.4,0.2-0.6-0.4-1c-0.8-0.5-1-0.3-1.2,0c-0.2,0.3-0.3,0.6,0.5,1.1
							C-39.5,435.9-39.4,435.8-39.1,435.4z"/>
						<path class="st19" d="M-39.8,432.5c0.3-0.4,0.6-0.7,1.5-0.1c0.9,0.5,0.8,0.9,0.5,1.3c-0.3,0.5-0.6,0.7-1.5,0.1
							C-40.2,433.3-40.1,432.9-39.8,432.5z M-37.9,433.6c0.3-0.4,0.2-0.6-0.4-1c-0.8-0.5-1-0.3-1.2,0c-0.2,0.3-0.3,0.5,0.5,1.1
							C-38.4,434.1-38.2,434.1-37.9,433.6z"/>
					</g>
					<g>
						<path class="st19" d="M-37.4,428.9c0.3-0.4,0.6-0.7,1.5-0.1c0.9,0.5,0.8,0.9,0.5,1.3c-0.3,0.5-0.6,0.7-1.5,0.1
							C-37.8,429.7-37.7,429.3-37.4,428.9z M-35.5,430c0.3-0.4,0.2-0.6-0.5-1c-0.8-0.5-1-0.3-1.2,0c-0.2,0.3-0.3,0.5,0.5,1.1
							C-36,430.5-35.8,430.5-35.5,430z"/>
						<path class="st19" d="M-36.2,427.2c0.3-0.4,0.6-0.7,1.5-0.1c0.9,0.5,0.8,0.9,0.5,1.4c-0.3,0.5-0.6,0.7-1.5,0.1
							C-36.6,428-36.5,427.6-36.2,427.2z M-34.4,428.3c0.3-0.4,0.2-0.6-0.5-1c-0.8-0.5-1-0.3-1.2,0c-0.2,0.3-0.4,0.5,0.5,1.1
							C-34.9,428.8-34.7,428.7-34.4,428.3z"/>
						<path class="st19" d="M-35.1,425.4c0.3-0.4,0.6-0.7,1.5-0.1c0.9,0.5,0.8,0.9,0.5,1.3c-0.3,0.5-0.6,0.7-1.5,0.1
							C-35.5,426.2-35.4,425.9-35.1,425.4z M-33.3,426.6c0.3-0.4,0.2-0.6-0.5-1c-0.8-0.5-1-0.3-1.2,0c-0.2,0.3-0.4,0.6,0.5,1.1
							C-33.7,427-33.5,427-33.3,426.6z"/>
						<path class="st19" d="M-33.9,423.7c0.3-0.4,0.6-0.7,1.5-0.1c0.9,0.5,0.8,0.9,0.5,1.3c-0.3,0.5-0.6,0.7-1.5,0.1
							C-34.3,424.5-34.2,424.1-33.9,423.7z M-32.1,424.8c0.3-0.4,0.2-0.6-0.5-1c-0.8-0.5-1-0.3-1.2,0c-0.2,0.3-0.3,0.6,0.5,1.1
							C-32.6,425.3-32.4,425.2-32.1,424.8z"/>
					</g>
					<g>
						<path class="st16" d="M-27.4,424.1c1.4,0.9,1.8,2.6,1,3.8c-0.8,1.3-2.7,1.6-4,0.8c-1.4-0.9-1.8-2.6-1-3.9
							C-30.6,423.6-28.8,423.3-27.4,424.1z"/>
						<path class="st20" d="M-25.4,421.3c1.4,0.8,1.8,2.6,1,3.9c-0.8,1.3-2.7,1.6-4,0.8c-1.4-0.9-1.8-2.6-1-3.9
							C-28.6,420.8-26.7,420.5-25.4,421.3z"/>
					</g>
				</g>
				<path class="st21" d="M-49.8,405.7l-9.4,14.3l18.2,33.3l19.8-30c0.3-0.4,0.1-1-0.3-1.3l-26.9-16.5
					C-48.9,405.1-49.5,405.3-49.8,405.7z"/>
			</g>
			<path class="st13" d="M-26.6,438.3c-1.7,2.6-4.8,3.6-6.9,2.3l-27.7-17c-2.1-1.3-2.4-4.4-0.7-7l0,0c1.7-2.6,4.8-3.6,6.9-2.3
				l27.7,17C-25.2,432.6-24.9,435.7-26.6,438.3L-26.6,438.3z"/>
			<path class="st22" d="M23,366.6c-8.6,35.1-54.8,73.1-57.3,71.6l-23.1-14.3c-2.4-1.5,16.8-63.6,42.4-79.7l0.3-0.4
				c2-3,6.3-4.2,8.7-2.7l28.2,17.3C24.7,359.9,25,363.5,23,366.6L23,366.6z"/>
			<path class="st23" d="M19.1,363.6c-0.6,0.9-2.2,1-3.5,0.2L-8.5,349c-1.3-0.8-1.8-2.2-1.2-3.1l0,0c0.6-0.9,2.2-1,3.4-0.2
				l24.1,14.8C19.2,361.2,19.7,362.6,19.1,363.6L19.1,363.6z"/>
			<path class="st24" d="M-21.8,408.9c-0.1,0.1-0.3,0.2-0.4,0.1l-5-3c-0.1-0.1-0.1-0.2,0-0.4l2.4-3.7c0.1-0.1,0.3-0.2,0.4-0.1l5,3.1
				c0.1,0.1,0.1,0.2,0,0.4L-21.8,408.9z"/>
			<path class="st24" d="M-14.7,413.2c-0.1,0.1-0.3,0.2-0.4,0.1l-5-3.1c-0.1-0.1-0.1-0.2,0-0.4l2.4-3.7c0.1-0.1,0.3-0.2,0.4-0.1
				l5,3.1c0.1,0.1,0.1,0.3,0,0.4L-14.7,413.2z"/>
			<path class="st24" d="M-36.1,400.1c-0.1,0.1-0.3,0.2-0.4,0.1l-5-3.1c-0.1-0.1-0.1-0.3,0-0.4l2.4-3.7c0.1-0.1,0.3-0.2,0.4-0.1l5,3
				c0.1,0.1,0.1,0.2,0,0.4L-36.1,400.1z"/>
			<path class="st24" d="M-29.1,404.4c-0.1,0.1-0.3,0.2-0.4,0.1l-5-3.1c-0.1-0.1-0.1-0.2-0.1-0.4l2.4-3.7c0.1-0.1,0.3-0.2,0.4-0.1
				l5,3c0.1,0.1,0.1,0.3,0,0.4L-29.1,404.4z"/>
			<path class="st24" d="M-26,415.1c-0.1,0.1-0.3,0.2-0.4,0.1l-5-3c-0.1-0.1-0.1-0.2-0.1-0.4l2.4-3.7c0.1-0.1,0.3-0.2,0.4-0.1l5,3
				c0.1,0.1,0.1,0.3,0.1,0.4L-26,415.1z"/>
			<path class="st25" d="M-18.9,419.5c-0.1,0.1-0.3,0.2-0.4,0.1l-5-3.1c-0.1-0.1-0.1-0.2,0-0.4l2.4-3.7c0.1-0.1,0.3-0.2,0.4-0.1
				l5,3.1c0.1,0.1,0.1,0.2,0,0.4L-18.9,419.5z"/>
			<path class="st24" d="M-40.3,406.3c-0.1,0.1-0.3,0.2-0.4,0.1l-5-3.1c-0.1-0.1-0.1-0.2,0-0.4l2.4-3.7c0.1-0.1,0.3-0.2,0.4-0.1l5,3
				c0.1,0.1,0.1,0.3,0.1,0.4L-40.3,406.3z"/>
			<path class="st24" d="M-33.2,410.7c-0.1,0.1-0.3,0.2-0.4,0.1l-5-3.1c-0.1-0.1-0.1-0.2,0-0.4l2.4-3.7c0.1-0.1,0.3-0.2,0.4-0.1l5,3
				c0.1,0.1,0.1,0.2,0,0.4L-33.2,410.7z"/>
			<path class="st24" d="M-29.6,420.7c-0.1,0.1-0.3,0.2-0.4,0.1l-5-3.1c-0.1-0.1-0.1-0.2,0-0.4l2.4-3.7c0.1-0.1,0.3-0.2,0.4-0.1
				l5,3.1c0.1,0.1,0.2,0.2,0.1,0.4L-29.6,420.7z"/>
			<path class="st24" d="M-43.9,411.9c-0.1,0.1-0.3,0.2-0.4,0.1l-5-3.1c-0.1-0.1-0.1-0.2,0-0.4l2.4-3.7c0.1-0.1,0.3-0.2,0.4-0.1l5,3
				c0.1,0.1,0.1,0.2,0,0.4L-43.9,411.9z"/>
			<path class="st24" d="M-36.9,416.2c-0.1,0.1-0.3,0.2-0.4,0.1l-5-3.1c-0.1-0.1-0.1-0.2,0-0.4l2.4-3.7c0.1-0.1,0.3-0.2,0.4-0.1
				l5,3.1c0.1,0.1,0.1,0.2,0,0.4L-36.9,416.2z"/>
			<path class="st24" d="M-33.8,426.9c-0.1,0.1-0.3,0.2-0.4,0.1l-5-3.1c-0.1-0.1-0.1-0.2,0-0.4l2.4-3.7c0.1-0.1,0.3-0.2,0.4-0.1l5,3
				c0.1,0.1,0.1,0.2,0.1,0.4L-33.8,426.9z"/>
			<path class="st26" d="M-26.7,431.3c-0.1,0.1-0.3,0.2-0.4,0.1l-5-3.1c-0.1-0.1-0.1-0.2,0-0.4l2.4-3.7c0.1-0.1,0.3-0.2,0.4-0.1
				l5,3.1c0.1,0.1,0.1,0.2,0,0.4L-26.7,431.3z"/>
			<path class="st24" d="M-48.1,418.1c-0.1,0.1-0.3,0.2-0.4,0.1l-5-3.1c-0.1-0.1-0.1-0.2-0.1-0.4l2.4-3.7c0.1-0.1,0.3-0.2,0.4-0.1
				l5,3c0.1,0.1,0.1,0.2,0.1,0.4L-48.1,418.1z"/>
			<path class="st24" d="M-41,422.5c-0.1,0.1-0.3,0.2-0.4,0.1l-5-3.1c-0.1-0.1-0.1-0.2,0-0.4l2.4-3.7c0.1-0.2,0.3-0.2,0.4-0.1l5,3.1
				c0.1,0.1,0.1,0.2,0,0.4L-41,422.5z"/>
			<path class="st27" d="M-22.5,425.1c-0.1,0.1-0.3,0.2-0.4,0.1l-5-3c-0.1-0.1-0.1-0.2,0-0.4l2.4-3.7c0.1-0.1,0.3-0.2,0.4-0.1l5,3
				c0.1,0.1,0.1,0.2,0,0.4L-22.5,425.1z"/>
			<path class="st28" d="M1,403.7c-1.5,2.3-4.7,3-7.1,1.6l-32.4-19.9c-2.4-1.5-3.1-4.6-1.5-6.9l16.6-25.2c1.5-2.3,4.7-3,7.1-1.6
				L16,371.6c2.4,1.5,3.1,4.6,1.5,6.9L1,403.7z"/>
			<path class="st23" d="M0.1,401.7c-0.8,1.3-2.4,1.8-3.4,1.2l-33.6-20.7c-1-0.6-1.2-2.2-0.3-3.4l16.5-24.9c0.8-1.3,2.4-1.8,3.4-1.2
				l33.6,20.7c1,0.6,1.2,2.2,0.3,3.4L0.1,401.7z"/>
			<path class="st25" d="M-1.1,397.4c-0.7,1.1-2,1.5-2.9,0.9l-29-17.8c-0.9-0.5-1-1.9-0.3-2.9l13.8-20.9c0.7-1.1,2-1.5,2.9-0.9
				l29,17.8c0.9,0.5,1,1.9,0.3,2.9L-1.1,397.4z"/>
			<path class="st29" d="M-32.4,441c2.3-4,0.8-9.1-3.4-11.7l-13.8-8.5c-4.2-2.6-9.7-1.7-12.4,2L-32.4,441z"/>
			<path class="st25" d="M-0.9,398.7c-0.7,1.1-2,1.5-2.9,1l-29.7-18.2c-0.9-0.6-1.1-1.9-0.3-3l0,0c0.7-1.1,34.1-11.9,35-11.3
				l11.7,7.2c0.9,0.6,1.1,1.9,0.3,3L-0.9,398.7z"/>
		</g>
	</g>
	<g>
		<polygon class="st30" points="-142,475.1 -188,448.9 -174.9,429.2 -128.9,455.4 		"/>
		<g>
			<g>
				<polygon class="st25" points="-140.2,475.8 -187.7,452 -175.9,431.8 -128.5,455.5 				"/>
				<polygon class="st31" points="-141,474.5 -186,451.9 -175.1,433.2 -130.1,455.7 				"/>
				<path class="st32" d="M-148.4,458.6c-2.7,4.6-9.1,6.2-14.5,3.5c-5.3-2.7-7.4-8.5-4.8-13.1c2.7-4.6,9.1-6.2,14.5-3.5
					C-147.9,448.2-145.8,454-148.4,458.6z"/>
				<g>
					<path class="st33" d="M-166.7,437.7l-8.2-4.1l-3.8,6.6l0.3,0.1C-176.4,437.8-171.9,436.9-166.7,437.7z"/>
				</g>
				<g>
					<path class="st34" d="M-138.6,451.8l8.2,4.1l-3.8,6.6l-0.3-0.1C-133.4,459.3-135,455.4-138.6,451.8z"/>
				</g>
				<g>
					<path class="st34" d="M-149.4,470.1l8.2,4.1l3.8-6.6l-0.3-0.1C-139.7,470.1-144.2,470.9-149.4,470.1z"/>
				</g>
				<g>
					<path class="st33" d="M-177.5,456l-8.2-4.1l3.8-6.6l0.3,0.1C-182.7,448.5-181.1,452.4-177.5,456z"/>
				</g>
				<g>
					<g>
						<path class="st31" d="M-162.2,448.4c1.3-2.2,4-1.7,6.6-0.5l0.8-1.4l1.7,0.8l-0.8,1.4c1.6,0.9,2.9,1.8,3.9,2.5l-1,1.7
							c-1.3-0.7-4.3-2.3-5.1-2.8c-1.4-0.7-2.3-1-2.9,0l-0.3,0.6c-0.5,0.8,0,1.4,1.2,2l2.2,1.1c3.4,1.7,3,3.8,2.3,5l-0.4,0.8
							c-1.5,2.5-4.2,1.9-6.6,0.7l-0.7,1.3l-1.7-0.8l0.8-1.4c-1.8-1-3-1.7-4.1-2.5l1-1.7c0.9,0.5,3.2,1.8,5.4,2.9
							c1,0.5,2.2,0.9,2.7,0.1l0.4-0.6c0.4-0.6,0.3-1.2-0.9-1.8l-2.1-1.1c-4-2-3.2-4.3-2.6-5.2L-162.2,448.4z"/>
					</g>
					<polygon class="st31" points="-161.4,461.7 -163.1,460.8 -154.2,445.4 -152.4,446.3 					"/>
					<polygon class="st31" points="-164,460.4 -165.4,459.7 -156.7,444.6 -155.2,445.4 					"/>
				</g>
			</g>
			<polygon class="st31" points="-140.2,475.8 -176.4,457.7 -143.2,448.2 -128.5,455.5 			"/>
		</g>
	</g>
	<g>
		<polygon class="st30" points="-124.9,492.3 -178.3,503 -184.2,477.1 -129.9,469 		"/>
		<g>
			<g>
				<polygon class="st25" points="-124.9,492.3 -176.5,501.8 -181.5,478.5 -129.9,469 				"/>
				<polygon class="st35" points="-126.4,491.7 -175.3,500.7 -179.9,479.1 -131,470.1 				"/>
				<path class="st32" d="M-142.7,483.5c1.1,5.3-2.6,10.5-8.4,11.5c-5.8,1.1-11.4-2.4-12.5-7.7c-1.1-5.3,2.6-10.5,8.4-11.5
					S-143.9,478.2-142.7,483.5z"/>
				<g>
					<path class="st33" d="M-170.6,477.7l-8.9,1.6l1.6,7.6l0.3-0.1C-177.8,483.6-175.1,480.2-170.6,477.7z"/>
				</g>
				<g>
					<path class="st34" d="M-140,472.1l8.9-1.6l1.6,7.6l-0.3,0.1C-131,475-134.9,472.8-140,472.1z"/>
				</g>
				<g>
					<path class="st34" d="M-135.6,493.3l8.9-1.6l-1.6-7.6l-0.3,0.1C-128.4,487.4-131.1,490.8-135.6,493.3z"/>
				</g>
				<g>
					<path class="st33" d="M-166.2,498.9l-8.9,1.6l-1.6-7.6l0.3-0.1C-175.2,496-171.3,498.2-166.2,498.9z"/>
				</g>
				<g>
					<g>
						<path class="st31" d="M-160,483.5c-0.5-2.6,1.8-3.8,4.6-4.3l-0.3-1.6l1.8-0.3l0.3,1.6c1.7-0.2,3.4-0.3,4.6-0.3l0.4,2
							c-1.5,0.2-4.8,0.7-5.7,0.9c-1.6,0.3-2.4,0.6-2.2,1.7l0.1,0.6c0.2,1,1,1.1,2.3,0.9l2.4-0.4c3.7-0.7,4.8,1.2,5.1,2.7l0.2,0.9
							c0.6,2.9-1.9,4-4.4,4.5l0.3,1.5l-1.8,0.4l-0.4-1.6c-2,0.3-3.4,0.5-4.8,0.5l-0.4-1.9c1-0.1,3.6-0.5,5.9-0.9
							c1.1-0.2,2.3-0.6,2-1.6l-0.2-0.7c-0.2-0.7-0.6-1.2-1.9-0.9l-2.3,0.4c-4.3,0.8-5.3-1.5-5.5-2.6L-160,483.5z"/>
					</g>
					<polygon class="st31" points="-150.3,493.8 -152.2,494.1 -156,476.3 -154.1,476 					"/>
					<polygon class="st31" points="-153.1,494.3 -154.7,494.6 -158.4,477.2 -156.8,476.9 					"/>
				</g>
			</g>
			<polygon class="st31" points="-124.9,492.3 -164.2,499.5 -145.9,471.9 -129.9,469 			"/>
		</g>
	</g>
	<g>
		<g>
			<path class="st29" d="M-110.4,440c1.4,3.9-0.2,8.2-3.6,9.5l-31.6,12c-3.4,1.3-7.4-0.8-8.9-4.8l-21.8-59.1
				c-1.4-3.9,0.2-8.2,3.6-9.5l31.6-12c3.4-1.3,7.4,0.8,8.9,4.8L-110.4,440z"/>
			<path class="st36" d="M-115.2,435.5c1.3,3.5-0.1,7.3-3.2,8.4l-27.8,10.6c-3,1.1-6.5-0.7-7.8-4.2l-19.3-52.4
				c-1.3-3.5,0.1-7.3,3.2-8.4l27.8-10.6c3-1.2,6.5,0.7,7.8,4.2L-115.2,435.5z"/>
			<path class="st3" d="M-115.5,434.4c1.3,3.4-0.1,7.1-3.1,8.2l-27.3,10.3c-3,1.1-6.4-0.7-7.7-4.1l-18.8-51.2
				c-1.3-3.4,0.1-7.1,3.1-8.2l27.3-10.3c3-1.1,6.4,0.7,7.7,4.1L-115.5,434.4z"/>
			<g>
				<path class="st37" d="M-131.5,400.6c0.1,0.2-0.1,0.5-0.4,0.6l-31.6,12c-0.3,0.1-0.6,0-0.7-0.2l-6.5-17.8
					c-0.1-0.2,0.1-0.5,0.4-0.6l31.6-12c0.3-0.1,0.6,0,0.7,0.2L-131.5,400.6z"/>
				<path class="st38" d="M-131.7,400.7c0.1,0.2-0.1,0.5-0.4,0.6l-31.3,11.9c-0.3,0.1-0.6,0-0.7-0.2l-6.5-17.5
					c-0.1-0.2,0.1-0.5,0.4-0.6l31.3-11.9c0.3-0.1,0.6,0,0.7,0.2L-131.7,400.7z"/>
				<g>
					<path class="st16" d="M-165,398.5c-1,0.4-2-0.1-2.3-1.1c-0.3-1,0.2-2,1.1-2.4c0.9-0.4,2,0.1,2.3,1.1c0,0,0,0,0,0
						c-0.4-1.2-1.7-1.9-3-1.4c-1.2,0.5-1.8,1.9-1.4,3.1c0.4,1.3,1.7,1.9,3,1.4c1.2-0.5,1.8-1.8,1.5-3
						C-163.5,397.1-164,398.1-165,398.5z"/>
					<path class="st16" d="M-163.8,396.1C-163.8,396.1-163.8,396.1-163.8,396.1C-163.8,396.1-163.8,396.1-163.8,396.1z"/>
				</g>
				<g>
					<path class="st17" d="M-159.8,403.9c0.1,0.2,0,0.4-0.2,0.4l-4,1.6c-0.2,0.1-0.4,0-0.4-0.2l-1.3-3.9c-0.1-0.2,0-0.4,0.2-0.4
						l4-1.6c0.2-0.1,0.4,0,0.4,0.2L-159.8,403.9z"/>
					<path class="st18" d="M-161.6,403.8l-1.6,0.6c-0.2,0.1-0.4,0-0.5-0.2l-0.7-2.1c-0.1-0.2,0-0.4,0.2-0.5l1.6-0.6
						c0.2-0.1,0.4,0,0.5,0.2l0.7,2.1C-161.3,403.5-161.4,403.8-161.6,403.8z M-164.1,401.8c-0.1,0.1-0.2,0.2-0.2,0.4l0.7,2.1
						c0,0.1,0.2,0.2,0.3,0.2l1.6-0.6c0.1-0.1,0.2-0.2,0.2-0.4l-0.7-2.1c-0.1-0.1-0.2-0.2-0.3-0.2L-164.1,401.8z"/>
					<polygon class="st18" points="-163.8,401.6 -163.9,401.6 -164.2,400.8 -164.1,400.8 					"/>
					<polygon class="st18" points="-162.7,401.1 -162.8,401.2 -163.1,400.4 -163,400.3 					"/>
					
						<rect x="-165.4" y="402.9" transform="matrix(0.9309 -0.3651 0.3651 0.9309 -158.5204 -32.3192)" class="st18" width="1.3" height="0.1"/>
					<polygon class="st18" points="-163.6,404.1 -164.9,404.6 -164.9,404.5 -163.7,404 					"/>
					<polygon class="st18" points="-162.3,405.2 -162.4,405.3 -162.8,404.2 -162.7,404.2 					"/>
					
						<rect x="-161.6" y="403.8" transform="matrix(0.9367 -0.3501 0.3501 0.9367 -151.8242 -30.9898)" class="st18" width="0.1" height="1.1"/>
					<polygon class="st18" points="-160.7,401.3 -161.9,401.8 -161.9,401.7 -160.7,401.3 					"/>
					<polygon class="st18" points="-160.2,402.7 -161.5,403.1 -161.5,403.1 -160.3,402.6 					"/>
				</g>
				<g>
					<path class="st16" d="M-163.5,395.4l0.5-0.2c0.3-0.1,0.4,0.1,0.5,0.2c0,0.1,0.1,0.3-0.1,0.4c0.1,0,0.2,0.1,0.3,0.3
						c0.1,0.2,0.1,0.4-0.2,0.5l-0.5,0.2L-163.5,395.4z M-162.8,395.8c0.1-0.1,0.2-0.2,0.1-0.3c-0.1-0.2-0.2-0.2-0.3-0.1l-0.4,0.1
						l0.2,0.5L-162.8,395.8z M-162.6,396.5c0.1,0,0.2-0.1,0.1-0.3c0-0.1-0.2-0.2-0.3-0.2l-0.4,0.2l0.2,0.5L-162.6,396.5z"/>
					<path class="st16" d="M-162,394.8l0.1-0.1l1,1.2l-0.2,0.1l-0.2-0.3l-0.5,0.2l0,0.4l-0.2,0.1L-162,394.8z M-161.4,395.6
						l-0.4-0.6l0,0.7L-161.4,395.6z"/>
					<path class="st16" d="M-161.2,394.5l0.1-0.1l1.1,0.9l-0.4-1.1l0.1-0.1l0.5,1.4l-0.1,0.1l-1.1-0.9l0.4,1.1l-0.1,0.1
						L-161.2,394.5z"/>
					<path class="st16" d="M-159.9,394l0.1-0.1l0.2,0.6l0.2-0.1l0.2-0.8l0.2-0.1l-0.2,0.9l0.7,0.5l-0.2,0.1l-0.6-0.5l-0.1,0.1
						l0.2,0.6l-0.1,0.1L-159.9,394z"/>
				</g>
				<polygon class="st11" points="-160.8,410.5 -162.5,411.2 -163.1,409.5 -161.3,408.8 				"/>
				<polygon class="st11" points="-150.6,406.5 -160,410.2 -160.6,408.5 -151.2,404.9 				"/>
				<path class="st16" d="M-164.2,396.2c0.2,0.7-0.1,1.5-0.8,1.7c-0.7,0.3-1.4-0.1-1.7-0.8c-0.2-0.7,0.1-1.5,0.8-1.7
					C-165.2,395.2-164.4,395.5-164.2,396.2z"/>
				<g>
					<path class="st19" d="M-163.3,406.7c0.3-0.1,0.5-0.1,0.7,0.5c0.2,0.6,0,0.7-0.3,0.8c-0.3,0.1-0.5,0.1-0.7-0.5
						C-163.8,407-163.6,406.8-163.3,406.7z M-162.9,407.9c0.3-0.1,0.3-0.2,0.2-0.7c-0.2-0.5-0.3-0.5-0.5-0.4
						c-0.2,0.1-0.4,0.1-0.2,0.7C-163.3,408-163.2,408-162.9,407.9z"/>
					<path class="st19" d="M-162.1,406.3c0.3-0.1,0.5-0.1,0.7,0.5c0.2,0.6,0,0.7-0.3,0.8c-0.3,0.1-0.5,0.1-0.7-0.5
						C-162.6,406.5-162.4,406.4-162.1,406.3z M-161.7,407.4c0.3-0.1,0.3-0.2,0.2-0.7c-0.2-0.5-0.3-0.5-0.5-0.4
						c-0.2,0.1-0.4,0.1-0.2,0.7C-162.1,407.5-162,407.6-161.7,407.4z"/>
					<path class="st19" d="M-161,405.8c0.3-0.1,0.5-0.1,0.7,0.5c0.2,0.6,0,0.7-0.3,0.8c-0.3,0.1-0.5,0.1-0.7-0.5
						C-161.4,406.1-161.2,405.9-161,405.8z M-160.6,407c0.3-0.1,0.3-0.2,0.2-0.7c-0.2-0.5-0.3-0.5-0.5-0.4c-0.2,0.1-0.4,0.1-0.2,0.7
						C-160.9,407.1-160.8,407.1-160.6,407z"/>
					<path class="st19" d="M-159.8,405.3c0.3-0.1,0.5-0.1,0.7,0.5c0.2,0.6,0,0.7-0.3,0.8c-0.3,0.1-0.5,0.1-0.7-0.5
						C-160.3,405.6-160.1,405.5-159.8,405.3z M-159.4,406.5c0.3-0.1,0.3-0.2,0.2-0.7c-0.2-0.5-0.3-0.5-0.5-0.4
						c-0.2,0.1-0.4,0.2-0.2,0.7C-159.8,406.6-159.6,406.6-159.4,406.5z"/>
				</g>
				<g>
					<path class="st19" d="M-156.7,404.1c0.3-0.1,0.5-0.1,0.7,0.5c0.2,0.6,0,0.7-0.3,0.8c-0.3,0.1-0.5,0.1-0.7-0.5
						C-157.1,404.4-157,404.2-156.7,404.1z M-156.3,405.3c0.3-0.1,0.3-0.2,0.2-0.7c-0.2-0.5-0.3-0.5-0.5-0.4
						c-0.2,0.1-0.4,0.1-0.2,0.7C-156.7,405.4-156.5,405.4-156.3,405.3z"/>
					<path class="st19" d="M-155.5,403.7c0.3-0.1,0.5-0.1,0.7,0.5c0.2,0.6,0,0.7-0.3,0.8c-0.3,0.1-0.5,0.1-0.7-0.5
						C-156,403.9-155.8,403.8-155.5,403.7z M-155.1,404.9c0.3-0.1,0.3-0.2,0.2-0.7c-0.2-0.5-0.3-0.5-0.5-0.4
						c-0.2,0.1-0.4,0.1-0.2,0.7C-155.5,404.9-155.4,405-155.1,404.9z"/>
					<path class="st19" d="M-154.3,403.2c0.3-0.1,0.5-0.1,0.7,0.5c0.2,0.6,0,0.7-0.3,0.8c-0.3,0.1-0.5,0.1-0.7-0.5
						C-154.8,403.5-154.6,403.3-154.3,403.2z M-153.9,404.4c0.3-0.1,0.3-0.2,0.2-0.7c-0.2-0.5-0.3-0.5-0.5-0.4
						c-0.2,0.1-0.4,0.2-0.2,0.7C-154.3,404.5-154.2,404.5-153.9,404.4z"/>
					<path class="st19" d="M-153.1,402.7c0.3-0.1,0.5-0.1,0.7,0.5c0.2,0.6,0,0.7-0.3,0.8c-0.3,0.1-0.5,0.1-0.7-0.5
						C-153.6,403-153.4,402.9-153.1,402.7z M-152.7,403.9c0.3-0.1,0.3-0.2,0.2-0.7c-0.2-0.5-0.3-0.5-0.5-0.4
						c-0.2,0.1-0.4,0.2-0.2,0.7C-153.1,404-153,404-152.7,403.9z"/>
				</g>
				<g>
					<path class="st19" d="M-150.8,401.8c0.3-0.1,0.5-0.1,0.7,0.5c0.2,0.6,0,0.7-0.3,0.8c-0.3,0.1-0.5,0.1-0.7-0.5
						C-151.2,402.1-151.1,401.9-150.8,401.8z M-150.4,403c0.3-0.1,0.3-0.2,0.2-0.7c-0.2-0.5-0.3-0.5-0.5-0.4
						c-0.2,0.1-0.4,0.1-0.2,0.7C-150.7,403.1-150.6,403.1-150.4,403z"/>
					<path class="st19" d="M-149.6,401.4c0.3-0.1,0.5-0.1,0.7,0.5c0.2,0.6,0,0.7-0.3,0.8c-0.3,0.1-0.5,0.1-0.7-0.5
						C-150.1,401.6-149.9,401.5-149.6,401.4z M-149.2,402.5c0.3-0.1,0.3-0.2,0.2-0.7c-0.2-0.5-0.3-0.5-0.5-0.4
						c-0.2,0.1-0.4,0.1-0.2,0.7C-149.6,402.6-149.4,402.6-149.2,402.5z"/>
					<path class="st19" d="M-148.4,400.9c0.3-0.1,0.5-0.1,0.7,0.5c0.2,0.6,0,0.7-0.3,0.8c-0.3,0.1-0.5,0.1-0.7-0.5
						C-148.9,401.1-148.7,401-148.4,400.9z M-148,402.1c0.3-0.1,0.3-0.2,0.2-0.7c-0.2-0.5-0.3-0.5-0.5-0.4c-0.2,0.1-0.4,0.2-0.2,0.7
						C-148.4,402.2-148.3,402.2-148,402.1z"/>
					<path class="st19" d="M-147.2,400.4c0.3-0.1,0.5-0.1,0.7,0.5c0.2,0.6,0,0.7-0.3,0.8c-0.3,0.1-0.5,0.1-0.7-0.5
						C-147.7,400.7-147.5,400.5-147.2,400.4z M-146.8,401.6c0.3-0.1,0.3-0.2,0.2-0.7c-0.2-0.5-0.3-0.5-0.5-0.4
						c-0.2,0.1-0.4,0.2-0.2,0.7C-147.2,401.7-147.1,401.7-146.8,401.6z"/>
				</g>
				<g>
					<path class="st19" d="M-144.8,399.5c0.3-0.1,0.5-0.1,0.7,0.5c0.2,0.6,0,0.7-0.3,0.8c-0.3,0.1-0.5,0.1-0.7-0.5
						C-145.2,399.7-145,399.6-144.8,399.5z M-144.4,400.7c0.3-0.1,0.3-0.2,0.2-0.7c-0.2-0.5-0.3-0.5-0.5-0.4
						c-0.2,0.1-0.4,0.2-0.2,0.7C-144.7,400.7-144.6,400.8-144.4,400.7z"/>
					<path class="st19" d="M-143.6,399c0.3-0.1,0.5-0.1,0.7,0.5c0.2,0.6,0,0.7-0.3,0.8c-0.3,0.1-0.5,0.1-0.7-0.5
						C-144,399.3-143.9,399.1-143.6,399z M-143.2,400.2c0.3-0.1,0.3-0.2,0.2-0.7c-0.2-0.5-0.3-0.5-0.5-0.4c-0.2,0.1-0.4,0.1-0.2,0.7
						C-143.6,400.3-143.4,400.3-143.2,400.2z"/>
					<path class="st19" d="M-142.4,398.5c0.3-0.1,0.5-0.1,0.7,0.5c0.2,0.6,0,0.7-0.3,0.8c-0.3,0.1-0.5,0.1-0.7-0.5
						C-142.9,398.8-142.7,398.7-142.4,398.5z M-142,399.7c0.3-0.1,0.3-0.2,0.2-0.7c-0.2-0.5-0.3-0.5-0.5-0.4
						c-0.2,0.1-0.4,0.2-0.2,0.7C-142.4,399.8-142.3,399.8-142,399.7z"/>
					<path class="st19" d="M-141.2,398.1c0.3-0.1,0.5-0.1,0.7,0.5c0.2,0.6,0,0.7-0.3,0.8c-0.3,0.1-0.5,0.1-0.7-0.5
						C-141.7,398.3-141.5,398.2-141.2,398.1z M-140.8,399.3c0.3-0.1,0.3-0.2,0.2-0.7c-0.2-0.5-0.3-0.5-0.5-0.4
						c-0.2,0.1-0.4,0.2-0.2,0.7C-141.2,399.4-141.1,399.4-140.8,399.3z"/>
				</g>
				<g>
					<path class="st16" d="M-138.4,400.6c0.3,0.9-0.2,1.9-1,2.2c-0.9,0.3-1.8-0.1-2.1-1c-0.3-0.9,0.2-1.9,1-2.2
						C-139.7,399.2-138.7,399.7-138.4,400.6z"/>
					<path class="st20" d="M-136.4,399.9c0.3,0.9-0.2,1.9-1,2.2c-0.9,0.3-1.8-0.1-2.1-1c-0.3-0.9,0.2-1.9,1-2.2
						C-137.7,398.5-136.7,399-136.4,399.9z"/>
				</g>
				<path class="st39" d="M-138.6,382.6l-8.8,3.6l-10.5,24.8l26-9.8c0.3-0.1,0.1-1,0-1.3l-6.1-17
					C-138.1,382.6-138.4,382.5-138.6,382.6z"/>
			</g>
			<path class="st36" d="M-127.4,450.6c0.3,0.8-1,2.1-2.9,2.8c-1.9,0.7-3.7,0.7-4-0.2c-0.3-0.8,1-2.1,2.9-2.8
				C-129.5,449.7-127.7,449.8-127.4,450.6z"/>
			<path class="st40" d="M-115.5,434.4c1.3,3.4-0.1,7.1-3.1,8.2l-27.3,10.3c-3,1.1-6.4-0.7-7.7-4.1l-0.7-1.8
				c-1.3-3.4,8.4-64.5,8.5-66.5l3.8-1.4c3-1.1,6.4,0.7,7.7,4.1L-115.5,434.4z"/>
		</g>
		<g>
			<g>
				<g>
					<path class="st41" d="M-146.5,413.3c-0.2,2.4,1.9,4.8,3.1,6.5c2.3,3,4.8,5.8,7.3,8.6c3,3.5,5.5,7.8,7.2,12.1
						c-2.1-1.6-4.5-2.9-7.1-4c-2.2-0.9-5.3-3.1-8.1-2.1c-0.9,0.3-1.8,1.4-1.7,2.4c0.1,1.4,2.3,2.2,3.4,2.8c4.3,2.6,8.7,5.1,12.1,8.7
						c1,1.1,1.9,2.3,3,3.3c1.4-0.5,3.5,0.9,4.7,1.5c1.9,0.8,3.8,1.5,5.6,2.3c1.8,0.8,4.9,3.1,7.1,2c1.7-0.8,3.9-3.3,5.2-4.7
						c2.7-2.8,5.7-5.6,8.2-8.6c1.1-1.3,2.2-2.2,1.7-3.7c-0.5-1.5-1.6-3.1-2.5-4.5c-1.3-2.2-2.8-4.4-3.8-6.8c-1.1-2.6-2-5.3-3-8
						c-1.2-3-3.1-6.5-5.8-8.4c-1.9-1.4-4-1.1-4.6,1.5c-0.4,1.6-0.9,1.5-1.8,0.3c-0.7-0.9-1.1-2.6-2.3-3c-0.8-0.3-2.6,0.2-3.5,0.6
						c-1.6,0.6-1.5,1.3-2.1,2.6c-0.7,1.5-1,1-2.3,0.9c-1.1-0.1-2.3,0.4-3,1.4c-0.9,1.2-0.2,2.2-0.5,3.5c-0.4,1.7-1.1,0.6-2.1-0.2
						c-3.4-3.1-6.5-6.4-10-9.3c-1.1-0.9-2.2-2.5-3.7-0.7c-1.3,1.5,0.1,2.9-0.5,4.2L-146.5,413.3z"/>
					<path class="st42" d="M-143.3,434.5c2-0.1,4.3,1.7,5.9,2.6c2.3,1.2,4.5,3,7,4c2.5,1,3.6-0.1,2.8-2.6c-0.9-2.7-2.1-5.3-3.6-7.8
						c-2.6-4.5-5.9-8.8-9.1-12.8c-0.9-1.2-2-2.2-3-3.4c-0.4-0.5-1.2-2.2-2.1-2c-2.5,0.7,4.9,9.7,5.7,10.7c2.5,3.1,4.9,5.9,7,9.2
						c0.5,0.9,4,5.5,3.1,6.7c-0.7,1-5.1-1.8-5.9-2.3c-2.4-1.3-5.4-3-8.3-2.8L-143.3,434.5z"/>
					<path class="st42" d="M-145.1,437.2c-0.1,0-0.2-0.1-0.3,0.1c4,5,10.9,7,15.2,11.8c0.6,0.7,1.4,2,2.2,2.5
						c0.9,0.5,2.5,0.4,3.6,0.8c2.9,1.1,5.5,2.8,8.3,4c2.2,1,3.8,2.1,6.2,0.6c0.7-0.4,3.3-1.7,3.5-2.4c0.3-0.7-1.1-0.3-1.6-0.3
						c-1.9,0.1-4,0-5.9-0.2c-3.5-0.5-6.8-2-10-3.2c-2-0.7-3.8-1.4-5.4-2.8c-2.6-2.3-4.9-4.7-7.8-6.6c-1.9-1.3-3.8-2.6-5.5-4.1
						c-0.5-0.4-3.2-2.3-2.9-0.2L-145.1,437.2z"/>
					<polygon class="st11" points="-88.4,445.2 -110.2,464.1 -115.2,458.4 -93.4,439.5 					"/>
					<path class="st43" d="M-97.4,442.9c1.6,1.6-0.8,7.2-1.7,9.2c-1.7,3.5-3.9,6.8-5.7,10.2c3.7-3.3,7.5-6.3,11.2-9.5
						c1.2-1,2.4-1.8,3.6-2.9c1.1-0.9,1.7-2.2,2.8-3c-2.2-1.3-4.8-4.6-5.8-6.9c-1.5,0.5-3.1,2.5-4.5,2.9L-97.4,442.9z"/>
					<polygon class="st44" points="-76.1,458.1 -97.5,477.7 -112,465 -88.6,443.8 					"/>
				</g>
			</g>
		</g>
	</g>
</g>
</svg>
