<?xml version="1.0" encoding="utf-8"?>
<!-- Generator: Adobe Illustrator 19.1.0, SVG Export Plug-In . SVG Version: 6.00 Build 0)  -->
<svg version="1.0" id="Layer_1" xmlns="http://www.w3.org/2000/svg" xmlns:xlink="http://www.w3.org/1999/xlink" x="0px" y="0px"
	 width="178px" height="213px" viewBox="0 0 178 213" style="enable-background:new 0 0 178 213;" xml:space="preserve">
<style type="text/css">
	.Graphic_x0020_Style{fill:#C8C8C8;}
	.st0{fill:#FFFFFF;}
	.st1{opacity:0.2;}
	.st2{fill:#353535;}
	.st3{fill:#8B372F;}
	.st4{fill:#D1D1D1;}
	.st5{fill:#ECC19C;}
	.st6{fill:#CF9E76;}
	.st7{fill:#722D26;}
	.st8{fill:#A03F35;}
	.st9{fill:#B9493E;}
	.st10{fill:#424242;}
	.st11{fill:#DFB28B;}
	.st12{fill:#1C1C1C;}
	.st13{fill:#292929;}
	.st14{fill:#D35345;}
	.st15{fill:#E2413E;}
	.st16{fill:#F56462;}
	.st17{fill:#888888;}
	.st18{fill:#5D5D5D;}
	.st19{fill:#F0D0B4;}
	.st20{fill:#C2C2C2;}
	.st21{fill:#F7E041;}
	.st22{enable-background:new    ;}
	.st23{clip-path:url(#SVGID_1_);enable-background:new    ;}
	.st24{fill:#8F8F8F;}
	.st25{fill:#8C8C8C;}
	.st26{fill:#8A8A8A;}
	.st27{fill:#878787;}
	.st28{fill:#858585;}
	.st29{fill:#828282;}
	.st30{clip-path:url(#SVGID_2_);enable-background:new    ;}
	.st31{clip-path:url(#SVGID_3_);enable-background:new    ;}
	.st32{clip-path:url(#SVGID_4_);enable-background:new    ;}
	.st33{clip-path:url(#SVGID_5_);enable-background:new    ;}
	.st34{clip-path:url(#SVGID_6_);enable-background:new    ;}
	.st35{clip-path:url(#SVGID_7_);enable-background:new    ;}
	.st36{clip-path:url(#SVGID_8_);enable-background:new    ;}
	.st37{clip-path:url(#SVGID_9_);enable-background:new    ;}
	.st38{clip-path:url(#SVGID_10_);enable-background:new    ;}
	.st39{clip-path:url(#SVGID_11_);enable-background:new    ;}
	.st40{clip-path:url(#SVGID_12_);enable-background:new    ;}
	.st41{fill:#AFAFAF;}
	.st42{clip-path:url(#SVGID_13_);}
	.st43{clip-path:url(#SVGID_15_);enable-background:new    ;}
	.st44{clip-path:url(#SVGID_16_);enable-background:new    ;}
	.st45{fill:#808080;}
	.st46{clip-path:url(#SVGID_17_);enable-background:new    ;}
	.st47{clip-path:url(#SVGID_18_);enable-background:new    ;}
	.st48{clip-path:url(#SVGID_19_);enable-background:new    ;}
	.st49{clip-path:url(#SVGID_20_);}
	.st50{clip-path:url(#SVGID_22_);enable-background:new    ;}
	.st51{clip-path:url(#SVGID_23_);enable-background:new    ;}
	.st52{clip-path:url(#SVGID_24_);enable-background:new    ;}
	.st53{clip-path:url(#SVGID_25_);enable-background:new    ;}
	.st54{clip-path:url(#SVGID_26_);enable-background:new    ;}
	.st55{clip-path:url(#SVGID_27_);}
	.st56{clip-path:url(#SVGID_29_);enable-background:new    ;}
	.st57{fill:#323232;}
	.st58{fill:none;stroke:#205983;stroke-miterlimit:10;}
	.st59{fill:url(#SVGID_30_);}
	.st60{fill:#205983;}
	.st61{fill:#82848A;}
	.st62{fill:#DDE89C;}
	.st63{fill:#ACC464;}
	.st64{clip-path:url(#SVGID_32_);}
	.st65{fill:#ECECCC;}
	.st66{fill:#C5DB67;}
	.st67{fill:#C2D37B;}
	.st68{fill:#CCC098;}
	.st69{fill:#C4D679;}
	.st70{fill:#B2CB63;}
	.st71{fill:#A38F63;}
	.st72{fill:#DFEA9E;}
	.st73{fill:#BFCC76;}
	.st74{clip-path:url(#SVGID_34_);}
	.st75{fill:#C4D57D;}
	.st76{clip-path:url(#SVGID_38_);}
	.st77{fill:#A49067;}
	.st78{fill:#EEEECE;}
	.st79{fill:#85A065;}
	.st80{opacity:0.3;fill:#A49067;}
	.st81{fill:#DCDED2;}
	.st82{fill:#EEEDEB;}
	.st83{fill:#F78267;}
	.st84{fill:#EC5B57;}
	.st85{opacity:0.7;fill:#85A065;}
	.st86{clip-path:url(#SVGID_50_);}
	.st87{fill:#BDAF81;}
	.st88{fill:#A19F6B;}
	.st89{fill:#CEC29A;}
	.st90{fill:#F44945;}
	.st91{clip-path:url(#SVGID_62_);}
	.st92{fill:#FF7555;}
	.st93{fill:#D84747;}
	.st94{clip-path:url(#SVGID_68_);}
	.st95{opacity:0.4;fill:#A49067;}
	.st96{clip-path:url(#SVGID_80_);}
	.st97{fill:#AEC666;}
	.st98{clip-path:url(#SVGID_92_);}
	.st99{clip-path:url(#SVGID_98_);}
	.st100{fill:#C6D87B;stroke:#B4CD65;stroke-width:10.3424;stroke-miterlimit:10;}
	.st101{fill:#C7DD69;}
	.st102{opacity:0.5;fill:#CEC29A;}
	.st103{fill:#F7F6DB;}
	.st104{fill:#9FB25B;}
	.st105{clip-path:url(#SVGID_102_);}
	.st106{fill:#B4CD65;}
	.st107{fill:#A59165;}
	.st108{clip-path:url(#SVGID_104_);}
	.st109{fill:url(#SVGID_105_);}
	.st110{opacity:0;fill:#414042;}
	.st111{opacity:1.162791e-002;fill:#414042;}
	.st112{opacity:2.325581e-002;fill:#414042;}
	.st113{opacity:3.488372e-002;fill:#414042;}
	.st114{opacity:4.651163e-002;fill:#414042;}
	.st115{opacity:5.813954e-002;fill:#414042;}
	.st116{opacity:6.976745e-002;fill:#414042;}
	.st117{opacity:8.139535e-002;fill:#414042;}
	.st118{opacity:9.302326e-002;fill:#414042;}
	.st119{opacity:0.1047;fill:#414042;}
	.st120{opacity:0.1163;fill:#414042;}
	.st121{opacity:0.1279;fill:#414042;}
	.st122{opacity:0.1395;fill:#414042;}
	.st123{opacity:0.1512;fill:#414042;}
	.st124{opacity:0.1628;fill:#414042;}
	.st125{opacity:0.1744;fill:#414042;}
	.st126{opacity:0.186;fill:#414042;}
	.st127{opacity:0.1977;fill:#414042;}
	.st128{opacity:0.2093;fill:#414042;}
	.st129{opacity:0.2209;fill:#414042;}
	.st130{opacity:0.2326;fill:#414042;}
	.st131{opacity:0.2442;fill:#414042;}
	.st132{opacity:0.2558;fill:#414042;}
	.st133{opacity:0.2674;fill:#414042;}
	.st134{opacity:0.2791;fill:#414042;}
	.st135{opacity:0.2907;fill:#414042;}
	.st136{opacity:0.3023;fill:#414042;}
	.st137{opacity:0.314;fill:#414042;}
	.st138{opacity:0.3256;fill:#414042;}
	.st139{opacity:0.3372;fill:#414042;}
	.st140{opacity:0.3488;fill:#414042;}
	.st141{opacity:0.3605;fill:#414042;}
	.st142{opacity:0.3721;fill:#414042;}
	.st143{opacity:0.3837;fill:#414042;}
	.st144{opacity:0.3953;fill:#414042;}
	.st145{opacity:0.407;fill:#414042;}
	.st146{opacity:0.4186;fill:#414042;}
	.st147{opacity:0.4302;fill:#414042;}
	.st148{opacity:0.4419;fill:#414042;}
	.st149{opacity:0.4535;fill:#414042;}
	.st150{opacity:0.4651;fill:#414042;}
	.st151{opacity:0.4767;fill:#414042;}
	.st152{opacity:0.4884;fill:#414042;}
	.st153{opacity:0.5;fill:#414042;}
	.st154{fill:url(#SVGID_106_);}
	.st155{fill:#DDDDDD;}
	.st156{opacity:0.5;fill:#DDDDDD;}
	.st157{opacity:0.2;fill:#A39F9B;}
	.st158{fill:#F0EBE8;}
	.st159{opacity:0.5;fill:#FFFFFF;}
	.st160{opacity:0.5;fill:#4C4C4C;}
	.st161{fill:url(#SVGID_107_);}
	.st162{fill:url(#SVGID_108_);}
	.st163{fill:url(#SVGID_109_);}
	.st164{fill:url(#SVGID_110_);}
	.st165{fill:url(#SVGID_111_);}
	.st166{fill:url(#SVGID_112_);}
	.st167{fill:url(#SVGID_113_);}
	.st168{fill:url(#SVGID_114_);}
	.st169{fill:url(#SVGID_115_);}
	.st170{fill:url(#SVGID_116_);}
	.st171{fill:url(#SVGID_117_);}
	.st172{fill:url(#SVGID_118_);}
	.st173{fill:url(#SVGID_119_);}
	.st174{fill:url(#SVGID_120_);}
	.st175{fill:#C4BAB3;}
	.st176{fill:#D3D1CF;}
	.st177{fill:#E3DEDB;}
	.st178{opacity:0.3;fill:#FFFFFF;}
	.st179{fill:#A39F9B;}
	.st180{opacity:0.5;}
	.st181{fill:url(#SVGID_121_);}
	.st182{fill:url(#SVGID_122_);}
	.st183{fill:#FAAA72;}
	.st184{fill:url(#SVGID_123_);}
	.st185{opacity:0.3;fill:#D3C9C2;}
	.st186{fill:#FFB785;}
	.st187{fill:#D88961;}
	.st188{fill:#F9B28F;}
	.st189{fill:#D98B68;}
	.st190{fill:#FFBFA6;}
	.st191{fill:#FFC7A1;}
	.st192{opacity:0.8;}
	.st193{fill:url(#SVGID_124_);}
	.st194{fill:#88A863;}
	.st195{clip-path:url(#SVGID_126_);}
	.st196{fill:#C6D87B;}
	.st197{fill:url(#SVGID_127_);}
	.st198{fill:url(#SVGID_128_);}
	.st199{opacity:0.3;fill:#E2D1BD;}
	.st200{fill:#E89363;}
	.st201{fill:#FFBA8A;}
	.st202{fill:url(#SVGID_129_);}
	.st203{fill:#B26843;}
	.st204{fill:url(#SVGID_130_);}
	.st205{fill:url(#SVGID_131_);}
	.st206{fill:url(#SVGID_132_);}
	.st207{fill:url(#SVGID_133_);}
	.st208{fill:url(#SVGID_134_);}
	.st209{fill:url(#SVGID_135_);}
	.st210{fill:url(#SVGID_136_);}
	.st211{fill:url(#SVGID_137_);}
	.st212{fill:url(#SVGID_138_);}
	.st213{fill:url(#SVGID_139_);}
	.st214{fill:url(#SVGID_140_);}
	.st215{fill:url(#SVGID_141_);}
	.st216{fill:url(#SVGID_142_);}
	.st217{fill:url(#SVGID_143_);}
	.st218{fill:url(#SVGID_144_);}
	.st219{fill:url(#SVGID_145_);}
	.st220{fill:url(#SVGID_146_);}
	.st221{fill:url(#SVGID_147_);}
	.st222{fill:url(#SVGID_148_);}
	.st223{fill:url(#SVGID_149_);}
	.st224{fill:url(#SVGID_150_);}
	.st225{fill:url(#SVGID_151_);}
	.st226{fill:url(#SVGID_152_);}
	.st227{fill:url(#SVGID_153_);}
	.st228{fill:url(#SVGID_154_);}
	.st229{fill:url(#SVGID_155_);}
	.st230{fill:url(#SVGID_156_);}
	.st231{fill:url(#SVGID_157_);}
	.st232{fill:url(#SVGID_158_);}
	.st233{fill:#E7915C;}
	.st234{fill:url(#SVGID_159_);}
	.st235{opacity:0.4;fill:#414042;}
	.st236{fill:url(#SVGID_160_);}
	.st237{fill:url(#SVGID_161_);}
	.st238{fill:url(#SVGID_162_);}
	.st239{fill:url(#SVGID_163_);}
	.st240{fill:url(#SVGID_164_);}
	.st241{fill:url(#SVGID_165_);}
	.st242{fill:url(#SVGID_166_);}
	.st243{fill:url(#SVGID_167_);}
	.st244{fill:url(#SVGID_168_);}
	.st245{fill:url(#SVGID_169_);}
	.st246{opacity:0.2;fill:#FFE97D;}
	.st247{fill:url(#SVGID_170_);}
	.st248{opacity:0.3;fill:#FFE97D;}
	.st249{opacity:0.3;fill:#E28429;}
	.st250{fill:#FFE558;}
	.st251{opacity:0.6;}
	.st252{fill:#D38139;}
	.st253{fill:url(#SVGID_171_);}
	.st254{fill:url(#SVGID_172_);}
	.st255{fill:url(#SVGID_173_);}
	.st256{fill:url(#SVGID_174_);}
	.st257{fill:url(#SVGID_175_);}
	.st258{fill:url(#SVGID_176_);}
	.st259{fill:url(#SVGID_177_);}
	.st260{fill:url(#SVGID_178_);}
	.st261{fill:url(#SVGID_179_);}
	.st262{fill:url(#SVGID_180_);}
	.st263{fill:#D38139;stroke:#D38139;stroke-miterlimit:10;}
	.st264{fill:url(#SVGID_181_);}
	.st265{fill:url(#SVGID_182_);}
	.st266{fill:#F29549;}
	.st267{fill:url(#SVGID_183_);}
	.st268{fill:#EC8E33;}
	.st269{opacity:0.6;fill:#E28429;}
	.st270{fill:url(#SVGID_184_);}
	.st271{opacity:0.2;fill:#FFFFFF;}
	.st272{fill:url(#SVGID_185_);}
	.st273{opacity:0.7;fill:url(#SVGID_186_);}
	.st274{opacity:0.7;fill:url(#SVGID_187_);}
	.st275{fill:url(#SVGID_188_);}
	.st276{fill:url(#SVGID_189_);}
	.st277{fill:url(#SVGID_190_);}
	.st278{fill:url(#SVGID_191_);}
	.st279{opacity:0.9;fill:#FFFFFF;}
	.st280{opacity:0.4;fill:#FFFFFF;}
	.st281{opacity:0.8;fill:#FFFFFF;}
	.st282{fill:url(#SVGID_192_);}
	.st283{fill:url(#SVGID_193_);}
	.st284{fill:url(#SVGID_194_);}
	.st285{fill:url(#SVGID_195_);}
	.st286{fill:url(#SVGID_196_);}
	.st287{opacity:0.7;fill:url(#SVGID_197_);}
	.st288{opacity:0.7;fill:url(#SVGID_198_);}
	.st289{fill:url(#SVGID_199_);}
	.st290{fill:url(#SVGID_200_);}
	.st291{fill:url(#SVGID_201_);}
	.st292{fill:url(#SVGID_202_);}
	.st293{fill:url(#SVGID_203_);}
	.st294{fill:#FFB625;}
	.st295{fill:#FF9B2D;}
	.st296{opacity:0.5;fill:#FFE754;}
	.st297{opacity:0.3;}
	.st298{fill:#F99300;}
	.st299{fill:#DBA971;}
	.st300{fill:#EDD5B4;}
	.st301{opacity:0.7;}
	.st302{fill:#FEEAC9;}
	.st303{opacity:0.4;}
	.st304{clip-path:url(#SVGID_205_);}
	.st305{fill:#FFBE43;}
	.st306{fill:#F9B03A;}
	.st307{opacity:0.5;fill:url(#SVGID_206_);}
	.st308{opacity:0.3;fill:url(#SVGID_207_);}
	.st309{opacity:0.8;fill:#FF9B2D;}
	.st310{fill:url(#SVGID_208_);}
	.st311{fill:#FFE97D;}
	.st312{fill:url(#SVGID_209_);}
	.st313{fill:#E28429;}
	.st314{fill:url(#SVGID_210_);}
	.st315{fill:url(#SVGID_211_);}
	.st316{fill:url(#SVGID_212_);}
	.st317{clip-path:url(#SVGID_214_);}
	.st318{fill:url(#SVGID_215_);}
	.st319{fill:url(#SVGID_216_);}
	.st320{fill:none;stroke:#F99300;stroke-width:2.0685;stroke-miterlimit:10;}
	.st321{fill:#FFD84B;}
	.st322{fill:#F4B350;}
	.st323{clip-path:url(#SVGID_218_);fill:#C8C8C8;}
	.st324{clip-path:url(#SVGID_218_);fill:#686671;}
	.st325{fill:#4F3C30;}
	.st326{fill:#F6CCB8;}
	.st327{fill:#42404D;}
	.st328{opacity:0.8;fill:#F6CCB8;}
	.st329{fill:#3C2417;}
	.st330{fill:#F05D44;}
	.st331{fill:#ADADAE;}
	.st332{fill:#F7CDB9;}
</style>
<g>
	<g>
		<path class="st322" d="M151.9,187.1c-34.8,34.5-91.1,34.5-125.9,0c-34.8-34.5-34.8-90.4,0-124.9c34.8-34.5,91.1-34.5,125.9,0
			C186.7,96.7,186.7,152.6,151.9,187.1z"/>
	</g>
	<g>
		<defs>
			<path id="SVGID_217_" d="M151.9,187.1c-34.8,34.5-91.1,34.5-125.9,0c-34.8-34.5-34.8-90.4,0-124.9c34.8-34.5,91.1-34.5,125.9,0
				C186.7,96.7,186.7,152.6,151.9,187.1z"/>
		</defs>
		<clipPath id="SVGID_1_">
			<use xlink:href="#SVGID_217_"  style="overflow:visible;"/>
		</clipPath>
		<path style="clip-path:url(#SVGID_1_);fill:#C8C8C8;" d="M158,195.2h-16.7c1-0.3,1.7-1.1,1.7-2.2c0-1.3-1-2.3-2.3-2.3h-2.5
			c2.7-0.6,4.8-3,4.8-5.9v-5.1l8.5-17.5c3.1-5.2,3.6-11.5,1.1-17c-1.3-3.1-3.2-6.8-5.2-10.8c3.9-2.7,7.3-6.6,6.6-11.6
			c-0.8-6.2-7.8-9.2-9.3-15.5c-1-4.3,0.7-8.9-0.5-13.2c-1-3.9-4.5-7.2-6.5-10.6c-5.3-8.9,0-12.7-0.8-21.5
			c-0.8-8.4-8.1-14.9-9.6-23.1c-1.4-7.6-2.8-15.3-6.5-22c-3-5.4-5.1-7-8.5-9.4C109,5.1,91.1-7.2,78.7,6C70,1.7,62,11.2,57.5,26.7
			c-2.1,7.1-1.1,13.9-4.3,20.7c-0.1,0.3-0.3,0.6-0.4,0.9c-3,6-8.2,11.7-9,18.6c-0.5,5.1,2.1,10.3,0.8,15.3c-1.5,5.8-6.7,8.1-7.8,14
			c-1.1,5.8,2,13.3-0.9,18.5c-2.1,3.9-7.2,7.1-7.9,11.4c-0.4,2.4-0.1,7.7,6.4,10.6c-1.6,3.1-3,6-4,8.5c-2.4,5.5-2,11.9,1.1,17
			l8.5,17.5v5.1v1.8c0,2,1.3,3.6,3.2,4.1h-0.9c-1.3,0-2.3,1-2.3,2.3c0,1,0.7,1.9,1.7,2.2h-13c-5.1,0-9.3,4.1-9.3,9.2
			s4.2,9.2,9.3,9.2H158c5.1,0,9.3-4.1,9.3-9.2S163.1,195.2,158,195.2z"/>
		<path id="desk_4_" style="clip-path:url(#SVGID_1_);fill:#686671;" d="M155.6,195.2H26.2c-5.1,0-9.3,4.1-9.3,9.2s4.2,9.2,9.3,9.2
			h129.4c5.1,0,9.3-4.1,9.3-9.2S160.7,195.2,155.6,195.2z"/>
	</g>
	<g id="woman_26_">
		<path class="st325" d="M50.3,48.3c0.1-0.3,0.3-0.6,0.4-0.9c3.2-6.9,2.3-13.6,4.3-20.7C59.5,11.2,67.6,1.7,76.2,6
			c12.4-13.1,30.3-0.9,33.5,1.4c3.4,2.4,5.5,4.1,8.5,9.4c3.8,6.8,5.1,14.4,6.5,22c1.6,8.3,8.8,14.8,9.6,23.1
			c0.8,8.8-4.5,12.6,0.8,21.5c2,3.4,5.5,6.8,6.5,10.6c1.1,4.3-0.6,8.9,0.5,13.2c1.5,6.3,8.5,9.3,9.3,15.5c0.8,6.2-4.7,10.8-9.6,13.4
			c-7.8,4.2-17.3,3.7-26.2,3.1c-25.3-1.8-50.7,1.7-75.9-0.7c-14.2-1.3-14.8-9.4-14.3-12.6c0.6-4.4,5.7-7.6,7.9-11.4
			c2.9-5.2-0.2-12.7,0.9-18.5c1.1-5.9,6.3-8.2,7.8-14c1.3-5-1.3-10.2-0.8-15.3C42,60,47.3,54.3,50.3,48.3z"/>
		<g>
			<polygon class="st326" points="99.3,93.9 99.3,80.9 78.7,80.9 78.7,93.9 73.5,94.3 78.7,127.3 99.3,127.3 104.5,94.3 			"/>
			<polygon class="st326" points="78.7,80.9 78.7,85.7 99.3,93.9 99.3,80.9 			"/>
		</g>
		<g>
			<path class="st327" d="M150.1,145.2c-5.9-13.5-20.9-39.5-25.4-43.8c-7.4-7-15.9-6.8-23.7-7.4c0,0,0,0.1,0,0.3l-12,32.6L77,94.4
				c0-0.2,0-0.3,0-0.3c-7.8,0.6-16.3,0.3-23.7,7.4c-4.5,4.3-19.4,30.3-25.4,43.8c-2.4,5.5-2,11.9,1.1,17l15.2,31.3h8.4h32.9h0.2
				l3.3-12.3l3.3,12.3h0.2h32.9h8.4l15.2-31.3C152.1,157.1,152.5,150.7,150.1,145.2z"/>
			<g>
				<polygon class="st0" points="65.2,102.4 76.5,106.6 72,112.7 89,126.9 77,94 				"/>
				<polygon class="st0" points="112.8,102.4 101,94.2 89,126.9 106,112.7 101.5,106.6 				"/>
			</g>
		</g>
		<g id="woman_33_">
			<g>
				<path class="st326" d="M112.1,46.4V35.8c0-11.3-13.2-25.6-23.6-25.6c-10.4,0-23.6,14.3-23.6,25.6v10.6c-2.9,0-5.2,2.3-5.2,5.1
					v5.3c0,2.8,2.3,5.1,5.2,5.1c0,11.3,13.2,26,23.6,26c10.4,0,23.6-14.7,23.6-26c2.9,0,5.2-2.3,5.2-5.1v-5.3
					C117.4,48.7,115,46.4,112.1,46.4z"/>
				<path class="st328" d="M88.5,69v18.9c10.4,0,23.6-14.7,23.6-26c2.9,0,5.2-2.3,5.2-5.1v-5.3c0-2.8-2.3-5.1-5.2-5.1V35.8
					c0-11.3-13.2-25.6-23.6-25.6v41.4C84.7,59.5,83.3,68,83.3,68L88.5,69z"/>
				<g>
					<g>
						
							<ellipse transform="matrix(0.9994 -3.462239e-002 3.462239e-002 0.9994 -1.7722 2.6669)" class="st326" cx="76.1" cy="52.5" rx="4.1" ry="4"/>
						
							<ellipse transform="matrix(0.9994 -3.462239e-002 3.462239e-002 0.9994 -1.7368 2.6663)" class="st329" cx="76.1" cy="51.5" rx="4.1" ry="4"/>
						
							<ellipse transform="matrix(0.9994 -3.463941e-002 3.463941e-002 0.9994 -1.6932 2.7147)" class="st0" cx="77.5" cy="50.2" rx="1" ry="1"/>
						<path class="st329" d="M81.1,48.3c-0.8-1.7-2.7-3-4.8-3.3c-1.3-0.1-3.7,0.1-5.8,2.7c-0.1,0-0.2,0-0.3,0
							c-0.2,0-0.6-0.1-0.9-0.2c-0.6-0.3-1.2-0.8-1.2-0.8c0,0-0.1,0-0.1,0c-0.1,0-0.1,0.1-0.1,0.2c0,0,0.1,0.2,0.2,0.4
							c0.2,0.3,0.4,0.6,0.7,0.9c0.3,0.3,0.7,0.5,1,0.7c0.1,0.1,0.3,0.1,0.4,0.2c0.1,0,0.2,0.1,0.2,0.1c0.3,0,0.5-0.1,0.7-0.4
							c1.4-1.9,3.2-2.8,5.1-2.6c1.7,0.2,3.3,1.3,3.9,2.7c0.1,0.3,0.4,0.4,0.7,0.3C81.1,48.8,81.2,48.5,81.1,48.3z"/>
					</g>
					<g>
						
							<ellipse transform="matrix(0.9994 -3.462239e-002 3.462239e-002 0.9994 -1.7568 3.5589)" class="st326" cx="101.9" cy="52.5" rx="4.1" ry="4"/>
						
							<ellipse transform="matrix(0.9994 -3.462239e-002 3.462239e-002 0.9994 -1.7214 3.5582)" class="st329" cx="101.9" cy="51.5" rx="4.1" ry="4"/>
						
							<ellipse transform="matrix(0.9994 -3.463941e-002 3.463941e-002 0.9994 -1.6777 3.6071)" class="st0" cx="103.3" cy="50.2" rx="1" ry="1"/>
						<path class="st329" d="M96.9,48.3c0.8-1.7,2.7-3,4.8-3.3c1.3-0.1,3.7,0.1,5.8,2.7c0.1,0,0.2,0,0.3,0c0.2,0,0.6-0.1,0.9-0.2
							c0.6-0.3,1.2-0.8,1.2-0.8c0,0,0.1,0,0.1,0c0.1,0,0.1,0.1,0.1,0.2c0,0-0.1,0.2-0.2,0.4c-0.2,0.3-0.4,0.6-0.7,0.9
							c-0.3,0.3-0.7,0.5-1,0.7c-0.1,0.1-0.3,0.1-0.4,0.2c-0.1,0-0.2,0.1-0.2,0.1c-0.3,0-0.5-0.1-0.7-0.4c-1.4-1.9-3.2-2.8-5.1-2.6
							c-1.7,0.2-3.3,1.3-3.9,2.7c-0.1,0.3-0.4,0.4-0.7,0.3C96.9,48.8,96.8,48.5,96.9,48.3z"/>
					</g>
				</g>
			</g>
			<path class="st325" d="M121.6,51.1c-5.1-5.8-3.7-11.5-4.3-13.3c-1.7-5.5-1.3-10.7-3.5-16c-6.9-16.3-40.9-22.6-50.9,7.8
				c-1.6,4.8,0.6,13.2,2.6,17.8c1.4-0.5,9.2-12.4,12.8-20.6C87,41.7,111.5,49.3,121.6,51.1z"/>
			<g>
				<path class="st330" d="M97.2,72c0,4-3.7,7.3-8.2,7.3c-4.6,0-8.2-3.3-8.2-7.3H97.2z"/>
				<path class="st0" d="M94.7,74.7H83c-0.6,0-1-0.4-1-1V72h13.7v1.7C95.7,74.2,95.3,74.7,94.7,74.7z"/>
			</g>
		</g>
	</g>
	<g id="computer_4_">
		<path class="st331" d="M138.2,195.3H39.8c-1.3,0-2.3-1-2.3-2.3c0-1.3,1-2.3,2.3-2.3h98.4c1.3,0,2.3,1,2.3,2.3
			C140.5,194.3,139.5,195.3,138.2,195.3z"/>
		<path class="st332" d="M135.5,190.9H42.5c-2.8,0-5-2.2-5-5v-64.2c0-2.8,2.2-5,5-5h93.1c2.8,0,5,2.2,5,5v64.2
			C140.5,188.6,138.3,190.9,135.5,190.9z"/>
		<ellipse class="st159" cx="89" cy="151.4" rx="8.4" ry="8.4"/>
		<path class="st271" d="M117.1,116.6H41.8c-2.4,0-4.3,1.9-4.3,4.3v65.7c0,2.4,1.9,4.3,4.3,4.3h14.8
			C59.7,155.5,84.2,126.3,117.1,116.6z"/>
	</g>
</g>
</svg>
