<?xml version="1.0" encoding="utf-8"?>
<!-- Generator: Adobe Illustrator 19.1.0, SVG Export Plug-In . SVG Version: 6.00 Build 0)  -->
<svg version="1.1" id="Layer_1" xmlns="http://www.w3.org/2000/svg" xmlns:xlink="http://www.w3.org/1999/xlink" x="0px" y="0px"
	 viewBox="0 0 250 250" style="enable-background:new 0 0 250 250;" xml:space="preserve">
<g>
	<defs>
		<rect id="SVGID_1_" width="250" height="250"/>
	</defs>
	<clipPath id="SVGID_2_">
		<use xlink:href="#SVGID_1_"  style="overflow:visible;"/>
	</clipPath>
	<g style="clip-path:url(#SVGID_2_);">
		<g>
			
				<line style="fill-rule:evenodd;clip-rule:evenodd;fill:none;stroke:#FFFFFF;stroke-width:2.4001;stroke-linecap:round;stroke-linejoin:round;stroke-miterlimit:22.9256;stroke-dasharray:2.4001,12.0005;" x1="125.6" y1="93.2" x2="165.2" y2="27.9"/>
			
				<line style="fill-rule:evenodd;clip-rule:evenodd;fill:none;stroke:#FFFFFF;stroke-width:2.4001;stroke-linecap:round;stroke-linejoin:round;stroke-miterlimit:22.9256;stroke-dasharray:2.4001,12.0005;" x1="125.6" y1="93.2" x2="41.9" y2="48.2"/>
			
				<line style="fill-rule:evenodd;clip-rule:evenodd;fill:none;stroke:#FFFFFF;stroke-width:2.4001;stroke-linecap:round;stroke-linejoin:round;stroke-miterlimit:22.9256;stroke-dasharray:2.4001,12.0005;" x1="125.6" y1="93.2" x2="218.8" y2="46.6"/>
			
				<line style="fill-rule:evenodd;clip-rule:evenodd;fill:none;stroke:#FFFFFF;stroke-width:2.4001;stroke-linecap:round;stroke-linejoin:round;stroke-miterlimit:22.9256;stroke-dasharray:2.4001,12.0005;" x1="125.6" y1="93.2" x2="199.2" y2="166.9"/>
			
				<line style="fill-rule:evenodd;clip-rule:evenodd;fill:none;stroke:#FFFFFF;stroke-width:2.4001;stroke-linecap:round;stroke-linejoin:round;stroke-miterlimit:22.9256;stroke-dasharray:2.4001,12.0005;" x1="125.6" y1="93.2" x2="53.7" y2="168.5"/>
			
				<line style="fill-rule:evenodd;clip-rule:evenodd;fill:none;stroke:#FFFFFF;stroke-width:2.4001;stroke-linecap:round;stroke-linejoin:round;stroke-miterlimit:22.9256;stroke-dasharray:2.4001,12.0005;" x1="125.6" y1="93.2" x2="92.1" y2="24.6"/>
		</g>
		<g>
			<g>
				<g>
					<path style="fill-rule:evenodd;clip-rule:evenodd;fill:#FFAD00;" d="M24.2,28.9h37.1c0.8,0,1.4,0.6,1.4,1.4v23.5
						c0,0.8-0.6,1.4-1.4,1.4H24.2c-0.8,0-1.4-0.6-1.4-1.4V30.2C22.9,29.5,23.5,28.9,24.2,28.9z"/>
					<rect x="24.9" y="31.6" style="fill-rule:evenodd;clip-rule:evenodd;fill:#FFFCF9;" width="35.8" height="19.2"/>
					<circle style="fill-rule:evenodd;clip-rule:evenodd;fill:#397C81;" cx="42.8" cy="30.3" r="0.5"/>
					<rect x="42" y="52" style="fill-rule:evenodd;clip-rule:evenodd;fill:#397C81;" width="1.7" height="1.7"/>
					<polygon style="fill-rule:evenodd;clip-rule:evenodd;fill:#FFAD00;" points="22.9,55.1 62.8,55.1 69.7,58 15.9,58 					"/>
					<path style="fill-rule:evenodd;clip-rule:evenodd;fill:#FFAD00;" d="M15.9,58h53.8v0.8c0,0.5-0.4,1-1,1H16.9c-0.5,0-1-0.4-1-1
						V58z"/>
					<rect x="37.4" y="58.6" style="fill-rule:evenodd;clip-rule:evenodd;fill:#FFD06E;" width="10.9" height="0.7"/>
				</g>
				<g>
					<path style="fill-rule:evenodd;clip-rule:evenodd;fill:#FFD06E;" d="M23.8,55.3c1.2,0,2.5,0,3.7,0c-0.2,0.1-0.4,0.2-0.6,0.3
						c-1.3,0-2.6,0-3.9,0C23.4,55.5,23.6,55.4,23.8,55.3z"/>
					<path style="fill-rule:evenodd;clip-rule:evenodd;fill:#FFD06E;" d="M30.7,55.3c1.2,0,2.5,0,3.7,0c-0.1,0.1-0.2,0.2-0.3,0.3
						c-1.3,0-2.6,0-3.9,0C30.4,55.5,30.5,55.4,30.7,55.3z"/>
					<path style="fill-rule:evenodd;clip-rule:evenodd;fill:#FFD06E;" d="M37.5,55.3c1.2,0,2.5,0,3.7,0c0,0.1,0,0.2-0.1,0.3
						c-1.3,0-2.6,0-3.9,0C37.4,55.5,37.4,55.4,37.5,55.3z"/>
					<path style="fill-rule:evenodd;clip-rule:evenodd;fill:#FFD06E;" d="M44.3,55.3c1.2,0,2.5,0,3.7,0c0.1,0.1,0.1,0.2,0.2,0.3
						c-1.3,0-2.6,0-3.9,0C44.4,55.5,44.4,55.4,44.3,55.3z"/>
					<path style="fill-rule:evenodd;clip-rule:evenodd;fill:#FFD06E;" d="M51.2,55.3c1.2,0,2.5,0,3.7,0c0.2,0.1,0.3,0.2,0.5,0.3
						c-1.3,0-2.6,0-3.9,0C51.4,55.5,51.3,55.4,51.2,55.3z"/>
					<path style="fill-rule:evenodd;clip-rule:evenodd;fill:#FFD06E;" d="M58,55.3c1.2,0,2.5,0,3.7,0c0.2,0.1,0.5,0.2,0.7,0.3
						c-1.3,0-2.6,0-3.9,0C58.4,55.5,58.2,55.4,58,55.3z"/>
					<path style="fill-rule:evenodd;clip-rule:evenodd;fill:#FFD06E;" d="M22.6,55.9c1.3,0,2.6,0,4,0c-0.2,0.1-0.4,0.2-0.6,0.3
						c-1.4,0-2.7,0-4.1,0C22.2,56.1,22.4,56,22.6,55.9z"/>
					<path style="fill-rule:evenodd;clip-rule:evenodd;fill:#FFD06E;" d="M29.9,55.9c1.3,0,2.6,0,4,0c-0.1,0.1-0.2,0.2-0.3,0.3
						c-1.4,0-2.7,0-4.1,0C29.6,56.1,29.8,56,29.9,55.9z"/>
					<path style="fill-rule:evenodd;clip-rule:evenodd;fill:#FFD06E;" d="M37.2,55.9c1.3,0,2.6,0,4,0c0,0.1,0,0.2-0.1,0.3
						c-1.4,0-2.7,0-4.1,0C37,56.1,37.1,56,37.2,55.9z"/>
					<path style="fill-rule:evenodd;clip-rule:evenodd;fill:#FFD06E;" d="M44.5,55.9c1.3,0,2.6,0,4,0c0.1,0.1,0.1,0.2,0.2,0.3
						c-1.4,0-2.7,0-4.1,0C44.5,56.1,44.5,56,44.5,55.9z"/>
					<path style="fill-rule:evenodd;clip-rule:evenodd;fill:#FFD06E;" d="M51.7,55.9c1.3,0,2.6,0,4,0c0.1,0.1,0.3,0.2,0.5,0.3
						c-1.4,0-2.7,0-4.1,0C51.9,56.1,51.8,56,51.7,55.9z"/>
					<path style="fill-rule:evenodd;clip-rule:evenodd;fill:#FFD06E;" d="M59,55.9c1.3,0,2.6,0,4,0c0.2,0.1,0.5,0.2,0.7,0.3
						c-1.4,0-2.7,0-4.1,0C59.4,56.1,59.2,56,59,55.9z"/>
					<path style="fill-rule:evenodd;clip-rule:evenodd;fill:#FFD06E;" d="M21.4,56.5c1.4,0,2.8,0,4.2,0c-0.2,0.1-0.4,0.2-0.6,0.3
						c-1.4,0-2.9,0-4.3,0C21,56.7,21.2,56.6,21.4,56.5z"/>
					<path style="fill-rule:evenodd;clip-rule:evenodd;fill:#FFD06E;" d="M29.1,56.5c1.4,0,2.8,0,4.2,0c-0.1,0.1-0.2,0.2-0.3,0.3
						c-1.4,0-2.9,0-4.3,0C28.8,56.7,29,56.6,29.1,56.5z"/>
					<path style="fill-rule:evenodd;clip-rule:evenodd;fill:#FFD06E;" d="M36.8,56.5c1.4,0,2.8,0,4.2,0c0,0.1,0,0.2-0.1,0.3
						c-1.4,0-2.9,0-4.3,0C36.7,56.7,36.8,56.6,36.8,56.5z"/>
					<path style="fill-rule:evenodd;clip-rule:evenodd;fill:#FFD06E;" d="M44.6,56.5c1.4,0,2.8,0,4.2,0c0.1,0.1,0.1,0.2,0.2,0.3
						c-1.4,0-2.9,0-4.3,0C44.6,56.7,44.6,56.6,44.6,56.5z"/>
					<path style="fill-rule:evenodd;clip-rule:evenodd;fill:#FFD06E;" d="M52.3,56.5c1.4,0,2.8,0,4.2,0c0.1,0.1,0.3,0.2,0.4,0.3
						c-1.4,0-2.9,0-4.3,0C52.5,56.7,52.4,56.6,52.3,56.5z"/>
					<path style="fill-rule:evenodd;clip-rule:evenodd;fill:#FFD06E;" d="M60,56.5c1.4,0,2.8,0,4.2,0c0.2,0.1,0.5,0.2,0.7,0.3
						c-1.4,0-2.9,0-4.3,0C60.4,56.7,60.2,56.6,60,56.5z"/>
					<path style="fill-rule:evenodd;clip-rule:evenodd;fill:#FFD06E;" d="M20.2,57.1c7.5,0,15.1,0,22.6,0c7.5,0,15.1,0,22.6,0
						c0.2,0.1,0.5,0.2,0.7,0.3c-7.8,0-15.5,0-23.3,0c-7.8,0-15.5,0-23.3,0C19.7,57.3,20,57.2,20.2,57.1z"/>
				</g>
			</g>
			<g>
				<rect x="27.1" y="47.6" style="fill-rule:evenodd;clip-rule:evenodd;fill:#FF4938;" width="14.8" height="0.6"/>
				<rect x="39.2" y="35" style="fill-rule:evenodd;clip-rule:evenodd;fill:#FF4938;" width="2.6" height="12.7"/>
				<rect x="36.2" y="39.8" style="fill-rule:evenodd;clip-rule:evenodd;fill:#FF4938;" width="2.6" height="7.9"/>
				<rect x="33.2" y="42.4" style="fill-rule:evenodd;clip-rule:evenodd;fill:#FF4938;" width="2.6" height="5.2"/>
				<rect x="30.1" y="40" style="fill-rule:evenodd;clip-rule:evenodd;fill:#FF4938;" width="2.6" height="7.7"/>
				<rect x="27.1" y="42.2" style="fill-rule:evenodd;clip-rule:evenodd;fill:#FF4938;" width="2.6" height="5.5"/>
			</g>
			<g>
				<path style="fill:#FFAD00;" d="M52.3,34.3c0.1,0,0.3,0,0.4,0l0.2-0.7l1.4,0.4l-0.2,0.7c0.5,0.3,0.9,0.6,1.3,1l0.6-0.3l0.7,1.3
					l-0.6,0.3c0.2,0.5,0.2,1.1,0.2,1.6l0.7,0.2l-0.4,1.4l-0.7-0.2c-0.3,0.5-0.6,0.9-1,1.3l0.3,0.6l-1.3,0.7l-0.3-0.6
					c-0.4,0.1-0.8,0.2-1.2,0.2v-1c1.3,0,2.4-0.8,2.8-2.1c0.5-1.5-0.4-3.2-2-3.7c-0.3-0.1-0.6-0.1-0.9-0.1V34.3z M49.9,35.2l-0.3-0.6
					l1.3-0.7l0.3,0.6c0.4-0.1,0.8-0.2,1.2-0.2v1c-1.3,0-2.4,0.8-2.8,2.1c-0.5,1.5,0.4,3.2,2,3.7l0,0c0.3,0.1,0.6,0.1,0.9,0.1v1
					c-0.1,0-0.3,0-0.4,0l-0.2,0.7l-1.4-0.4l0.2-0.7c-0.5-0.3-0.9-0.6-1.3-1l-0.6,0.3L48,39.8l0.6-0.3c-0.2-0.5-0.2-1.1-0.2-1.6
					l-0.7-0.2l0.4-1.4l0.7,0.2C49.1,36,49.4,35.5,49.9,35.2z"/>
				<path style="fill:#0079B2;" d="M49.3,45.4l0.4,0.3l-0.7,0.9l-0.4-0.3c-0.3,0.2-0.5,0.3-0.8,0.4l0,0.5l-0.9,0.1V46
					c0.5,0,1-0.2,1.4-0.6c0.6-0.8,0.5-1.9-0.2-2.6l0,0c-0.2-0.2-0.4-0.3-0.6-0.3c-0.2-0.1-0.4-0.1-0.5-0.1v-1.3l0.3,0l0,0.5
					c0.3,0,0.6,0.1,0.9,0.3l0.3-0.4l0.9,0.7L49,42.5c0.2,0.3,0.3,0.5,0.4,0.8l0.5,0l0.1,1.2l-0.5,0C49.5,44.9,49.4,45.2,49.3,45.4z
					 M46.9,47.3l-0.3,0l0-0.5c-0.3,0-0.6-0.1-0.9-0.3l-0.3,0.4l-0.9-0.7l0.3-0.4c-0.2-0.3-0.3-0.5-0.4-0.8l-0.5,0l-0.1-1.2l0.5,0
					c0-0.3,0.1-0.6,0.3-0.9l-0.4-0.3l0.7-0.9l0.4,0.3c0.3-0.2,0.5-0.3,0.8-0.4l0-0.5l0.9-0.1v1.3c-0.5,0-1,0.2-1.4,0.6
					c-0.6,0.8-0.5,1.9,0.2,2.6c0.2,0.2,0.4,0.3,0.6,0.3c0.2,0.1,0.4,0.1,0.5,0.1V47.3z"/>
				<path style="fill:#85BBEA;" d="M55.1,47.2l0.3,0.3l-0.7,0.8L54.5,48c-0.2,0.2-0.5,0.3-0.7,0.4l0,0.4L53,48.8v-1.2
					c0.5,0,0.9-0.2,1.2-0.6c0.6-0.7,0.5-1.7-0.2-2.2l0,0c-0.2-0.1-0.4-0.2-0.6-0.3c-0.2,0-0.3-0.1-0.5-0.1v-1.2l0.3,0l0,0.4
					c0.3,0,0.5,0.1,0.8,0.3l0.3-0.3l0.8,0.7l-0.3,0.3c0.2,0.2,0.3,0.5,0.4,0.7l0.4,0l0.1,1l-0.4,0C55.3,46.7,55.3,46.9,55.1,47.2z
					 M53,48.8l-0.3,0l0-0.4c-0.3,0-0.5-0.1-0.8-0.3l-0.3,0.3l-0.8-0.7l0.3-0.3c-0.2-0.2-0.3-0.5-0.4-0.7l-0.4,0l-0.1-1l0.4,0
					c0-0.3,0.1-0.5,0.3-0.8l-0.3-0.3l0.7-0.8l0.3,0.3c0.2-0.2,0.5-0.3,0.7-0.4l0-0.4l0.7-0.1v1.2c-0.5,0-0.9,0.2-1.2,0.6
					c-0.6,0.7-0.5,1.7,0.2,2.2c0.2,0.1,0.4,0.2,0.6,0.3c0.2,0,0.3,0.1,0.5,0.1V48.8z"/>
			</g>
		</g>
		<g>
			<g>
				<path style="fill-rule:evenodd;clip-rule:evenodd;fill:#FFAD00;" d="M171.4,11.4H159c-2.4,0-4.4,2-4.4,4.4v21.3
					c0,2.4,2,4.4,4.4,4.4h12.4c2.4,0,4.4-2,4.4-4.4V15.7C175.7,13.3,173.8,11.4,171.4,11.4z"/>
				<path style="fill-rule:evenodd;clip-rule:evenodd;fill:#FFAD00;" d="M174.2,13.9h-18c0,0-0.1,0-0.1,0.1v24.6c0,0,0,0.1,0.1,0.1
					h18c0,0,0.1,0,0.1-0.1L174.2,13.9C174.2,13.9,174.2,13.9,174.2,13.9z"/>
				<path style="fill-rule:evenodd;clip-rule:evenodd;fill:#FFAD00;" d="M167.5,12.1h-4.6c-0.1,0-0.2,0.1-0.2,0.2v0
					c0,0.1,0.1,0.2,0.2,0.2h4.6c0.1,0,0.2-0.1,0.2-0.2v0C167.7,12.2,167.6,12.1,167.5,12.1z"/>
				<circle style="fill-rule:evenodd;clip-rule:evenodd;fill:#FFAD00;" cx="165.2" cy="40" r="0.8"/>
			</g>
			<g>
				<rect x="156.2" y="13.9" style="fill-rule:evenodd;clip-rule:evenodd;fill:#FFFFFF;" width="18.1" height="24.8"/>
				<rect x="156.2" y="13.9" style="fill-rule:evenodd;clip-rule:evenodd;fill:#90BCE2;" width="18.1" height="1.2"/>
				<rect x="161" y="15.8" style="fill-rule:evenodd;clip-rule:evenodd;fill:#ACD85B;" width="8.4" height="1.8"/>
				<rect x="156.2" y="19.8" style="fill-rule:evenodd;clip-rule:evenodd;fill:#5895CB;" width="18.1" height="5"/>
				<rect x="159.6" y="18.4" style="fill-rule:evenodd;clip-rule:evenodd;fill:#90BCE2;" width="11.1" height="0.8"/>
				<rect x="157.2" y="25.9" style="fill-rule:evenodd;clip-rule:evenodd;fill:#FFAD00;" width="4.5" height="4.1"/>
				<rect x="162.9" y="25.9" style="fill-rule:evenodd;clip-rule:evenodd;fill:#FF4938;" width="4.5" height="4.1"/>
				<rect x="168.6" y="25.9" style="fill-rule:evenodd;clip-rule:evenodd;fill:#94B950;" width="4.5" height="4.1"/>
				<rect x="156.2" y="36.4" style="fill-rule:evenodd;clip-rule:evenodd;fill:#90BCE2;" width="18.1" height="2.2"/>
				<rect x="157.2" y="30.5" style="fill-rule:evenodd;clip-rule:evenodd;fill:#90BCE2;" width="4.5" height="0.8"/>
				<rect x="157.2" y="31.8" style="fill-rule:evenodd;clip-rule:evenodd;fill:#90BCE2;" width="4.5" height="0.8"/>
				<rect x="157.2" y="33.1" style="fill-rule:evenodd;clip-rule:evenodd;fill:#90BCE2;" width="4.5" height="0.8"/>
				<rect x="157.2" y="34.5" style="fill-rule:evenodd;clip-rule:evenodd;fill:#90BCE2;" width="2.9" height="0.8"/>
				<rect x="162.9" y="30.5" style="fill-rule:evenodd;clip-rule:evenodd;fill:#90BCE2;" width="4.5" height="0.8"/>
				<rect x="162.9" y="31.8" style="fill-rule:evenodd;clip-rule:evenodd;fill:#90BCE2;" width="4.5" height="0.8"/>
				<rect x="162.9" y="33.1" style="fill-rule:evenodd;clip-rule:evenodd;fill:#90BCE2;" width="4.5" height="0.8"/>
				<rect x="162.9" y="34.5" style="fill-rule:evenodd;clip-rule:evenodd;fill:#90BCE2;" width="2.9" height="0.8"/>
				<rect x="168.6" y="30.5" style="fill-rule:evenodd;clip-rule:evenodd;fill:#90BCE2;" width="4.5" height="0.8"/>
				<rect x="168.6" y="31.8" style="fill-rule:evenodd;clip-rule:evenodd;fill:#90BCE2;" width="4.5" height="0.8"/>
				<rect x="168.6" y="33.1" style="fill-rule:evenodd;clip-rule:evenodd;fill:#90BCE2;" width="4.5" height="0.8"/>
				<rect x="168.6" y="34.5" style="fill-rule:evenodd;clip-rule:evenodd;fill:#90BCE2;" width="2.9" height="0.8"/>
			</g>
			<path style="fill:#FFFFFF;" d="M173,21.6c-0.1-0.1,0-0.2,0-0.2c0.1-0.1,0.2,0,0.2,0l0.4,0.5c0,0,0,0,0,0l0,0l0,0l0,0l0,0l0,0l0,0
				c0,0,0,0,0,0l0,0c0,0,0,0,0,0l0,0c0,0,0,0,0,0v0v0v0c0,0,0,0,0,0l0,0c0,0,0,0,0,0l0,0c0,0,0,0,0,0l0,0l0,0l0,0l0,0l0,0l0,0
				c0,0,0,0,0,0l-0.4,0.5c-0.1,0.1-0.1,0.1-0.2,0c-0.1-0.1-0.1-0.1,0-0.2l0.3-0.4L173,21.6z"/>
			<path style="fill:#FFFFFF;" d="M157.1,21.4c0.1-0.1,0.1-0.1,0.2,0c0.1,0.1,0.1,0.1,0,0.2L157,22l0.3,0.4c0.1,0.1,0,0.2,0,0.2
				c-0.1,0.1-0.2,0-0.2,0l-0.4-0.5c0,0,0,0,0,0l0,0l0,0l0,0l0,0l0,0l0,0c0,0,0,0,0,0l0,0c0,0,0,0,0,0l0,0c0,0,0,0,0,0l0,0v0l0,0
				c0,0,0,0,0,0l0,0c0,0,0,0,0,0l0,0c0,0,0,0,0,0l0,0l0,0l0,0l0,0l0,0l0,0c0,0,0,0,0,0L157.1,21.4z"/>
		</g>
		<g>
			<g>
				<path style="fill-rule:evenodd;clip-rule:evenodd;fill:#FFFFFF;" d="M226.8,31.8h0.2c2.2,0,4,1.8,4,4V51c0,2.2-1.8,4-4,4h-0.2
					V37.5l0,0c0.8,0,1.5-0.7,1.5-1.5c0-0.8-0.7-1.5-1.5-1.5l0,0V31.8z M212.1,31.8h14.8v2.7c-0.8,0-1.5,0.7-1.5,1.5
					c0,0.8,0.7,1.5,1.5,1.5V55h-14.8V37.5c0.8,0,1.5-0.7,1.5-1.5c0-0.8-0.7-1.5-1.5-1.5V31.8z M211.9,31.8h0.2v2.7l0,0
					c-0.8,0-1.5,0.7-1.5,1.5c0,0.8,0.7,1.5,1.5,1.5l0,0V55h-0.2c-2.2,0-4-1.8-4-4V35.8C207.8,33.6,209.7,31.8,211.9,31.8z"/>
				<path style="fill-rule:evenodd;clip-rule:evenodd;fill:#FFAD00;" d="M226.8,31.8h0.2c2.2,0,4,1.8,4,4v2.8h-4.2v-1.1l0,0
					c0.8,0,1.5-0.7,1.5-1.5c0-0.8-0.7-1.5-1.5-1.5l0,0V31.8z M212.1,31.8h14.8v2.7c-0.8,0-1.5,0.7-1.5,1.5c0,0.8,0.7,1.5,1.5,1.5
					v1.1h-14.8v-1.1c0.8,0,1.5-0.7,1.5-1.5c0-0.8-0.7-1.5-1.5-1.5V31.8z M211.9,31.8h0.2v2.7l0,0c-0.8,0-1.5,0.7-1.5,1.5
					c0,0.8,0.7,1.5,1.5,1.5l0,0v1.1h-4.2v-2.8C207.8,33.6,209.7,31.8,211.9,31.8z"/>
				<path style="fill-rule:evenodd;clip-rule:evenodd;fill:#FFFFFF;" d="M212.1,30.7L212.1,30.7c0.3,0,0.6,0.3,0.6,0.6v4.1
					c0,0.3-0.3,0.6-0.6,0.6l0,0c-0.3,0-0.6-0.3-0.6-0.6v-4.1C211.5,30.9,211.7,30.7,212.1,30.7z"/>
				<path style="fill-rule:evenodd;clip-rule:evenodd;fill:#FFFFFF;" d="M226.8,30.7L226.8,30.7c0.3,0,0.6,0.3,0.6,0.6v4.1
					c0,0.3-0.3,0.6-0.6,0.6l0,0c-0.3,0-0.6-0.3-0.6-0.6v-4.1C226.2,30.9,226.5,30.7,226.8,30.7z"/>
			</g>
			<text transform="matrix(1 0 0 1 210.6894 52.3298)" style="fill:#FF4938; font-family:'Arial-BoldMT'; font-size:15.2468px;">15</text>
		</g>
		<g>
			<circle style="fill-rule:evenodd;clip-rule:evenodd;fill:#FF4938;" cx="49.5" cy="102.7" r="11.8"/>
			<g>
				<path style="fill-rule:evenodd;clip-rule:evenodd;fill:#FFFFFF;" d="M49.5,98.3c2.6,0,4.7,2.1,4.7,4.7c0,1.7-0.9,3.2-2.3,4
					l-0.5,3.9h-4l-0.5-3.9c-1.4-0.8-2.3-2.3-2.3-4C44.8,100.4,46.9,98.3,49.5,98.3z"/>
				<g>
					<path style="fill:#5895CB;" d="M48.7,109c0,0.1,0,0.2-0.1,0.2c-0.1,0-0.2,0-0.2-0.1l-0.8-3.3v-1.5l0,0c0,0,0,0,0,0v0
						c0.1,0.1,0.1,0.1,0.2,0.2c0.5,0.4,1.1,0.6,1.7,0.6c0.6,0,1.2-0.2,1.6-0.6c0.1-0.1,0.1-0.1,0.2-0.2c0.1-0.1,0.2-0.1,0.3,0
						c0.1,0,0.1,0.1,0.1,0.2l-1.2,4.7c0,0.1-0.1,0.2-0.2,0.1c-0.1,0-0.2-0.1-0.1-0.2l1-4.1c-0.5,0.3-1.1,0.5-1.6,0.5
						c-0.6,0-1.2-0.2-1.7-0.5L48.7,109z M47.5,105.8l-0.3-1.4c0-0.1,0-0.2,0.1-0.2c0.1,0,0.1,0,0.2,0.1l0,0v0c0,0,0,0,0,0l0,0V105.8
						z"/>
				</g>
				<path style="fill-rule:evenodd;clip-rule:evenodd;fill:#FFAD00;" d="M46.8,108.6h5.4l-0.3,2.5c0,0.5-0.1,0.7-0.7,0.7h-3.5
					c-0.6,0-0.6-0.2-0.7-0.7L46.8,108.6z"/>
				<g>
					<path style="fill:#FFFFFF;" d="M52.4,94.3c0-0.1,0.2-0.2,0.3-0.1c0.1,0,0.2,0.2,0.1,0.3l-1,2.9c0,0.1-0.2,0.2-0.3,0.1
						c-0.1,0-0.2-0.2-0.1-0.3L52.4,94.3z"/>
					<path style="fill:#FFFFFF;" d="M55.2,95.8c0.1-0.1,0.2-0.1,0.3,0c0.1,0.1,0.1,0.2,0,0.3l-2,2.3c-0.1,0.1-0.2,0.1-0.3,0
						c-0.1-0.1-0.1-0.2,0-0.3L55.2,95.8z"/>
					<path style="fill:#FFFFFF;" d="M57.3,98.2c0.1-0.1,0.3,0,0.3,0.1c0.1,0.1,0,0.3-0.1,0.3l-2.6,1.5c-0.1,0.1-0.3,0-0.3-0.1
						c-0.1-0.1,0-0.3,0.1-0.3L57.3,98.2z"/>
					<path style="fill:#FFFFFF;" d="M58.4,101.1c0.1,0,0.3,0.1,0.3,0.2c0,0.1-0.1,0.3-0.2,0.3l-3,0.5c-0.1,0-0.3-0.1-0.3-0.2
						c0-0.1,0.1-0.3,0.2-0.3L58.4,101.1z"/>
					<path style="fill:#FFFFFF;" d="M49.3,93.8c0-0.1,0.1-0.2,0.2-0.2c0.1,0,0.2,0.1,0.2,0.2v3c0,0.1-0.1,0.2-0.2,0.2
						c-0.1,0-0.2-0.1-0.2-0.2V93.8z"/>
					<path style="fill:#FFFFFF;" d="M46.2,94.5c0-0.1,0-0.3,0.1-0.3c0.1,0,0.3,0,0.3,0.1l1,2.9c0,0.1,0,0.3-0.1,0.3
						c-0.1,0-0.3,0-0.3-0.1L46.2,94.5z"/>
					<path style="fill:#FFFFFF;" d="M43.5,96.1c-0.1-0.1-0.1-0.2,0-0.3c0.1-0.1,0.2-0.1,0.3,0l2,2.3c0.1,0.1,0.1,0.2,0,0.3
						c-0.1,0.1-0.2,0.1-0.3,0L43.5,96.1z"/>
					<path style="fill:#FFFFFF;" d="M41.5,98.6c-0.1-0.1-0.2-0.2-0.1-0.3c0.1-0.1,0.2-0.2,0.3-0.1l2.6,1.5c0.1,0.1,0.2,0.2,0.1,0.3
						c-0.1,0.1-0.2,0.2-0.3,0.1L41.5,98.6z"/>
					<path style="fill:#FFFFFF;" d="M40.5,101.6c-0.1,0-0.2-0.1-0.2-0.3c0-0.1,0.1-0.2,0.3-0.2l3,0.5c0.1,0,0.2,0.1,0.2,0.3
						c0,0.1-0.1,0.2-0.3,0.2L40.5,101.6z"/>
				</g>
			</g>
		</g>
		<g>
			<path style="fill-rule:evenodd;clip-rule:evenodd;fill:#B2CD55;" d="M117.6,26.5c5.4,0,9.8-4.4,9.8-9.8c0-5.4-4.4-9.8-9.8-9.8
				c-5.4,0-9.8,4.4-9.8,9.8C107.8,22.2,112.2,26.5,117.6,26.5z"/>
			<g>
				<path style="fill-rule:evenodd;clip-rule:evenodd;fill:#FFFFFF;" d="M123.6,17.7h0.5c1.5,0,1.5-1.6,0-1.7l-0.5,0v0.1h0
					c0.4,0,0.7,0.3,0.7,0.7c0,0.4-0.3,0.7-0.7,0.7h0V17.7z M111.6,17.7h12v-0.1c-0.4,0-0.7-0.3-0.7-0.7c0-0.4,0.3-0.7,0.7-0.7V16
					c-4,0-8,0-12,0v0.1c0.4,0,0.7,0.3,0.7,0.7c0,0.4-0.3,0.7-0.7,0.7V17.7z M111.1,17.7h0.5v-0.1l0,0c-0.4,0-0.7-0.3-0.7-0.7
					c0-0.4,0.3-0.7,0.7-0.7l0,0V16l-0.5,0C109.6,16,109.7,17.7,111.1,17.7z"/>
				<circle style="fill-rule:evenodd;clip-rule:evenodd;fill:#FFFFFF;" cx="118.5" cy="11.1" r="0.7"/>
				<path style="fill-rule:evenodd;clip-rule:evenodd;fill:#FFFFFF;" d="M123.9,16.6l-4.7-5.3c-0.1-0.1-0.3-0.1-0.4,0l0,0
					c-0.1,0.1-0.1,0.3,0,0.4l4.7,5.3c0.1,0.1,0.3,0.1,0.4,0l0,0C124,17,124,16.8,123.9,16.6z"/>
				<circle style="fill-rule:evenodd;clip-rule:evenodd;fill:#FFFFFF;" cx="116.7" cy="11.1" r="0.7"/>
				<path style="fill-rule:evenodd;clip-rule:evenodd;fill:#FFFFFF;" d="M111.4,16.6l5.1-5.8c0.1-0.1,0.3-0.1,0.4,0l0,0
					c0.1,0.1,0.1,0.3,0,0.4l-5.1,5.8c-0.1,0.1-0.3,0.1-0.4,0l0,0C111.3,17,111.2,16.8,111.4,16.6z"/>
				<path style="fill-rule:evenodd;clip-rule:evenodd;fill:#FFFFFF;" d="M121.6,18.2h2.4l-0.6,3.6c-0.1,0.8-0.5,1.4-1.7,1.4h-0.1
					v-1.1c0.2-0.1,0.3-0.3,0.3-0.5c0.1-0.4,0.1-0.8,0.2-1.2c0.1-0.4,0.1-0.8,0.2-1.2c0-0.3-0.2-0.5-0.5-0.5l0,0c-0.1,0-0.1,0-0.2,0
					V18.2z M119.6,18.2h2v0.5c-0.2,0.1-0.4,0.3-0.4,0.5c0,0.4-0.1,0.8-0.1,1.2c0,0.4-0.1,0.8-0.1,1.2c0,0.3,0.2,0.5,0.4,0.5l0,0
					c0.1,0,0.2,0,0.2-0.1v1.1h-2v-1.1c0.2-0.1,0.4-0.3,0.4-0.5c0-0.4,0.1-0.8,0.1-1.2c0-0.4,0.1-0.8,0.1-1.2c0-0.3-0.2-0.5-0.5-0.5
					l0,0c0,0-0.1,0-0.1,0V18.2z M117.6,18.2h2v0.5c-0.3,0-0.5,0.2-0.5,0.5c0,0.4,0,0.8-0.1,1.2c0,0.4,0,0.8-0.1,1.2
					c0,0.3,0.2,0.5,0.5,0.5l0,0c0,0,0.1,0,0.1,0v1.1h-2v-1c0.3,0,0.5-0.2,0.5-0.5c0-0.4,0-0.8,0-1.2c0-0.4,0-0.8,0-1.2
					c0-0.3-0.2-0.5-0.5-0.5l0,0h0V18.2z M115.6,18.2h2v0.5c-0.3,0-0.5,0.2-0.5,0.5c0,0.4,0,0.8,0,1.2c0,0.4,0,0.8,0,1.2
					c0,0.3,0.2,0.5,0.5,0.5l0,0h0v1h-2v-1.1c0,0,0.1,0,0.1,0l0,0c0.3,0,0.5-0.2,0.5-0.5c0-0.4,0-0.8-0.1-1.2c0-0.4,0-0.8-0.1-1.2
					c0-0.3-0.2-0.5-0.5-0.5V18.2z M113.6,18.2h2v0.5c0,0-0.1,0-0.1,0l0,0c-0.3,0-0.5,0.2-0.5,0.5c0,0.4,0.1,0.8,0.1,1.2
					c0,0.4,0.1,0.8,0.1,1.2c0,0.2,0.2,0.4,0.4,0.5v1.1h-2v-1.1c0.1,0,0.2,0.1,0.2,0.1l0,0c0.3,0,0.5-0.2,0.4-0.5
					c0-0.4-0.1-0.8-0.1-1.2c0-0.4-0.1-0.8-0.1-1.2c0-0.2-0.2-0.4-0.4-0.5V18.2z M113.6,23.2c-1.2,0-1.6-0.6-1.7-1.4l-0.6-3.6h2.4
					v0.5c-0.1,0-0.1,0-0.2,0l0,0c-0.3,0-0.5,0.2-0.5,0.5c0.1,0.4,0.1,0.8,0.2,1.2c0.1,0.4,0.1,0.8,0.2,1.2c0,0.2,0.2,0.4,0.3,0.5
					L113.6,23.2L113.6,23.2z"/>
			</g>
		</g>
		<g>
			<circle style="fill-rule:evenodd;clip-rule:evenodd;fill:#FF4938;" cx="92.2" cy="163.1" r="8.8"/>
			<polygon style="fill-rule:evenodd;clip-rule:evenodd;fill:#FFFFFF;" points="88.7,157.9 97.5,163.1 88.7,168.3 			"/>
		</g>
		<g>
			<path style="fill-rule:evenodd;clip-rule:evenodd;fill:#FFAD00;" d="M196.7,115.1c5.5,0,9.9-4.5,9.9-9.9c0-5.5-4.5-9.9-9.9-9.9
				c-5.5,0-9.9,4.5-9.9,9.9C186.7,110.6,191.2,115.1,196.7,115.1z"/>
			<g>
				<path style="fill-rule:evenodd;clip-rule:evenodd;fill:#FFFFFF;" d="M193.5,110.7c1.3,0,2.4-1.1,2.4-2.4c0-1.3-1.1-2.4-2.4-2.4
					c-1.3,0-2.4,1.1-2.4,2.4C191.1,109.6,192.2,110.7,193.5,110.7z"/>
				<path style="fill-rule:evenodd;clip-rule:evenodd;fill:#FFFFFF;" d="M196.2,105.5c0.7,0.7,1.2,1.7,1.2,2.9h1.6
					c0-2.1-1.1-3.9-2.8-4.8V105.5L196.2,105.5z M196.2,101.7V100c3.5,1.2,6,4.5,6,8.3h-1.5C200.7,105.3,198.9,102.7,196.2,101.7z
					 M193.5,104.3c1.1,0,2.1,0.4,2.8,1.1v-2c-0.8-0.5-1.8-0.7-2.8-0.7V104.3L193.5,104.3z M196.2,100v1.7c-0.9-0.4-1.8-0.6-2.8-0.6
					v-1.5C194.4,99.5,195.4,99.7,196.2,100z"/>
			</g>
		</g>
		<g>
			<path style="fill:#C3E0F4;" d="M88.7,46.3l-2.5-2.5c-0.2-0.2-0.4-0.4-0.4-0.4c0,0-1-1.9-2.5-2.9s-1.1-1.7-1.1-2.5
				c0-0.7-0.8-0.8-1.4-0.1c-0.2,0.3-0.4,0.8-0.4,1.1c-0.1,1,0.5,1.5,0.8,1.9c0.2,0.2,0.2,0.7,0.1,1.2h-3.8c-0.7,0-1.1,0.6-0.9,1.3
				l1.9,5.3c0.1,0.3,0.5,0.5,0.8,0.5h4.5c0.3,0,0.8,0.2,1,0.4l0.2,0.2c0.2,0.2,0.6,0.2,0.8,0l2.8-2.8C89,46.9,89,46.6,88.7,46.3z"/>
			
				<rect x="87.5" y="47" transform="matrix(0.7072 0.707 -0.707 0.7072 60.6719 -47.8005)" style="fill:#C3E0F4;" width="1.1" height="4.7"/>
		</g>
		<path style="fill:#C3E0F4;" d="M10,84.9c0.4-1,3.3-0.8,4.3-0.4l2.5,1l5.1-5.3l1.8,0.7l-3.6,5.8l3.5,1.3l3-1.9l1.8,0.7l-3.3,3.9
			l-0.1,5L23.2,95l-0.9-3.3l-3.5-1.4L17.5,97l-1.8-0.7l-0.3-7.2l-2.5-1C12,87.7,9.7,85.9,10,84.9z"/>
		<path style="fill-rule:evenodd;clip-rule:evenodd;fill:#C3E0F4;" d="M230.6,122.7v-5.1l0,0c0.6,0,1.1-0.5,1.1-1.1
			c0-0.6-0.5-1.1-1.1-1.1l0,0V110c2.7,1.2,4.6,3.6,4.6,6.4C235.3,119.1,233.4,121.6,230.6,122.7z M230.6,110v5.4
			c-0.6,0-1.1,0.5-1.1,1.1c0,0.6,0.5,1.1,1.1,1.1v5.1c-1.1,0.5-2.3,0.7-3.6,0.7l0,0v-5.8l0,0c0.6,0,1.1-0.5,1.1-1.1
			c0-0.6-0.5-1.1-1.1-1.1l0,0v-6.1l0,0C228.3,109.2,229.5,109.5,230.6,110z M223.4,115.4c0.6,0,1.1,0.5,1.1,1.1
			c0,0.6-0.5,1.1-1.1,1.1v5.6l0.4-0.3c1,0.4,2,0.5,3.2,0.5v-5.8c-0.6,0-1.1-0.5-1.1-1.1c0-0.6,0.5-1.1,1.1-1.1v-6.1
			c-1.3,0-2.5,0.3-3.6,0.7V115.4z M223.4,115.4L223.4,115.4l0-5.4c-2.7,1.2-4.6,3.6-4.6,6.4c0,2.4,1.3,4.4,3.4,5.7L221,125l2.4-1.8
			v-5.6h0c-0.6,0-1.1-0.5-1.1-1.1C222.3,115.9,222.8,115.4,223.4,115.4z"/>
		<path style="fill:#C3E0F4;" d="M192.7,87.5h5.6V75.2h-5.6v5.1l4.1,5.7h-4.1V87.5z M189.1,87.5h3.6V86h-2.5l-0.2-0.3l-0.9-1.2v0.8
			l0.5,0.7h-0.5V87.5L189.1,87.5z M192.7,75.2h-3.6v7.9l2.8-3.9l0,0l0.8,1.1V75.2z M186.2,87.5h2.9V86H187h-0.8V87.5L186.2,87.5z
			 M189.1,75.2h-2.9v2.1c0.2,0.2,0.3,0.5,0.3,0.8s-0.1,0.6-0.3,0.8v2.4l0,0l2.1,2.9l0.8,1.1v-0.8l-0.5-0.7l0.5-0.7V75.2z
			 M181.4,87.5h4.8V86h-3.4l0,0l3.4-4.7V79c-0.2,0.3-0.6,0.5-1,0.5c-0.7,0-1.3-0.6-1.3-1.3c0-0.7,0.6-1.3,1.3-1.3l0,0
			c0.4,0,0.8,0.2,1,0.5v-2.1h-4.8V87.5z"/>
		<path style="fill:#C3E0F4;" d="M112.9,42.7c0.9,0,1.7-0.8,1.7-1.7c0,0,0,0,0,0v-5.5h5.4v3.9c-0.2-0.1-0.4-0.1-0.6-0.1
			c-0.9,0-1.7,0.8-1.7,1.7c0,0.9,0.8,1.7,1.7,1.7c0.9,0,1.7-0.8,1.7-1.7c0,0,0,0,0,0h0v-5.5v-2.1H120h-5.4h-1.1v2.1v3.9
			c-0.2-0.1-0.4-0.1-0.6-0.1c-0.9,0-1.7,0.8-1.7,1.7C111.2,41.9,112,42.7,112.9,42.7z"/>
		<path style="fill:#C3E0F4;" d="M180.2,51.5c0-0.8-0.7-1.5-1.5-1.5h-2.6v1.2h2.6c0.2,0,0.3,0.1,0.3,0.3V54h-2.9v1.2l0,0
			c0.5,0,0.9,0.4,0.9,0.9c0,0.3-0.2,0.6-0.4,0.8c0,0-0.1,0.1-0.1,0.1v1.1v0.3l0,0h-0.4v1.1h5.2V54h-1V51.5z M176.1,49.9h-2.6
			c-0.8,0-1.5,0.7-1.5,1.5V54h-1v5.5h5.2v-1.1h-0.4v-0.3V57c0,0-0.1,0-0.1-0.1c-0.2-0.2-0.4-0.4-0.4-0.8c0-0.5,0.4-0.9,0.9-0.9V54
			h-2.9l0,0v-2.6c0-0.2,0.1-0.3,0.3-0.3h2.6V49.9z"/>
		<g>
			<rect x="46.2" y="71.3" style="fill:#C3E0F4;" width="18.6" height="2.2"/>
			<path style="fill:#C3E0F4;" d="M62,83.3h2.8v-7.6H62v3.7l0,0l1.4,1.4L62,82.2V83.3z M46.2,83.3H62v-1.1l-1.4-1.4l1.4-1.4v-3.7
				H46.2V83.3L46.2,83.3z M62,79.4"/>
		</g>
		<path style="fill-rule:evenodd;clip-rule:evenodd;fill:#C3E0F4;" d="M212.7,80c1.1-0.7,2.5-0.8,3.7-0.2c1.4,0.7,2.1,2.1,2.1,3.5
			l8.1,4c1.1-0.9,2.7-1.1,4.1-0.5c1.2,0.6,2,1.8,2.1,3.1l-1.9-0.9l-1-0.5l-0.9,0.6l-0.9,0.6l0,0l0.1,1.1l0.1,1.1l1,0.5l1.9,0.9
			c-1.1,0.7-2.5,0.8-3.7,0.2c-1.4-0.7-2.1-2.1-2.1-3.5l-8.1-4c-1.1,0.9-2.7,1.1-4.1,0.5c-1.2-0.6-2-1.8-2.1-3.1l1.9,0.9l1,0.5
			l0.9-0.6l0.9-0.6v0l-0.1-1.1l-0.1-1.1l-1-0.5L212.7,80z"/>
		<path style="fill-rule:evenodd;clip-rule:evenodd;fill:#C3E0F4;" d="M71.8,136.9c1.8,0,3.2-1.4,3.2-2.5c0-1.1-0.5-1.6-1.3-2
			c0-0.2,0.1-0.4,0.1-0.5c0-1.7-1.7-3-3.8-3c-0.4,0-0.7,0-1,0.1c0-0.1,0-0.2,0-0.2c0-1.7-1.7-3-3.8-3c-2.1,0-3.8,1.4-3.8,3
			c0,0.1,0,0.1,0,0.2c-0.3,0-0.6-0.1-0.8-0.1c-2.1,0-3.8,1.4-3.8,3c0,0.2,0,0.4,0.1,0.5c-0.8,0.5-1.3,0.9-1.3,2
			c0,1.1,1.4,2.5,3.2,2.5h5.1v-4.4h-2.1l3.6-4.5l3.6,4.5h-2.1v4.4H71.8z"/>
		<path style="fill:#C3E0F4;" d="M200.5,129.5l-1.7-1.8l-1.5-2.8v2.9l0.4,0.8h-0.4v3.7h1.7v1.7l0,0h-1.7v4h2.4
			c0.4,0,0.8-0.3,0.8-0.8v-1.9V129.5z M197.3,124.9l-0.1-0.1h-5.1v1.1h4.2l1,1.9V124.9L197.3,124.9z M192.2,135.3h4.3v1.9
			c0,0.4,0.3,0.8,0.8,0.8h0v-4h-1.7v-1.7h1.7v-3.7h-5.2V135.3z M192.2,124.8h-5.1l-0.1,0.1v2.9l1-1.9l0,0h4.2V124.8L192.2,124.8z
			 M187,137.9L187,137.9c0.5,0,0.8-0.3,0.8-0.8v-1.9h4.3v-6.7H187v3.7h1.7v1.7l0,0H187V137.9z M187,124.9l-1.5,2.8l-1.7,1.8v5.3v0.4
			v1.9c0,0.4,0.3,0.8,0.8,0.8h2.4v-4h-1.7v-1.7h1.7v-3.7h-0.4l0.4-0.8V124.9z"/>
		<g>
			<rect x="37.8" y="160.1" style="fill-rule:evenodd;clip-rule:evenodd;fill:#B2CD55;" width="24.7" height="24.7"/>
			<rect x="48.6" y="160.1" style="fill-rule:evenodd;clip-rule:evenodd;fill:#FFFFFF;" width="3.1" height="24.7"/>
			<path style="fill:#FFFFFF;" d="M56.8,151.3c2-1.1,3.7-1.3,5-0.9c1.3,0.4,2.1,1.3,2.3,2.5c0.2,1.1-0.1,2.4-1,3.6
				c-1.1,1.4-3.1,2.7-6.3,3.5v-1.8c2.5-0.7,4-1.7,4.9-2.8c0.6-0.8,0.8-1.5,0.7-2.1c-0.1-0.5-0.5-0.9-1.1-1.1c-1-0.3-2.5,0-4.5,1.2
				V151.3z M56.5,167c0.1,0.5-0.1,1-0.6,1.1c-0.5,0.1-1-0.1-1.1-0.6c-0.6-2-1.9-4.3-3.7-6.5c-0.1-0.1-0.2-0.2-0.3-0.4
				c-0.2,0-0.4,0-0.6,0c-0.3,0-0.6,0-1,0l-0.1,0.2c-1.7,2.2-3.1,4.5-3.8,6.7c-0.1,0.5-0.6,0.7-1.1,0.6c-0.5-0.1-0.7-0.6-0.6-1.1
				c0.7-2.1,1.9-4.4,3.5-6.5c-1.4-0.1-2.6-0.4-3.7-0.7V158c1.4,0.4,3,0.7,4.9,0.8c0.1-0.2,0.3-0.3,0.4-0.5c-1.6-1.8-3.4-3.4-5.1-4.8
				c-0.1-0.1-0.2-0.1-0.2-0.2v-2.2c0.4,0.3,0.9,0.6,1.3,1c1.7,1.4,3.5,3,5.2,4.8c1.6-1.7,3.3-3.3,4.7-4.4c0.7-0.6,1.4-1,2.1-1.4v2
				c-0.3,0.2-0.7,0.5-1,0.7c-1.4,1.1-3,2.6-4.6,4.3c0.1,0.2,0.3,0.3,0.4,0.5c2-0.1,3.8-0.3,5.2-0.7v1.8c-1.1,0.3-2.4,0.5-3.8,0.6
				C54.7,162.8,55.9,165,56.5,167z M43.5,159.9c-3-0.8-4.9-2.2-6-3.7c-0.9-1.2-1.2-2.5-1-3.6c0.2-1.2,1-2.1,2.2-2.4
				c1.2-0.3,2.9-0.1,4.8,1.2v2.2c-1.9-1.5-3.4-1.9-4.3-1.6c-0.5,0.1-0.9,0.5-1,1.1c-0.1,0.6,0.1,1.4,0.7,2.2
				c0.8,1.1,2.3,2.2,4.6,2.9V159.9z"/>
			<rect x="37.8" y="170.9" style="fill-rule:evenodd;clip-rule:evenodd;fill:#FFFFFF;" width="24.7" height="3.1"/>
		</g>
		<g>
			<path style="fill-rule:evenodd;clip-rule:evenodd;fill:#FF4938;" d="M99.6,26.8l3.2,5.3l-6-1.2L75.5,16c-0.6-0.4-0.8-1.3-0.3-1.9
				l1.3-1.8c0.4-0.6,1.3-0.8,1.9-0.3L99.6,26.8z"/>
			<path style="fill-rule:evenodd;clip-rule:evenodd;fill:#FFFFFF;" d="M99.6,26.8l3.2,5.3l-6-1.2L77.1,17.1
				c0.8-1.6,1.7-2.9,2.8-4.1L99.6,26.8z"/>
			<path style="fill-rule:evenodd;clip-rule:evenodd;fill:#FF4938;" d="M99.6,26.8l3.2,5.3l-6-1.2L78.4,18.1c0.7-1.6,1.7-3,2.8-4.1
				L99.6,26.8z"/>
			<path style="fill-rule:evenodd;clip-rule:evenodd;fill:#FFFFFF;" d="M99.6,26.8l3.2,5.3l-6-1.2c0.3-0.7,0.7-1.5,1.2-2.2
				C98.5,28,99,27.4,99.6,26.8z"/>
			<path style="fill-rule:evenodd;clip-rule:evenodd;fill:#004E78;" d="M101.8,30.4l1.1,1.7l-2-0.4c0.1-0.2,0.2-0.5,0.4-0.7
				C101.4,30.8,101.6,30.6,101.8,30.4z"/>
		</g>
		<g>
			<polygon style="fill-rule:evenodd;clip-rule:evenodd;fill:#FBC296;" points="127.8,199.1 152.4,166 258,244.7 258,262.6 
				213.1,262.6 			"/>
			<polygon style="fill-rule:evenodd;clip-rule:evenodd;fill:#F1A16D;" points="127.8,199.1 133.5,191.4 229.1,262.6 213.1,262.6 
							"/>
		</g>
		<path style="fill-rule:evenodd;clip-rule:evenodd;fill:#497193;" d="M141.7,136.3l-14.9,2.9l1,5.8c5.8,1.3,10.8,0.3,14.9-2.9
			L141.7,136.3z"/>
		<path style="fill-rule:evenodd;clip-rule:evenodd;fill:#FBC296;" d="M181.3,215.9c5.7-10.8,11-16.9,5.9-33.1
			c-5.1-16.2-5.6-20.3-18.1-24.6c-8.8-3-20.7-11.3-22.6-16.7c-0.9-2.6-7.7,0.6-7.1,5.9c0.9,7.6-4.2,2.1-7.9,1.8
			c-3.7-0.4-11.5,2.6-11.6,8.6c-0.2,6,3,9.4,3,9.4s-6.1,0.8-6,6.1c0.1,5.3,8.8,10.5,8.8,10.5s-6.3,2.2-5.9,8
			c0.4,5.7,5.9,7.5,5.9,7.5s-2.1,3.5-0.1,9.4C127.6,214.6,165.2,246.6,181.3,215.9z"/>
		<path style="fill-rule:evenodd;clip-rule:evenodd;fill:#F1A16D;" d="M135.9,161.8c2,3.5,3.4,3.6-0.5,8.6c2.4,1.9,6.6,4.5,11.6,5.2
			c0.4,0.1,1,0.8,1.4,0.8l-2.8-13.5L135.9,161.8z"/>
		<circle style="fill-rule:evenodd;clip-rule:evenodd;fill:#497193;" cx="125.6" cy="93.2" r="47.1"/>
		<g>
			<g>
				<polygon style="fill:#2B2C2D;" points="152.5,113.4 152.5,89.2 125.6,74.8 98.7,89.2 98.7,113.4 				"/>
				<g>
					<rect x="94.2" y="90.2" style="fill:#676869;" width="5.6" height="23.2"/>
					<rect x="151.4" y="90.2" style="fill:#676869;" width="5.6" height="23.2"/>
					<polygon style="fill:#414244;" points="125.6,72.9 94.2,90.2 99.9,90.2 125.6,76.5 151.4,90.2 157,90.2 					"/>
				</g>
				<polygon style="fill:#858687;" points="95.4,113.4 95.4,90.2 125.6,74.2 155.8,90.2 155.8,113.4 157,113.4 157,89.5 125.6,72.9 
					94.2,89.5 94.2,113.4 				"/>
			</g>
			<g>
				<g>
					<g>
						<g>
							<rect x="97.4" y="106.9" style="fill:#F3B000;" width="4.8" height="4.8"/>
							<path d="M100.3,110.7v-0.6h-0.7v0.6c0,0.2,0.1,0.3,0.3,0.3v0.3c-0.1,0-0.2,0-0.3,0.1h0.7c0,0-0.1-0.1-0.3-0.1V111
								C100.2,111,100.3,110.9,100.3,110.7z"/>
							<g>
								<polygon points="100.7,111.5 101.6,111.5 101.6,111.3 100.7,111.3 								"/>
								<polygon points="100.8,111.3 101,111.3 101,110.3 101.1,110.3 100.9,110.1 100.7,110.3 100.8,110.3 								"/>
								<polygon points="101.4,111.3 101.5,111.3 101.5,110.3 101.6,110.3 101.4,110.1 101.2,110.3 101.4,110.3 								"/>
							</g>
						</g>
						<rect x="99.2" y="106.9" style="fill:#B68400;" width="1.1" height="1.3"/>
					</g>
					<g>
						<g>
							<rect x="103.2" y="106.9" style="fill:#F3B000;" width="4.8" height="4.8"/>
							<path d="M106.2,110.7v-0.6h-0.7v0.6c0,0.2,0.1,0.3,0.3,0.3v0.3c-0.1,0-0.2,0-0.3,0.1h0.7c0,0-0.1-0.1-0.3-0.1V111
								C106.1,111,106.2,110.9,106.2,110.7z"/>
							<g>
								<polygon points="106.5,111.5 107.5,111.5 107.5,111.3 106.5,111.3 								"/>
								<polygon points="106.7,111.3 106.8,111.3 106.8,110.3 107,110.3 106.8,110.1 106.5,110.3 106.7,110.3 								"/>
								<polygon points="107.2,111.3 107.3,111.3 107.3,110.3 107.5,110.3 107.3,110.1 107,110.3 107.2,110.3 								"/>
							</g>
						</g>
						<rect x="105.1" y="106.9" style="fill:#B68400;" width="1.1" height="1.3"/>
					</g>
				</g>
				<g>
					<g>
						<rect x="100.3" y="102" style="fill:#F3B000;" width="4.8" height="4.8"/>
						<path d="M103.2,105.8v-0.6h-0.7v0.6c0,0.2,0.1,0.3,0.3,0.3v0.3c-0.1,0-0.2,0.1-0.3,0.1h0.7c0-0.1-0.1-0.1-0.3-0.1v-0.3
							C103.1,106.1,103.2,105.9,103.2,105.8z"/>
						<g>
							<rect x="103.6" y="106.4" width="0.9" height="0.1"/>
							<polygon points="103.8,106.3 103.9,106.3 103.9,105.4 104.1,105.4 103.8,105.2 103.6,105.4 103.8,105.4 							"/>
							<polygon points="104.3,106.3 104.4,106.3 104.4,105.4 104.6,105.4 104.3,105.2 104.1,105.4 104.3,105.4 							"/>
						</g>
					</g>
					<rect x="102.1" y="102" style="fill:#B68400;" width="1.1" height="1.3"/>
				</g>
				<g>
					<rect x="96.5" y="111.7" style="fill:#F8D066;" width="12.4" height="0.4"/>
					<rect x="96.5" y="113" style="fill:#F8D066;" width="12.4" height="0.4"/>
					<rect x="102.2" y="112.1" style="fill:#BA9C4D;" width="1" height="0.9"/>
					<g>
						<rect x="96.5" y="112.1" style="fill:#BA9C4D;" width="1" height="0.9"/>
						<rect x="107.8" y="112.1" style="fill:#BA9C4D;" width="1" height="0.9"/>
					</g>
				</g>
			</g>
			<g>
				<g>
					<rect x="122.5" y="108.6" style="fill:#F3B000;" width="4.8" height="4.8"/>
					<path d="M125.5,112.4v-0.6h-0.7v0.6c0,0.2,0.1,0.3,0.3,0.3v0.3c-0.1,0-0.2,0-0.3,0.1h0.7c0-0.1-0.1-0.1-0.3-0.1v-0.3
						C125.4,112.7,125.5,112.6,125.5,112.4z"/>
					<g>
						<rect x="125.9" y="113" width="0.9" height="0.1"/>
						<polygon points="126,113 126.2,113 126.2,112 126.3,112 126.1,111.8 125.9,112 126,112 						"/>
						<polygon points="126.5,113 126.7,113 126.7,112 126.8,112 126.6,111.8 126.4,112 126.5,112 						"/>
					</g>
				</g>
				<rect x="124.4" y="108.6" style="fill:#B68400;" width="1.1" height="1.3"/>
			</g>
			<g>
				<g>
					<rect x="128" y="108.6" style="fill:#F3B000;" width="4.8" height="4.8"/>
					<path d="M131,112.4v-0.6h-0.7v0.6c0,0.2,0.1,0.3,0.3,0.3v0.3c-0.1,0-0.2,0-0.3,0.1h0.7c0-0.1-0.1-0.1-0.3-0.1v-0.3
						C130.8,112.7,131,112.6,131,112.4z"/>
					<g>
						<rect x="131.3" y="113" width="0.9" height="0.1"/>
						<polygon points="131.5,113 131.6,113 131.6,112 131.8,112 131.5,111.8 131.3,112 131.5,112 						"/>
						<polygon points="132,113 132.1,113 132.1,112 132.3,112 132,111.8 131.8,112 132,112 						"/>
					</g>
				</g>
				<rect x="129.9" y="108.6" style="fill:#B68400;" width="1.1" height="1.3"/>
			</g>
			<g>
				<g>
					<rect x="133.4" y="108.6" style="fill:#F3B000;" width="4.8" height="4.8"/>
					<path d="M136.4,112.4v-0.6h-0.7v0.6c0,0.2,0.1,0.3,0.3,0.3v0.3c-0.1,0-0.2,0-0.3,0.1h0.7c0-0.1-0.1-0.1-0.3-0.1v-0.3
						C136.3,112.7,136.4,112.6,136.4,112.4z"/>
					<g>
						<rect x="136.8" y="113" width="0.9" height="0.1"/>
						<polygon points="136.9,113 137.1,113 137.1,112 137.2,112 137,111.8 136.8,112 136.9,112 						"/>
						<polygon points="137.4,113 137.6,113 137.6,112 137.7,112 137.5,111.8 137.3,112 137.4,112 						"/>
					</g>
				</g>
				<rect x="135.3" y="108.6" style="fill:#B68400;" width="1.1" height="1.3"/>
			</g>
			<g>
				<g>
					<rect x="138.9" y="108.6" style="fill:#F3B000;" width="4.8" height="4.8"/>
					<path d="M141.9,112.4v-0.6h-0.7v0.6c0,0.2,0.1,0.3,0.3,0.3v0.3c-0.1,0-0.2,0-0.3,0.1h0.7c0-0.1-0.1-0.1-0.3-0.1v-0.3
						C141.7,112.7,141.9,112.6,141.9,112.4z"/>
					<g>
						<rect x="142.2" y="113" width="0.9" height="0.1"/>
						<polygon points="142.4,113 142.5,113 142.5,112 142.7,112 142.4,111.8 142.2,112 142.4,112 						"/>
						<polygon points="142.9,113 143,113 143,112 143.2,112 143,111.8 142.7,112 142.9,112 						"/>
					</g>
				</g>
				<rect x="140.7" y="108.6" style="fill:#B68400;" width="1.1" height="1.3"/>
			</g>
			<g>
				<g>
					<rect x="144.3" y="108.6" style="fill:#F3B000;" width="4.8" height="4.8"/>
					<path d="M147.3,112.4v-0.6h-0.7v0.6c0,0.2,0.1,0.3,0.3,0.3v0.3c-0.1,0-0.2,0-0.3,0.1h0.7c0-0.1-0.1-0.1-0.3-0.1v-0.3
						C147.2,112.7,147.3,112.6,147.3,112.4z"/>
					<g>
						<rect x="147.7" y="113" width="0.9" height="0.1"/>
						<polygon points="147.8,113 148,113 148,112 148.1,112 147.9,111.8 147.7,112 147.8,112 						"/>
						<polygon points="148.3,113 148.5,113 148.5,112 148.6,112 148.4,111.8 148.2,112 148.3,112 						"/>
					</g>
				</g>
				<rect x="146.2" y="108.6" style="fill:#B68400;" width="1.1" height="1.3"/>
			</g>
			<g>
				<g>
					<rect x="149.8" y="108.6" style="fill:#F3B000;" width="4.8" height="4.8"/>
					<path d="M152.8,112.4v-0.6h-0.7v0.6c0,0.2,0.1,0.3,0.3,0.3v0.3c-0.1,0-0.2,0-0.3,0.1h0.7c0-0.1-0.1-0.1-0.3-0.1v-0.3
						C152.7,112.7,152.8,112.6,152.8,112.4z"/>
					<g>
						<rect x="153.1" y="113" width="0.9" height="0.1"/>
						<polygon points="153.3,113 153.4,113 153.4,112 153.6,112 153.4,111.8 153.1,112 153.3,112 						"/>
						<polygon points="153.8,113 153.9,113 153.9,112 154.1,112 153.8,111.8 153.6,112 153.8,112 						"/>
					</g>
				</g>
				<rect x="151.7" y="108.6" style="fill:#B68400;" width="1.1" height="1.3"/>
			</g>
			<g>
				<g>
					<rect x="122.5" y="103.5" style="fill:#F3B000;" width="4.8" height="4.8"/>
					<path d="M125.5,107.3v-0.6h-0.7v0.6c0,0.2,0.1,0.3,0.3,0.3v0.3c-0.1,0-0.2,0-0.3,0.1h0.7c0-0.1-0.1-0.1-0.3-0.1v-0.3
						C125.4,107.6,125.5,107.4,125.5,107.3z"/>
					<g>
						<rect x="125.9" y="107.9" width="0.9" height="0.1"/>
						<polygon points="126,107.8 126.2,107.8 126.2,106.9 126.3,106.9 126.1,106.7 125.9,106.9 126,106.9 						"/>
						<polygon points="126.5,107.8 126.7,107.8 126.7,106.9 126.8,106.9 126.6,106.7 126.4,106.9 126.5,106.9 						"/>
					</g>
				</g>
				<rect x="124.4" y="103.5" style="fill:#B68400;" width="1.1" height="1.3"/>
			</g>
			<g>
				<g>
					<rect x="128" y="103.5" style="fill:#F3B000;" width="4.8" height="4.8"/>
					<path d="M131,107.3v-0.6h-0.7v0.6c0,0.2,0.1,0.3,0.3,0.3v0.3c-0.1,0-0.2,0-0.3,0.1h0.7c0-0.1-0.1-0.1-0.3-0.1v-0.3
						C130.8,107.6,131,107.4,131,107.3z"/>
					<g>
						<rect x="131.3" y="107.9" width="0.9" height="0.1"/>
						<polygon points="131.5,107.8 131.6,107.8 131.6,106.9 131.8,106.9 131.5,106.7 131.3,106.9 131.5,106.9 						"/>
						<polygon points="132,107.8 132.1,107.8 132.1,106.9 132.3,106.9 132,106.7 131.8,106.9 132,106.9 						"/>
					</g>
				</g>
				<rect x="129.9" y="103.5" style="fill:#B68400;" width="1.1" height="1.3"/>
			</g>
			<g>
				<g>
					<rect x="133.4" y="103.5" style="fill:#F3B000;" width="4.8" height="4.8"/>
					<path d="M136.4,107.3v-0.6h-0.7v0.6c0,0.2,0.1,0.3,0.3,0.3v0.3c-0.1,0-0.2,0-0.3,0.1h0.7c0-0.1-0.1-0.1-0.3-0.1v-0.3
						C136.3,107.6,136.4,107.4,136.4,107.3z"/>
					<g>
						<rect x="136.8" y="107.9" width="0.9" height="0.1"/>
						<polygon points="136.9,107.8 137.1,107.8 137.1,106.9 137.2,106.9 137,106.7 136.8,106.9 136.9,106.9 						"/>
						<polygon points="137.4,107.8 137.6,107.8 137.6,106.9 137.7,106.9 137.5,106.7 137.3,106.9 137.4,106.9 						"/>
					</g>
				</g>
				<rect x="135.3" y="103.5" style="fill:#B68400;" width="1.1" height="1.3"/>
			</g>
			<g>
				<g>
					<rect x="138.9" y="103.5" style="fill:#F3B000;" width="4.8" height="4.8"/>
					<path d="M141.9,107.3v-0.6h-0.7v0.6c0,0.2,0.1,0.3,0.3,0.3v0.3c-0.1,0-0.2,0-0.3,0.1h0.7c0-0.1-0.1-0.1-0.3-0.1v-0.3
						C141.7,107.6,141.9,107.4,141.9,107.3z"/>
					<g>
						<rect x="142.2" y="107.9" width="0.9" height="0.1"/>
						<polygon points="142.4,107.8 142.5,107.8 142.5,106.9 142.7,106.9 142.4,106.7 142.2,106.9 142.4,106.9 						"/>
						<polygon points="142.9,107.8 143,107.8 143,106.9 143.2,106.9 143,106.7 142.7,106.9 142.9,106.9 						"/>
					</g>
				</g>
				<rect x="140.7" y="103.5" style="fill:#B68400;" width="1.1" height="1.3"/>
			</g>
			<g>
				<g>
					<rect x="144.3" y="103.5" style="fill:#F3B000;" width="4.8" height="4.8"/>
					<path d="M147.3,107.3v-0.6h-0.7v0.6c0,0.2,0.1,0.3,0.3,0.3v0.3c-0.1,0-0.2,0-0.3,0.1h0.7c0-0.1-0.1-0.1-0.3-0.1v-0.3
						C147.2,107.6,147.3,107.4,147.3,107.3z"/>
					<g>
						<rect x="147.7" y="107.9" width="0.9" height="0.1"/>
						<polygon points="147.8,107.8 148,107.8 148,106.9 148.1,106.9 147.9,106.7 147.7,106.9 147.8,106.9 						"/>
						<polygon points="148.3,107.8 148.5,107.8 148.5,106.9 148.6,106.9 148.4,106.7 148.2,106.9 148.3,106.9 						"/>
					</g>
				</g>
				<rect x="146.2" y="103.5" style="fill:#B68400;" width="1.1" height="1.3"/>
			</g>
			<g>
				<g>
					<rect x="149.8" y="103.5" style="fill:#F3B000;" width="4.8" height="4.8"/>
					<path d="M152.8,107.3v-0.6h-0.7v0.6c0,0.2,0.1,0.3,0.3,0.3v0.3c-0.1,0-0.2,0-0.3,0.1h0.7c0-0.1-0.1-0.1-0.3-0.1v-0.3
						C152.7,107.6,152.8,107.4,152.8,107.3z"/>
					<g>
						<rect x="153.1" y="107.9" width="0.9" height="0.1"/>
						<polygon points="153.3,107.8 153.4,107.8 153.4,106.9 153.6,106.9 153.4,106.7 153.1,106.9 153.3,106.9 						"/>
						<polygon points="153.8,107.8 153.9,107.8 153.9,106.9 154.1,106.9 153.8,106.7 153.6,106.9 153.8,106.9 						"/>
					</g>
				</g>
				<rect x="151.7" y="103.5" style="fill:#B68400;" width="1.1" height="1.3"/>
			</g>
			<g>
				<g>
					<rect x="122.5" y="98.3" style="fill:#F3B000;" width="4.8" height="4.8"/>
					<path d="M125.5,102.1v-0.6h-0.7v0.6c0,0.2,0.1,0.3,0.3,0.3v0.3c-0.1,0-0.2,0.1-0.3,0.1h0.7c0-0.1-0.1-0.1-0.3-0.1v-0.3
						C125.4,102.4,125.5,102.3,125.5,102.1z"/>
					<g>
						<rect x="125.9" y="102.7" width="0.9" height="0.1"/>
						<polygon points="126,102.7 126.2,102.7 126.2,101.7 126.3,101.7 126.1,101.5 125.9,101.7 126,101.7 						"/>
						<polygon points="126.5,102.7 126.7,102.7 126.7,101.7 126.8,101.7 126.6,101.5 126.4,101.7 126.5,101.7 						"/>
					</g>
				</g>
				<rect x="124.4" y="98.3" style="fill:#B68400;" width="1.1" height="1.3"/>
			</g>
			<g>
				<g>
					<rect x="128" y="98.3" style="fill:#F3B000;" width="4.8" height="4.8"/>
					<path d="M131,102.1v-0.6h-0.7v0.6c0,0.2,0.1,0.3,0.3,0.3v0.3c-0.1,0-0.2,0.1-0.3,0.1h0.7c0-0.1-0.1-0.1-0.3-0.1v-0.3
						C130.8,102.4,131,102.3,131,102.1z"/>
					<g>
						<rect x="131.3" y="102.7" width="0.9" height="0.1"/>
						<polygon points="131.5,102.7 131.6,102.7 131.6,101.7 131.8,101.7 131.5,101.5 131.3,101.7 131.5,101.7 						"/>
						<polygon points="132,102.7 132.1,102.7 132.1,101.7 132.3,101.7 132,101.5 131.8,101.7 132,101.7 						"/>
					</g>
				</g>
				<rect x="129.9" y="98.3" style="fill:#B68400;" width="1.1" height="1.3"/>
			</g>
			<g>
				<g>
					<rect x="133.4" y="98.3" style="fill:#F3B000;" width="4.8" height="4.8"/>
					<path d="M136.4,102.1v-0.6h-0.7v0.6c0,0.2,0.1,0.3,0.3,0.3v0.3c-0.1,0-0.2,0.1-0.3,0.1h0.7c0-0.1-0.1-0.1-0.3-0.1v-0.3
						C136.3,102.4,136.4,102.3,136.4,102.1z"/>
					<g>
						<rect x="136.8" y="102.7" width="0.9" height="0.1"/>
						<polygon points="136.9,102.7 137.1,102.7 137.1,101.7 137.2,101.7 137,101.5 136.8,101.7 136.9,101.7 						"/>
						<polygon points="137.4,102.7 137.6,102.7 137.6,101.7 137.7,101.7 137.5,101.5 137.3,101.7 137.4,101.7 						"/>
					</g>
				</g>
				<rect x="135.3" y="98.3" style="fill:#B68400;" width="1.1" height="1.3"/>
			</g>
			<g>
				<g>
					<rect x="138.9" y="98.3" style="fill:#F3B000;" width="4.8" height="4.8"/>
					<path d="M141.9,102.1v-0.6h-0.7v0.6c0,0.2,0.1,0.3,0.3,0.3v0.3c-0.1,0-0.2,0.1-0.3,0.1h0.7c0-0.1-0.1-0.1-0.3-0.1v-0.3
						C141.7,102.4,141.9,102.3,141.9,102.1z"/>
					<g>
						<rect x="142.2" y="102.7" width="0.9" height="0.1"/>
						<polygon points="142.4,102.7 142.5,102.7 142.5,101.7 142.7,101.7 142.4,101.5 142.2,101.7 142.4,101.7 						"/>
						<polygon points="142.9,102.7 143,102.7 143,101.7 143.2,101.7 143,101.5 142.7,101.7 142.9,101.7 						"/>
					</g>
				</g>
				<rect x="140.7" y="98.3" style="fill:#B68400;" width="1.1" height="1.3"/>
			</g>
			<g>
				<g>
					<rect x="144.3" y="98.3" style="fill:#F3B000;" width="4.8" height="4.8"/>
					<path d="M147.3,102.1v-0.6h-0.7v0.6c0,0.2,0.1,0.3,0.3,0.3v0.3c-0.1,0-0.2,0.1-0.3,0.1h0.7c0-0.1-0.1-0.1-0.3-0.1v-0.3
						C147.2,102.4,147.3,102.3,147.3,102.1z"/>
					<g>
						<rect x="147.7" y="102.7" width="0.9" height="0.1"/>
						<polygon points="147.8,102.7 148,102.7 148,101.7 148.1,101.7 147.9,101.5 147.7,101.7 147.8,101.7 						"/>
						<polygon points="148.3,102.7 148.5,102.7 148.5,101.7 148.6,101.7 148.4,101.5 148.2,101.7 148.3,101.7 						"/>
					</g>
				</g>
				<rect x="146.2" y="98.3" style="fill:#B68400;" width="1.1" height="1.3"/>
			</g>
			<g>
				<g>
					<rect x="149.8" y="98.3" style="fill:#F3B000;" width="4.8" height="4.8"/>
					<path d="M152.8,102.1v-0.6h-0.7v0.6c0,0.2,0.1,0.3,0.3,0.3v0.3c-0.1,0-0.2,0.1-0.3,0.1h0.7c0-0.1-0.1-0.1-0.3-0.1v-0.3
						C152.7,102.4,152.8,102.3,152.8,102.1z"/>
					<g>
						<rect x="153.1" y="102.7" width="0.9" height="0.1"/>
						<polygon points="153.3,102.7 153.4,102.7 153.4,101.7 153.6,101.7 153.4,101.5 153.1,101.7 153.3,101.7 						"/>
						<polygon points="153.8,102.7 153.9,102.7 153.9,101.7 154.1,101.7 153.8,101.5 153.6,101.7 153.8,101.7 						"/>
					</g>
				</g>
				<rect x="151.7" y="98.3" style="fill:#B68400;" width="1.1" height="1.3"/>
			</g>
			<g>
				<g>
					<g>
						<g>
							<rect x="110.4" y="106.9" style="fill:#F3B000;" width="4.8" height="4.8"/>
							<path d="M113.4,110.7v-0.6h-0.7v0.6c0,0.2,0.1,0.3,0.3,0.3v0.3c-0.1,0-0.2,0-0.3,0.1h0.7c0,0-0.1-0.1-0.3-0.1V111
								C113.3,111,113.4,110.9,113.4,110.7z"/>
							<g>
								<polygon points="113.8,111.5 114.7,111.5 114.7,111.3 113.8,111.3 								"/>
								<polygon points="113.9,111.3 114,111.3 114,110.3 114.2,110.3 114,110.1 113.8,110.3 113.9,110.3 								"/>
								<polygon points="114.4,111.3 114.5,111.3 114.5,110.3 114.7,110.3 114.5,110.1 114.2,110.3 114.4,110.3 								"/>
							</g>
						</g>
						<rect x="112.3" y="106.9" style="fill:#B68400;" width="1.1" height="1.3"/>
					</g>
					<g>
						<g>
							<rect x="116.2" y="106.9" style="fill:#F3B000;" width="4.8" height="4.8"/>
							<path d="M119.2,110.7v-0.6h-0.7v0.6c0,0.2,0.1,0.3,0.3,0.3v0.3c-0.1,0-0.2,0-0.3,0.1h0.7c0,0-0.1-0.1-0.3-0.1V111
								C119.1,111,119.2,110.9,119.2,110.7z"/>
							<g>
								<polygon points="119.6,111.5 120.5,111.5 120.5,111.3 119.6,111.3 								"/>
								<polygon points="119.7,111.3 119.9,111.3 119.9,110.3 120,110.3 119.8,110.1 119.6,110.3 119.7,110.3 								"/>
								<polygon points="120.2,111.3 120.4,111.3 120.4,110.3 120.5,110.3 120.3,110.1 120.1,110.3 120.2,110.3 								"/>
							</g>
						</g>
						<rect x="118.1" y="106.9" style="fill:#B68400;" width="1.1" height="1.3"/>
					</g>
				</g>
				<g>
					<g>
						<g>
							<rect x="110.4" y="102" style="fill:#F3B000;" width="4.8" height="4.8"/>
							<path d="M113.4,105.8v-0.6h-0.7v0.6c0,0.2,0.1,0.3,0.3,0.3v0.3c-0.1,0-0.2,0.1-0.3,0.1h0.7c0-0.1-0.1-0.1-0.3-0.1v-0.3
								C113.3,106.1,113.4,105.9,113.4,105.8z"/>
							<g>
								<rect x="113.8" y="106.4" width="0.9" height="0.1"/>
								<polygon points="113.9,106.3 114,106.3 114,105.4 114.2,105.4 114,105.2 113.8,105.4 113.9,105.4 								"/>
								<polygon points="114.4,106.3 114.5,106.3 114.5,105.4 114.7,105.4 114.5,105.2 114.2,105.4 114.4,105.4 								"/>
							</g>
						</g>
						<rect x="112.3" y="102" style="fill:#B68400;" width="1.1" height="1.3"/>
					</g>
					<g>
						<g>
							<rect x="116.2" y="102" style="fill:#F3B000;" width="4.8" height="4.8"/>
							<path d="M119.2,105.8v-0.6h-0.7v0.6c0,0.2,0.1,0.3,0.3,0.3v0.3c-0.1,0-0.2,0.1-0.3,0.1h0.7c0-0.1-0.1-0.1-0.3-0.1v-0.3
								C119.1,106.1,119.2,105.9,119.2,105.8z"/>
							<g>
								<rect x="119.6" y="106.4" width="0.9" height="0.1"/>
								<polygon points="119.7,106.3 119.9,106.3 119.9,105.4 120,105.4 119.8,105.2 119.6,105.4 119.7,105.4 								"/>
								<polygon points="120.2,106.3 120.4,106.3 120.4,105.4 120.5,105.4 120.3,105.2 120.1,105.4 120.2,105.4 								"/>
							</g>
						</g>
						<rect x="118.1" y="102" style="fill:#B68400;" width="1.1" height="1.3"/>
					</g>
				</g>
				<g>
					<rect x="109.6" y="111.7" style="fill:#F8D066;" width="12.4" height="0.4"/>
					<rect x="109.6" y="113" style="fill:#F8D066;" width="12.4" height="0.4"/>
					<rect x="115.2" y="112.1" style="fill:#BA9C4D;" width="1" height="0.9"/>
					<g>
						<rect x="109.6" y="112.1" style="fill:#BA9C4D;" width="1" height="0.9"/>
						<rect x="120.9" y="112.1" style="fill:#BA9C4D;" width="1" height="0.9"/>
					</g>
				</g>
			</g>
		</g>
		<circle style="opacity:0.5;fill-rule:evenodd;clip-rule:evenodd;fill:#84B3D5;" cx="125.6" cy="93.2" r="42"/>
		<path style="fill-rule:evenodd;clip-rule:evenodd;fill:#9ECBEA;" d="M104.5,127.3c6,3.6,13,5.6,20.4,5.6
			c22.3,0.1,40.4-17.9,40.5-40.2c0-7-1.8-13.7-4.9-19.4c1.6,4.5,2.4,9.3,2.4,14.4c-0.1,23.6-19.3,42.7-42.9,42.6
			C114.5,130.3,109.3,129.2,104.5,127.3z"/>
		<path style="fill-rule:evenodd;clip-rule:evenodd;fill:#497193;" d="M139,134.9l-10.3,2l2.4,12.5c-0.1,10.3,9.5,12.5,2.9,20.8
			c2.5,2.1,7.3,5,12.8,5.3c-1-5.4-2.1-10.9-3.2-16.3c-3.1-4.7-4.6-9.8-3.1-15.9L139,134.9z"/>
		<path style="fill-rule:evenodd;clip-rule:evenodd;fill:#F1A16D;" d="M125.4,183.7c0.2,0.1,0.3,0.2,0.3,0.2l0,0
			c0.8,0.6,2,1.4,5.8,3.1c4.1,1.9,9.3,2.5,13.3,2.7c4.1,0.2,8.4-1.9,10.6-1.3c2.2,0.6,3.3,2.2,3.9,4.5c0.6,2.3-0.2,4.3-1.9,5.7
			c-1.7,1.3-14.3,2.1-19.4,1.9c-5.1-0.2-13.5-2.1-12.2-1.2c1.3,0.9,7.1,1.5,12.4,1.8c5.3,0.3,15.4-1.1,16.6-0.4
			c1.2,0.7,1.7,1.9,1.6,4.2c-0.1,2.3-1.7,4.1-5,5.4c-3.3,1.3-16.4,2.6-21.9,2.2c-0.3,0-0.6,0-0.9-0.1c9,9.5,36.8,28.3,51.3,6.1
			c-6.3,6.7-15.9,8.3-23.8,6.7c-5.3-1.1-12.9-5.9-8.1-9.1c4.8-3.2,8.7-7.3,9-11.3c0.3-4.1-2.4-4.7-0.5-4.8c1.9-0.1,3.2,6.1,5.3,10.7
			c2.2,4.7,4.6,4.5,1.5-0.9c-3.2-5.4-2.4-11.8-3.1-16.8c-0.6-5-5.2-5.8-4.5-6.9c0.7-1.2,1.2-4.5-1.1-7c-2.2-2.5-0.8-6.7,2.3-5.4
			c3.2,1.3,12.5,3.3,15.1,2.6c-16.6-2.8-15.8-14.9-19.3-15.5c-3.5-0.6-10.3-4.7-12.3-9.2c2.3,8.3,5.5,13.5,7.9,16.2
			c2.5,2.6,3,4.1,2.7,7c-0.3,2.9-1.4,2.2-3.3,1c-1.9-1.2-0.5,0.5,1.3,1.6c1.7,1.2,2.9,0.3,4.5,2.1c1.6,1.7,1.9,3.7,0.9,6.7
			c-1,3-4.9,2.1-9.3,2.5c-4.4,0.3-9.6-0.9-13.2-2.5C128.5,184.6,124.9,183.3,125.4,183.7z"/>
		<path style="fill-rule:evenodd;clip-rule:evenodd;fill:#FFEBDD;" d="M149.2,145.6c-1.3-1.4-2.3-2.8-2.7-4
			c-0.1-0.2-0.2-0.4-0.3-0.6c-0.4,1.4,0.2,3.3,1.1,4.4C147.8,146.1,148.5,146,149.2,145.6z"/>
		<path style="fill-rule:evenodd;clip-rule:evenodd;fill:#F1A16D;" d="M122.5,166.7c0.2,0.4,0.4,0.6,0.4,0.6s-0.5,0.1-1.2,0.3
			c2.4,2,5.8,5.4,8.3,7c2.7,1.7,4.1-3.4,4.1-4.2c0-0.8-1,0.4-3.3,0.6c-2.3,0.2-6.1-2.6-7.9-4C122.7,166.9,122.6,166.8,122.5,166.7z"
			/>
		<path style="fill-rule:evenodd;clip-rule:evenodd;fill:#FFEBDD;" d="M149.4,202.4c-0.3,0.5-0.4,3.9,0,4.6c0.4,0.7,4.3,1.2,5.3,0.1
			c0.9-1,1.4-5.5-0.6-6C152.4,200.7,149.7,201.9,149.4,202.4z"/>
		<path style="fill-rule:evenodd;clip-rule:evenodd;fill:#FFEBDD;" d="M126.9,162.2c-2.1,2.7,1,6.4,2,7.2c1.7,1.5,6.2-4.4,4.3-5.9
			C131.7,162.3,128.4,160.2,126.9,162.2z"/>
		<path style="fill-rule:evenodd;clip-rule:evenodd;fill:#FFEBDD;" d="M147,186.5c1.6,1.1,4.3,1.5,5.6,1.1c1.9-0.5,2.5-6.9-0.1-8.1
			c-1.5-0.6-4.2,0-5.5,1.4C145.6,182.3,145.7,185.6,147,186.5z"/>
		<path style="fill-rule:evenodd;clip-rule:evenodd;fill:#FFEBDD;" d="M151.6,191.3c0.6-0.8,3.4-2.1,4.9-1.6
			c1.5,0.5,3.2,5.7,0.8,7.4c-2.4,1.7-4.8,1.5-5.4,0.2C151.4,196.1,151.1,192.1,151.6,191.3z"/>
		<path style="fill-rule:evenodd;clip-rule:evenodd;fill:#F1A16D;" d="M188.8,189.3c4.5,9-6.9,26.3-14.7,23.1
			C182.3,208.1,189.1,198.7,188.8,189.3z"/>
		<polygon style="fill-rule:evenodd;clip-rule:evenodd;fill:#B2CD55;" points="172.6,237.9 201.8,198.8 260,242.4 260,262.6 
			205.7,262.6 		"/>
		<path style="fill:#C3E0F4;" d="M193.8,37.4c0.1,0,0.3,0,0.4,0l0.2-0.7l1.4,0.4l-0.2,0.7c0.5,0.3,0.9,0.6,1.3,1.1l0.6-0.3l0.7,1.3
			l-0.6,0.3c0.2,0.5,0.2,1.1,0.2,1.6l0.7,0.2l-0.4,1.4l-0.7-0.2c-0.3,0.5-0.6,0.9-1.1,1.3l0.3,0.6l-1.3,0.7l-0.3-0.6
			c-0.4,0.1-0.8,0.2-1.2,0.2v-1c1.3,0,2.4-0.8,2.8-2.1c0.5-1.6-0.4-3.2-2-3.7c-0.3-0.1-0.6-0.1-0.9-0.1V37.4z M191.3,38.2l-0.3-0.6
			l1.3-0.7l0.3,0.6c0.4-0.1,0.8-0.2,1.2-0.2v1c-1.3,0-2.4,0.8-2.8,2.1c-0.5,1.6,0.4,3.2,2,3.7l0,0c0.3,0.1,0.6,0.1,0.9,0.1v1
			c-0.1,0-0.3,0-0.4,0l-0.2,0.7l-1.4-0.4l0.2-0.7c-0.5-0.3-0.9-0.6-1.3-1.1l-0.6,0.3l-0.7-1.3l0.6-0.3c-0.2-0.5-0.2-1.1-0.2-1.6
			l-0.7-0.2l0.4-1.4l0.7,0.2C190.5,39,190.9,38.6,191.3,38.2z"/>
		<path style="fill:#C3E0F4;" d="M27.7,121c0.3,0,0.5,0,0.8,0l0.4-1.2l2.5,0.8l-0.4,1.2c0.9,0.5,1.7,1.1,2.3,1.9l1.1-0.6l1.2,2.3
			l-1.1,0.6c0.3,1,0.4,2,0.3,3l1.2,0.4l-0.8,2.5l-1.2-0.4c-0.5,0.9-1.1,1.7-1.9,2.3l0.6,1.1l-2.3,1.2l-0.6-1.1
			c-0.7,0.2-1.4,0.3-2.2,0.3v-1.9c2.3,0,4.4-1.5,5.1-3.8c0.9-2.8-0.7-5.8-3.6-6.7c-0.5-0.2-1-0.2-1.6-0.2V121z M23.2,122.6l-0.6-1.1
			l2.3-1.2l0.6,1.1c0.7-0.2,1.4-0.3,2.2-0.3v1.9c-2.3,0-4.4,1.5-5.1,3.8c-0.9,2.8,0.7,5.8,3.6,6.7l0,0c0.5,0.2,1,0.2,1.6,0.2v1.9
			c-0.3,0-0.5,0-0.8,0l-0.4,1.2l-2.5-0.8l0.4-1.2c-0.9-0.5-1.7-1.1-2.3-1.9l-1.1,0.6l-1.2-2.3l1.1-0.6c-0.3-1-0.4-2-0.3-3l-1.2-0.4
			l0.8-2.5l1.2,0.4C21.8,124,22.4,123.2,23.2,122.6z"/>
		<g>
			<polygon style="fill-rule:evenodd;clip-rule:evenodd;fill:#FFFFFF;" points="197.1,149.3 213.9,149.3 219.5,154.8 219.5,181 
				197.1,181 			"/>
			<g>
				<circle style="fill-rule:evenodd;clip-rule:evenodd;fill:#FF4938;" cx="208.3" cy="159.5" r="6.1"/>
				<path style="fill-rule:evenodd;clip-rule:evenodd;fill:#7FB3E2;" d="M204.9,164.6c-0.9-0.6-1.6-1.4-2.1-2.3l5.4-2.8L204.9,164.6
					z"/>
				<path style="fill-rule:evenodd;clip-rule:evenodd;fill:#4D85B7;" d="M202.8,162.2c-0.4-0.8-0.7-1.8-0.7-2.8c0-2,0.9-3.7,2.3-4.8
					l3.8,4.8L202.8,162.2z"/>
				<path style="fill-rule:evenodd;clip-rule:evenodd;fill:#FFAD00;" d="M204.5,154.7c1-0.8,2.3-1.3,3.8-1.3v6.1L204.5,154.7z"/>
				<path style="fill-rule:evenodd;clip-rule:evenodd;fill:#FFAD00;" d="M208.3,153.4v6.1l4.4-4.3
					C211.5,154.1,210,153.4,208.3,153.4z"/>
			</g>
			<g>
				<rect x="199.4" y="173.8" style="fill-rule:evenodd;clip-rule:evenodd;fill:#C3E0F4;" width="17.7" height="0.4"/>
				<rect x="199.4" y="174.7" style="fill-rule:evenodd;clip-rule:evenodd;fill:#C3E0F4;" width="17.7" height="0.4"/>
				<rect x="199.4" y="175.6" style="fill-rule:evenodd;clip-rule:evenodd;fill:#C3E0F4;" width="17.7" height="0.4"/>
				<rect x="199.4" y="176.6" style="fill-rule:evenodd;clip-rule:evenodd;fill:#C3E0F4;" width="17.7" height="0.4"/>
				<rect x="199.4" y="177.5" style="fill-rule:evenodd;clip-rule:evenodd;fill:#C3E0F4;" width="9.5" height="0.4"/>
				<rect x="199.4" y="170" style="fill-rule:evenodd;clip-rule:evenodd;fill:#C3E0F4;" width="17.7" height="2.3"/>
			</g>
			<polygon style="fill-rule:evenodd;clip-rule:evenodd;fill:#C3E0F4;" points="213.9,149.3 219.5,154.8 213.9,154.8 			"/>
		</g>
	</g>
</g>
</svg>
